<?xml version="1.0" encoding="UTF-8"?>
<svg id="Layer_2" data-name="Layer 2" xmlns="http://www.w3.org/2000/svg" viewBox="0 0 756 540">
  <defs>
    <style>
      .cls-1 {
        fill: #21508b;
      }

      .cls-2 {
        fill: #2f4483;
      }

      .cls-3 {
        fill: #20548d;
      }

      .cls-4 {
        fill: #264e8c;
      }

      .cls-5 {
        fill: #23508b;
      }

      .cls-6 {
        fill: #20578e;
      }

      .cls-7 {
        fill: #1b5a90;
      }

      .cls-8 {
        fill: #1b588e;
      }

      .cls-9 {
        fill: #1c588f;
      }

      .cls-10 {
        fill: #1f528b;
      }

      .cls-11 {
        fill: #1c5b91;
      }

      .cls-12 {
        fill: #2c4b88;
      }

      .cls-13 {
        fill: #175d91;
      }

      .cls-14 {
        fill: #1f5289;
      }

      .cls-15 {
        fill: #1a6094;
      }

      .cls-16 {
        fill: #20588a;
      }

      .cls-17 {
        fill: #1e548c;
      }

      .cls-18 {
        fill: #1d5990;
      }

      .cls-19 {
        fill: #2a4d89;
      }

      .cls-20 {
        fill: #1c578f;
      }

      .cls-21 {
        fill: #1d598f;
      }

      .cls-22 {
        fill: #2c4a89;
      }

      .cls-23 {
        fill: #264e89;
      }

      .cls-24 {
        fill: #2e4989;
      }

      .cls-25 {
        fill: #1c5c92;
      }

      .cls-26 {
        fill: #2a4c86;
      }
    </style>
  </defs>
  <g id="Layer_1-2" data-name="Layer 1">
    <g>
      <rect class="cls-13" width="756" height="540"/>
      <g>
        <polygon class="cls-26" points="754.9 520.85 740.2 525.63 740.2 539.99 754.9 539.99 754.9 520.85"/>
        <polygon class="cls-24" points="740.2 525.63 707.15 539.99 740.2 539.99 740.2 525.63"/>
        <polygon class="cls-19" points="754.9 394.79 707.15 431.49 740.2 525.63 754.9 520.85 754.9 394.79"/>
        <polygon class="cls-2" points="626.34 484.14 644.71 539.99 707.15 539.99 740.2 525.63 626.34 484.14"/>
        <polygon class="cls-12" points="576.76 461.81 547.37 539.99 644.71 539.99 626.34 484.14 576.76 461.81"/>
        <polygon class="cls-23" points="439.02 512.87 576.76 461.81 547.37 539.99 468.4 539.99 439.02 512.87"/>
        <polygon class="cls-22" points="411.47 539.99 468.4 539.99 439.02 512.87 411.47 539.99"/>
        <polygon class="cls-3" points="352.71 474.57 343.52 511.27 439.02 512.87 352.71 474.57"/>
        <polygon class="cls-10" points="315.98 539.99 343.52 511.27 439.02 512.87 411.47 539.99 315.98 539.99"/>
        <polygon class="cls-14" points="288.43 525.63 352.71 474.57 343.52 511.27 288.43 525.63"/>
        <polygon class="cls-3" points="295.77 539.99 288.43 525.63 343.52 511.27 315.98 539.99 295.77 539.99"/>
        <polygon class="cls-3" points="238.84 539.99 288.43 525.63 295.77 539.99 238.84 539.99"/>
        <polygon class="cls-3" points="249.86 461.81 288.43 525.63 352.71 474.57 249.86 461.81"/>
        <polygon class="cls-6" points="136 465 249.86 461.81 288.43 525.63 238.84 539.99 209.46 539.99 136 465"/>
        <polygon class="cls-5" points="80.9 539.99 136 465 209.46 539.99 80.9 539.99"/>
        <polygon class="cls-18" points="25.81 468.19 .1 501.7 .1 539.99 80.9 539.99 136 465 25.81 468.19"/>
        <polygon class="cls-3" points="130.49 444.25 .1 401.17 .1 441.06 25.81 468.19 130.49 444.25"/>
        <polygon class="cls-17" points="25.81 468.19 .1 460.21 .1 441.06 25.81 468.19"/>
        <polygon class="cls-15" points=".1 501.7 .1 460.21 25.81 468.19 .1 501.7"/>
        <polygon class="cls-25" points="754.9 168.2 723.68 180.96 754.9 214.47 754.9 168.2"/>
        <polygon class="cls-8" points="674.09 281.49 754.9 271.92 754.9 283.09 674.09 281.49"/>
        <polygon class="cls-16" points="754.9 394.79 754.9 337.34 707.15 431.49 754.9 394.79"/>
        <polygon class="cls-3" points="754.32 338.47 754.9 283.09 674.09 281.49 707.15 431.49 754.32 338.47"/>
        <polygon class="cls-4" points="707.15 431.49 552.88 423.51 615.32 472.97 707.15 431.49"/>
        <polygon class="cls-19" points="626.34 484.14 576.76 461.81 615.32 472.97 626.34 484.14"/>
        <polygon class="cls-12" points="740.2 525.63 626.34 484.14 615.32 472.97 707.15 431.49 740.2 525.63"/>
        <polygon class="cls-1" points="552.88 423.51 422.49 450.64 576.76 461.81 615.32 472.97 552.88 423.51"/>
        <polygon class="cls-1" points="352.71 474.57 422.49 450.64 439.02 512.87 352.71 474.57"/>
        <polygon class="cls-17" points="576.76 461.81 439.02 512.87 422.49 450.64 576.76 461.81"/>
        <polygon class="cls-18" points="633.69 227.24 562.06 249.58 674.09 281.49 723.68 260.75 633.69 227.24"/>
        <polygon class="cls-11" points="562.06 249.58 552.88 423.51 674.09 281.49 562.06 249.58"/>
        <polygon class="cls-20" points="707.15 431.49 552.88 423.51 674.09 281.49 707.15 431.49"/>
        <polygon class="cls-21" points="562.06 249.58 402.29 346.92 422.49 450.64 552.88 423.51 562.06 249.58"/>
        <polygon class="cls-20" points="371.07 381.49 422.49 450.64 402.29 346.92 371.07 381.49"/>
        <polygon class="cls-20" points="371.07 382.02 249.86 461.81 352.71 474.57 371.07 382.02"/>
        <polygon class="cls-9" points="422.49 450.64 352.71 474.57 371.07 382.02 422.49 450.64"/>
        <polygon class="cls-18" points="130.49 444.25 249.86 461.81 25.81 468.19 130.49 444.25"/>
        <polygon class="cls-7" points="754.9 214.47 723.68 260.75 633.69 227.24 723.68 180.96 754.9 214.47"/>
        <polygon class="cls-25" points="754.9 214.47 754.9 271.92 674.09 281.49 723.68 260.75 754.9 214.47"/>
      </g>
      <g>
        <polygon class="cls-26" points="1.2 19.15 15.89 14.36 15.89 0 1.2 0 1.2 19.15"/>
        <polygon class="cls-24" points="15.89 14.36 48.95 0 15.89 0 15.89 14.36"/>
        <polygon class="cls-19" points="1.2 145.21 48.95 108.51 15.89 14.36 1.2 19.15 1.2 145.21"/>
        <polygon class="cls-2" points="129.76 55.85 111.39 0 48.95 0 15.89 14.36 129.76 55.85"/>
        <polygon class="cls-12" points="179.34 78.19 208.73 0 111.39 0 129.76 55.85 179.34 78.19"/>
        <polygon class="cls-23" points="317.08 27.13 179.34 78.19 208.73 0 287.69 0 317.08 27.13"/>
        <polygon class="cls-22" points="344.63 0 287.69 0 317.08 27.13 344.63 0"/>
        <polygon class="cls-3" points="403.39 65.43 412.58 28.72 317.08 27.13 403.39 65.43"/>
        <polygon class="cls-10" points="440.12 0 412.58 28.72 317.08 27.13 344.63 0 440.12 0"/>
        <polygon class="cls-14" points="467.67 14.36 403.39 65.43 412.58 28.72 467.67 14.36"/>
        <polygon class="cls-3" points="460.32 0 467.67 14.36 412.58 28.72 440.12 0 460.32 0"/>
        <polygon class="cls-3" points="517.26 0 467.67 14.36 460.32 0 517.26 0"/>
        <polygon class="cls-3" points="506.24 78.19 467.67 14.36 403.39 65.43 506.24 78.19"/>
        <polygon class="cls-6" points="620.1 75 506.24 78.19 467.67 14.36 517.26 0 546.64 0 620.1 75"/>
        <polygon class="cls-5" points="675.19 0 620.1 75 546.64 0 675.19 0"/>
        <polygon class="cls-18" points="730.29 71.81 756 38.3 756 0 675.19 0 620.1 75 730.29 71.81"/>
        <polygon class="cls-3" points="625.61 95.74 756 138.83 756 98.94 730.29 71.81 625.61 95.74"/>
        <polygon class="cls-17" points="730.29 71.81 756 79.79 756 98.94 730.29 71.81"/>
        <polygon class="cls-15" points="756 38.3 756 79.79 730.29 71.81 756 38.3"/>
        <polygon class="cls-25" points="1.2 371.81 32.42 359.04 1.2 325.53 1.2 371.81"/>
        <polygon class="cls-8" points="82.01 258.51 1.2 268.08 1.2 256.91 82.01 258.51"/>
        <polygon class="cls-16" points="1.2 145.21 1.2 202.66 48.95 108.51 1.2 145.21"/>
        <polygon class="cls-3" points="1.78 201.53 1.2 256.91 82.01 258.51 48.95 108.51 1.78 201.53"/>
        <polygon class="cls-4" points="48.95 108.51 203.22 116.49 140.78 67.02 48.95 108.51"/>
        <polygon class="cls-19" points="129.76 55.85 179.34 78.19 140.78 67.02 129.76 55.85"/>
        <polygon class="cls-12" points="15.89 14.36 129.76 55.85 140.78 67.02 48.95 108.51 15.89 14.36"/>
        <polygon class="cls-1" points="203.22 116.49 333.61 89.36 179.34 78.19 140.78 67.02 203.22 116.49"/>
        <polygon class="cls-1" points="403.39 65.43 333.61 89.36 317.08 27.13 403.39 65.43"/>
        <polygon class="cls-17" points="179.34 78.19 317.08 27.13 333.61 89.36 179.34 78.19"/>
        <polygon class="cls-18" points="122.41 312.77 194.03 290.42 82.01 258.51 32.42 279.25 122.41 312.77"/>
        <polygon class="cls-11" points="194.03 290.42 203.22 116.49 82.01 258.51 194.03 290.42"/>
        <polygon class="cls-20" points="48.95 108.51 203.22 116.49 82.01 258.51 48.95 108.51"/>
        <polygon class="cls-21" points="194.03 290.42 353.81 193.08 333.61 89.36 203.22 116.49 194.03 290.42"/>
        <polygon class="cls-20" points="385.03 158.51 333.61 89.36 353.81 193.08 385.03 158.51"/>
        <polygon class="cls-20" points="385.03 157.98 506.24 78.19 403.39 65.43 385.03 157.98"/>
        <polygon class="cls-9" points="333.61 89.36 403.39 65.43 385.03 157.98 333.61 89.36"/>
        <polygon class="cls-18" points="625.61 95.74 506.24 78.19 730.29 71.81 625.61 95.74"/>
        <polygon class="cls-7" points="1.2 325.53 32.42 279.25 122.41 312.77 32.42 359.04 1.2 325.53"/>
        <polygon class="cls-25" points="1.2 325.53 1.2 268.08 82.01 258.51 32.42 279.25 1.2 325.53"/>
      </g>
      <g>
        <polygon class="cls-26" points=".1 19.15 14.81 14.36 14.81 0 .1 0 .1 19.15"/>
        <polygon class="cls-24" points="14.81 14.36 47.92 0 14.81 0 14.81 14.36"/>
        <polygon class="cls-19" points=".1 145.21 47.92 108.51 14.81 14.36 .1 19.15 .1 145.21"/>
        <polygon class="cls-2" points="128.84 55.85 110.45 0 47.92 0 14.81 14.36 128.84 55.85"/>
        <polygon class="cls-12" points="178.5 78.19 207.93 0 110.45 0 128.84 55.85 178.5 78.19"/>
        <polygon class="cls-23" points="316.44 27.13 178.5 78.19 207.93 0 287.01 0 316.44 27.13"/>
        <polygon class="cls-22" points="344.02 0 287.01 0 316.44 27.13 344.02 0"/>
        <polygon class="cls-3" points="402.88 65.43 412.07 28.72 316.44 27.13 402.88 65.43"/>
        <polygon class="cls-10" points="439.66 0 412.07 28.72 316.44 27.13 344.02 0 439.66 0"/>
        <polygon class="cls-14" points="467.25 14.36 402.88 65.43 412.07 28.72 467.25 14.36"/>
        <polygon class="cls-3" points="459.89 0 467.25 14.36 412.07 28.72 439.66 0 459.89 0"/>
        <polygon class="cls-3" points="516.91 0 467.25 14.36 459.89 0 516.91 0"/>
        <polygon class="cls-3" points="505.87 78.19 467.25 14.36 402.88 65.43 505.87 78.19"/>
        <polygon class="cls-6" points="619.9 75 505.87 78.19 467.25 14.36 516.91 0 546.33 0 619.9 75"/>
        <polygon class="cls-5" points="675.08 0 619.9 75 546.33 0 675.08 0"/>
        <polygon class="cls-18" points="730.25 71.81 756 38.3 756 0 675.08 0 619.9 75 730.25 71.81"/>
        <polygon class="cls-3" points="625.42 95.74 756 138.83 756 98.94 730.25 71.81 625.42 95.74"/>
        <polygon class="cls-17" points="730.25 71.81 756 79.79 756 98.94 730.25 71.81"/>
        <polygon class="cls-15" points="756 38.3 756 79.79 730.25 71.81 756 38.3"/>
        <polygon class="cls-25" points=".1 371.81 31.36 359.04 .1 325.53 .1 371.81"/>
        <polygon class="cls-8" points="81.02 258.51 .1 268.08 .1 256.91 81.02 258.51"/>
        <polygon class="cls-16" points=".1 145.21 .1 202.66 47.92 108.51 .1 145.21"/>
        <polygon class="cls-3" points=".67 201.53 .1 256.91 81.02 258.51 47.92 108.51 .67 201.53"/>
        <polygon class="cls-4" points="47.92 108.51 202.41 116.49 139.88 67.02 47.92 108.51"/>
        <polygon class="cls-19" points="128.84 55.85 178.5 78.19 139.88 67.02 128.84 55.85"/>
        <polygon class="cls-12" points="14.81 14.36 128.84 55.85 139.88 67.02 47.92 108.51 14.81 14.36"/>
        <polygon class="cls-1" points="202.41 116.49 332.99 89.36 178.5 78.19 139.88 67.02 202.41 116.49"/>
        <polygon class="cls-1" points="402.88 65.43 332.99 89.36 316.44 27.13 402.88 65.43"/>
        <polygon class="cls-17" points="178.5 78.19 316.44 27.13 332.99 89.36 178.5 78.19"/>
        <polygon class="cls-18" points="121.48 312.77 193.21 290.42 81.02 258.51 31.36 279.25 121.48 312.77"/>
        <polygon class="cls-11" points="193.21 290.42 202.41 116.49 81.02 258.51 193.21 290.42"/>
        <polygon class="cls-20" points="47.92 108.51 202.41 116.49 81.02 258.51 47.92 108.51"/>
        <polygon class="cls-21" points="193.21 290.42 353.22 193.08 332.99 89.36 202.41 116.49 193.21 290.42"/>
        <polygon class="cls-20" points="384.49 158.51 332.99 89.36 353.22 193.08 384.49 158.51"/>
        <polygon class="cls-20" points="384.49 157.98 505.87 78.19 402.88 65.43 384.49 157.98"/>
        <polygon class="cls-9" points="332.99 89.36 402.88 65.43 384.49 157.98 332.99 89.36"/>
        <polygon class="cls-18" points="625.42 95.74 505.87 78.19 730.25 71.81 625.42 95.74"/>
        <polygon class="cls-7" points=".1 325.53 31.36 279.25 121.48 312.77 31.36 359.04 .1 325.53"/>
        <polygon class="cls-25" points=".1 325.53 .1 268.08 81.02 258.51 31.36 279.25 .1 325.53"/>
      </g>
    </g>
  </g>
</svg>