<?xml version="1.0" encoding="UTF-8"?>
<svg xmlns="http://www.w3.org/2000/svg" viewBox="0 0 272.14 755.9">
  <defs>
    <style>
      .cls-1 {
        fill: #efa123;
        mix-blend-mode: hard-light;
      }

      .cls-2 {
        isolation: isolate;
      }
    </style>
  </defs>
  <g class="cls-2">
    <g id="Layer_2" data-name="Layer 2">
      <g id="Layer_1-2" data-name="Layer 1">
        <path class="cls-1" d="M233.33,0c.4.62.64.81.63,1-.25,2.96,1.31,5.04,4.59,7.03,3.02,1.83,5.57,4.38,3.56,7.82-.55.94-.03,2.26.24,3.38.22.93.67,1.85,1.24,2.7,3.56,5.37,2.66,11.13,2.91,16.78.1,2.16-.71,4.15-2.28,6.02-2.27,2.7-1.55,5.44,2.22,7.08,2.28,1,3.22,2.23,3.66,4.01,1.3,5.25,1.89,10.46.09,15.72-1.05,3.06-1.88,6.16-2.6,9.27-.17.72.2,1.67.79,2.28,1.5,1.57,1.82,3.21,1.82,5.08,0,5.38.29,10.76.46,16.14.07,2.17.25,4.29.77,6.47.88,3.63-1.28,7.04-3.04,10.41-.83,1.58-1.86,3.13-2.29,4.77-.33,1.27.14,2.64.23,3.97.17,2.61.47,5.22.38,7.82-.02.64-1.24,1.36-2.12,1.86-1.13.64-2.47,1.1-3.84,1.68.48,2.72.94,5.41,1.45,8.29-1.18.22-2.37.44-3.52.65-.14.24-.39.45-.33.61,1.25,3.6,2.03,7.15.12,10.81-.59,1.13-.26,2.51-.27,3.78-.03,6.89,1.84,13.39,7.07,19.33,1.16,1.32,1.61,3.22,1.46,4.81-.18,1.96.13,3.75.87,5.6,1.33,3.28,1.7,6.38-.25,9.85-2.13,3.77-1.04,7.9.5,11.84,2.58,6.6,5.22,13.19,7.57,19.83.82,2.32.88,4.78,1.27,7.18.14.84-.12,1.81.38,2.5,2.4,3.31,2.5,6.9,2.83,10.48.17,1.86.05,3.78,2.21,5.32.65.46.59,1.6.52,2.41-.45,5.54,1.19,10.93,2.45,16.32.42,1.79,1.84,3.57,3.32,5.09,1.53,1.57,2.31,3.14,2.14,5.01-.27,3.02.38,6.16-2.69,8.9,3.54,2.35,2.79,5.1,1.83,7.94-.36,1.07-.49,2.34-.03,3.36,1.59,3.55,1.91,7.01-.12,10.53-.55.95-.67,2.06-.75,3.11-.17,2.48-1.2,4.65-3.01,6.82-1.53,1.84-2.42,3.96.73,5.94,1.03.65,1.05,2.61.69,3.84-.66,2.25-.53,4.35.32,6.54.86,2.21.33,4.33-1.27,6.41-1.11,1.45-2.15,3.15-2.17,4.75-.03,3.16-1.3,6.04-2.73,8.92-.92,1.86-1.45,3.66.14,5.47.3.34.49.78.54,1.19.67,5.24,1.29,10.48,1.99,15.71.09.69.24,1.64.87,1.98,3.04,1.67,1.56,3.56.73,5.42-.3.68-1.29,1.38-1.14,1.96.77,3.17.54,6.49,2.65,9.48.56.8.79,1.76.95,2.66.14.83.13,1.71-.09,2.53-1.34,5.14.73,9.81,3.63,14.39.29.45.33.99.5,1.54-.56.31-.97.71-1.47.79-4.41.71-5.06,3.13-5.15,5.8-.04,1.16.05,2.33-.03,3.49-.07.94.02,2-.53,2.8-3.38,4.84-1.94,9.86-1.29,14.84.27,2.08,1.22,4.09.16,6.24-.37.75.23,1.84.71,2.68,2.42,4.19,4.3,8.46,4.8,13.01.13,1.15.56,2.28.84,3.42.5,2.01.65,3.78-1.65,5.56-1.98,1.53-1.68,3.9-.36,5.7,1.73,2.34,1.12,4.17-.89,6.13-3.21,3.13-6.68,6.18-9.26,9.58-3.29,4.33-6.34,8.81-6.43,13.99-.05,2.95-.52,5.9-.7,8.85-.07,1.15-.06,2.34.23,3.47.71,2.7.27,5.31-1.35,7.73-3.18,4.76-3.15,9.59-1.03,14.5,1.2,2.77,1.53,5.55,1.3,8.45-.21,2.73.02,5.49.17,8.23.15,2.75.45,5.48-1.42,8.05-.33.45-.4,1.02-.5,1.54-.72,3.64-1.4,7.29-2.12,10.93-.1.52-.29,1.04-.49,1.54-2.48,6.39-5.3,12.73-7.36,19.19-1.69,5.28-2.5,10.72-3.68,16.08-.57,2.58-1.1,5.03-3.01,7.47-2.5,3.18-3.29,6.94-3.62,10.68-.3,3.46-.74,6.93-1.41,10.36-.26,1.31-1.16,2.62-2.1,3.79-1.59,1.99-2.37,4.04-2.12,6.34.19,1.78-.07,3.37-1.91,4.97-3.13,2.72-1.3,5.76.23,8.61.31.57,1.12,1.04,1.3,1.61.87,2.85,1.51,5.74,2.46,8.57.35,1.05,1.33,1.99,2.02,2.98.51.72,1.29,1.42,1.47,2.18.61,2.6.9,5.23,1.52,7.83.59,2.47,1.43,4.92,2.2,7.37.13.4.67.79.62,1.16-.91,6.2,2.66,12.04,2.64,18.19-.03,5.9.61,11.79.92,17.69.04.82-.12,1.65-.18,2.41-3.26.75-229.24,1.01-235.23.26-.14-1.13-.43-2.35-.44-3.57-.04-7.51-.01-15.01-.01-22.52,0-237.16,0-474.32,0-711.49C0,13.75-.02,9.63.06,5.51.09,3.73.37,1.96.55,0h232.78Z"/>
      </g>
    </g>
  </g>
</svg>