<?xml version="1.0" encoding="UTF-8"?>
<svg xmlns="http://www.w3.org/2000/svg" version="1.1" xmlns:xlink="http://www.w3.org/1999/xlink" viewBox="0 0 820.1 461">
  <!-- Generator: Adobe Illustrator 29.7.1, SVG Export Plug-In . SVG Version: 2.1.1 Build 8)  -->
  <defs>
    <style>
      .st0 {
        font-family: HindSiliguri-Bold, 'Hind Siliguri';
        font-size: 17.9px;
        font-weight: 700;
      }

      .st0, .st1 {
        fill: #fff;
      }

      .st0, .st2 {
        isolation: isolate;
      }

      .st3 {
        fill: #efa123;
      }

      .st4 {
        fill: #175d91;
      }

      .st5 {
        mix-blend-mode: multiply;
      }
    </style>
  </defs>
  <g class="st2">
    <g id="Layer_1">
      <rect class="st4" y="74.5" width="820" height="312"/>
      <rect class="st3" width="820" height="461"/>
      <g class="st5">
        <image class="st2" width="3417" height="1921" transform="translate(132.3) scale(.2 .2)" xlink:href="asset-13-1.png"/>
      </g>
      <g>
        <g>
          <g>
            <circle class="st1" cx="26.2" cy="94" r="2.5"/>
            <circle class="st1" cx="34.2" cy="94" r="2.5"/>
            <circle class="st1" cx="42.2" cy="94" r="2.5"/>
            <circle class="st1" cx="50.2" cy="94" r="2.5"/>
            <circle class="st1" cx="58.2" cy="94" r="2.5"/>
            <circle class="st1" cx="66.2" cy="94" r="2.5"/>
            <circle class="st1" cx="74.2" cy="94" r="2.5"/>
          </g>
          <g>
            <circle class="st1" cx="26.2" cy="103" r="2.5"/>
            <circle class="st1" cx="34.2" cy="103" r="2.5"/>
            <circle class="st1" cx="42.2" cy="103" r="2.5"/>
            <circle class="st1" cx="50.2" cy="103" r="2.5"/>
            <circle class="st1" cx="58.2" cy="103" r="2.5"/>
            <circle class="st1" cx="66.2" cy="103" r="2.5"/>
            <circle class="st1" cx="74.2" cy="103" r="2.5"/>
          </g>
        </g>
        <g>
          <g>
            <circle class="st1" cx="745.8" cy="94.5" r="2.5"/>
            <circle class="st1" cx="753.8" cy="94.5" r="2.5"/>
            <circle class="st1" cx="761.8" cy="94.5" r="2.5"/>
            <circle class="st1" cx="769.8" cy="94.5" r="2.5"/>
            <circle class="st1" cx="777.8" cy="94.5" r="2.5"/>
            <circle class="st1" cx="785.8" cy="94.5" r="2.5"/>
            <circle class="st1" cx="793.8" cy="94.5" r="2.5"/>
          </g>
          <g>
            <circle class="st1" cx="745.8" cy="103.5" r="2.5"/>
            <circle class="st1" cx="753.8" cy="103.5" r="2.5"/>
            <circle class="st1" cx="761.8" cy="103.5" r="2.5"/>
            <circle class="st1" cx="769.8" cy="103.5" r="2.5"/>
            <circle class="st1" cx="777.8" cy="103.5" r="2.5"/>
            <circle class="st1" cx="785.8" cy="103.5" r="2.5"/>
            <circle class="st1" cx="793.8" cy="103.5" r="2.5"/>
          </g>
        </g>
      </g>
      <image class="st2" width="497" height="504" transform="translate(30 86.9) scale(.7 .6)" xlink:href="asset-13-2.png"/>
      <g>
        <path class="st1" d="M23.9,121.7l1.1-.6c-.3-.5-.7-.9-1.3-1.1v-.6c0-.7.2-1.3.7-1.8.5-.5,1.1-.8,1.9-.8s1.5.3,1.8.9v-1.8h1.4v1h1.1v1.1h-1.1v6.8h-1.4v-4.2l-4.2,2.5v-1.5h0ZM25.1,119.5c.4.2.8.6,1,1l2-1.2c0-.4-.2-.7-.5-.9s-.6-.3-1-.3-.8.1-1.1.4-.4.6-.4,1h0Z"/>
        <path class="st1" d="M33.9,118.1h-1.1v6.8h-1.4v-6.8h-1.1v-1.1h1.1v-.5c0-.8.2-1.4.8-1.9s1.2-.6,2.2-.6,2.1.2,3.2.6v1.1c-1.1-.3-2.1-.5-3.1-.5s-1,.1-1.2.3c-.2.2-.4.6-.4,1v.5h1.1v1.1h0Z"/>
        <path class="st1" d="M40.3,118.1h-1.1v6.8h-1.4l-3.7-2.6v-1.4c1.2-1,2.4-1.7,3.7-2v-.7h-4.4v-1.1h6.9v1.1ZM37.8,123.3v-3.2c-.9.3-1.7.8-2.5,1.4l2.5,1.8h0Z"/>
        <path class="st1" d="M39.8,116.9h7.9v1.1h-7.9v-1.1ZM41.9,121c0-.7.2-1.2.8-1.7s1.1-.7,1.9-.7,1.2.2,1.5.5c.4.3.5.8.5,1.5v4.6h-1.4c0-.4-.2-.5-.4-.5s-.5,0-1,.2c-.5.1-.9.2-1.2.2-.6,0-1.1-.2-1.5-.5s-.6-.8-.6-1.4,0-.5,0-.8h1.3c0,.2,0,.4,0,.6,0,.6.3.9.9.9s.5,0,1-.2c.4-.1.7-.2.9-.2s.4,0,.6.2v-3.2c0-.5-.2-.8-.7-.8s-.7,0-.9.3c-.2.2-.4.5-.4.8s0,.4.2.6c.1.1.3.2.6.2s.2,0,.3,0v1.1c-.2,0-.4,0-.5,0-.6,0-1.1-.2-1.5-.5-.4-.3-.6-.8-.6-1.4h0Z"/>
        <path class="st1" d="M50.2,116.9h6.1c0-.2,0-.3,0-.5,0-.5-.3-.7-.8-.7s-.6,0-1.2.1-1.1.1-1.4.1c-.6,0-1.1,0-1.4-.2v-1.1c.3.1.8.2,1.3.2s.7,0,1.4-.2,1.2-.2,1.5-.2c.6,0,1.1.2,1.4.5s.5.7.5,1.3,0,.4,0,.7h1.2v1.1h-8.5v-1.1h0ZM51,120.5c0-.5.2-1,.5-1.3s.8-.5,1.5-.5,1,.2,1.4.5c.4.3.6.7.7,1.2.7-.7,1.1-1,1.3-1.2h1.2c-.2.9-.3,1.8-.3,2.8s.1,1.9.3,2.9h-1.4c-.1-.7-.2-1.4-.2-2.1s0-1.2.2-1.8c-.2.2-.6.6-1.2,1.1-.2.6-.5,1.1-.9,1.4s-1,.5-1.6.5-.8,0-1.3-.1v-1.2c.4,0,.8,0,1.2,0s.9-.2,1.2-.5c.3-.3.4-.8.4-1.3s-.3-1.2-.8-1.2-.4,0-.5.2c-.1.2-.2.4-.2.6s0,.5,0,.7h-1.3c0-.3-.1-.6-.1-.9h0Z"/>
        <path class="st1" d="M60.5,123.2h-1.4v-5.1h-.9v-1.1h6.9v1.1h-4.6v3.3c.4-.4.8-.8,1.2-1.2s.8-.6,1-.7h1.3v5.4h-1.3v-3.9c-.4.3-.8.6-1.2,1.1s-.8.8-1.1,1.2h0Z"/>
        <path class="st1" d="M66.4,127.7c-.5-.5-1-1-1.5-1.3,0,.5-.3.8-.6,1.1s-.7.4-1.2.4-1-.1-1.3-.4c-.3-.3-.5-.7-.5-1.1s.2-.9.5-1.2.8-.4,1.3-.4,1.2.2,1.7.5c.6.3,1,.7,1.4,1.2v1.4h0ZM63.2,126.9c.5,0,.7-.3.8-1-.3,0-.5-.2-.7-.2s-.4,0-.5.2c-.1,0-.2.2-.2.4s0,.3.2.4.3.2.5.2Z"/>
        <path class="st1" d="M72.9,124.9h-1.4v-3.5c0-.7-.3-1-.8-1s-.8.4-.8,1.2v.2h-1.4v-.3c0-.8-.3-1.1-.9-1.1s-.5,0-.7.3-.2.4-.2.8,0,.7.3.8c.2.2.5.3.8.3s.4,0,.6,0v1.2c-.3,0-.5,0-.8,0-.7,0-1.3-.2-1.7-.6s-.6-1-.6-1.7.2-1.2.6-1.6.9-.6,1.6-.6.8,0,1.1.3c.3.2.5.5.6.8,0-.3.2-.6.5-.8.2-.2.5-.3.9-.3s.7.1.9.4v-1.4h-6.9v-1.1h9.4v1.1h-1.2v6.8h0Z"/>
        <path class="st1" d="M84.1,121c0,.4,0,.7-.2,1.1.6,0,1,.2,1.3.6v-4.6h-8.8v-1.1h11.4c.3,0,.5.2.7.5,0-.4-.1-.8-.1-1.2v-.3h1.4v1h1.1v1.1h-1.1v6.8h-1.4v-5.9c0-.3,0-.5-.1-.7,0-.1-.3-.2-.6-.2h-1.1v6.8h-1.4c0-1.1-.5-1.7-1.4-1.7h-.6c-.6.6-1.4.9-2.4.9s-1.9-.3-2.6-1-1-1.6-1-2.8,0-.8,0-1.2h1.4c0,.4,0,.8,0,1.2,0,.8.2,1.4.6,1.8.4.4.9.6,1.6.6s1.1-.2,1.4-.6c.3-.4.5-.8.5-1.4s0-.6-.2-.8-.3-.3-.6-.3-.4,0-.5.2-.2.4-.2.7,0,.5.1.8h-1.2c-.1-.3-.2-.6-.2-.9,0-.6.2-1,.5-1.4.3-.3.8-.5,1.4-.5s1.2.2,1.6.7c.4.4.6,1,.6,1.7h0Z"/>
        <path class="st1" d="M97.9,121.8c0,.9-.3,1.6-.8,2.2s-1.3.9-2.3.9-1.9-.4-2.6-1.1c-.6-.8-1-1.8-1-3.1s0-.4,0-.6h1.4c0,.1,0,.3,0,.5,0,.9.2,1.7.6,2.2.4.5.9.8,1.6.8s1-.2,1.3-.5c.3-.3.5-.8.5-1.3-.3,0-.6.1-.9.1-.6,0-1.1-.2-1.5-.5s-.6-.8-.6-1.4.3-1.4.8-2h-4v-1.1h10.9v1.1h-4c.6.8,1.6,1.4,3.2,1.8-.3.9-.5,2-.5,3.1s0,1.3.2,2h-1.4c-.2-.7-.2-1.3-.2-2s.1-1.6.3-2.3c-.7-.2-1.3-.5-1.8-.9-.6-.4-.9-.8-1.2-1.4-.6.5-.9,1-.9,1.7s.4.9,1.1.9,1-.1,1.5-.3c.2.4.2.8.2,1.3h0Z"/>
        <path class="st1" d="M106.8,118.1h-6v-1.1h6v1.1ZM106,125h-1.9l-2.3-1.6v-1.1h1.1c.6,0,1-.1,1.3-.4s.4-.6.4-1.1,0-.6-.2-.7c-.2-.2-.4-.3-.7-.3s-.5,0-.6.2c-.2.2-.2.4-.2.6s0,.4,0,.6h-1.3c0-.2-.1-.5-.1-.8,0-.5.2-1,.6-1.3s.9-.5,1.6-.5,1.2.2,1.7.6.6.9.6,1.5-.2,1.2-.7,1.6c-.4.4-1,.7-1.8.8l2.4,1.6h0c0,.1,0,.1,0,.1Z"/>
        <path class="st1" d="M110.1,118.1h-1.1v6.8h-1.4v-5.9c0-.3,0-.5-.1-.7,0-.1-.3-.2-.6-.2h-.5v-1.1h.6c.3,0,.5.2.7.5,0-.4-.1-.8-.1-1.2v-.3h1.4v1h1.1v1.1h0Z"/>
        <path class="st1" d="M118,125.8l-4.7-3.2v-1.9c.7.6,1.4.9,2.1.9s.6,0,.7-.2.2-.4.2-.7,0-.4-.3-.6c-.2-.2-.4-.4-.6-.5-.2-.2-.5-.3-.7-.5-.2-.2-.5-.4-.6-.7s-.3-.6-.3-.9,0-.4.1-.6h1.5c0,.2-.1.3-.1.5s0,.4.3.6.4.4.7.5c.3.2.5.4.8.6s.5.5.7.8.3.7.3,1.1-.2,1-.5,1.3c-.3.4-.8.6-1.4.6.5.2.9.5,1.2.7l.7.5v1.8h0Z"/>
        <path class="st1" d="M124.3,123c-.6.5-1.3.8-2.2.8s-1.7-.3-2.2-.8c-.6-.5-.9-1.2-.9-2.2s.3-1.6.9-2.2,1.3-.8,2.2-.8,1.7.3,2.2.8c.6.5.9,1.2.9,2.2s-.3,1.6-.9,2.2ZM123.2,119.7c-.3-.3-.6-.4-1.1-.4s-.8.1-1.1.4c-.3.3-.4.6-.4,1.1s.1.8.4,1.1.6.4,1.1.4.8-.1,1.1-.4c.3-.3.4-.6.4-1.1s-.1-.8-.4-1.1Z"/>
        <path class="st1" d="M131,125.8l-4.7-3.2v-1.9c.7.6,1.4.9,2.1.9s.6,0,.7-.2.2-.4.2-.7,0-.4-.3-.6c-.2-.2-.4-.4-.6-.5-.2-.2-.5-.3-.7-.5-.2-.2-.5-.4-.6-.7s-.3-.6-.3-.9,0-.4.1-.6h1.5c0,.2-.1.3-.1.5s0,.4.3.6c.2.2.4.4.6.5.3.2.5.4.8.6s.5.5.6.8.3.7.3,1.1-.2,1-.5,1.3c-.4.4-.8.6-1.4.6.5.2.9.5,1.2.7l.7.5v1.8h0Z"/>
        <path class="st1" d="M138.1,119.4v1.4c-.4,0-.8.2-1,.4-.2.3-.3.6-.3,1s.1.8.3,1c.2.3.5.4.9.4v1.2c-.4,0-.9,0-1.4,0-1.6,0-2.8-.4-3.6-1.1s-1.2-1.7-1.2-2.9.4-2.1,1.2-2.9c.8-.8,1.8-1.2,3.1-1.4l.5,1c0,0,0,.2,0,.4,0,.4.2.7.5,1s.7.4,1.1.4h0ZM133.5,121c0,1.4.8,2.3,2.5,2.5-.4-.3-.6-.9-.6-1.6s0-.7.3-1.1c.2-.3.5-.6.8-.7-.4-.1-.7-.3-1-.6-.3-.3-.4-.6-.4-1-1,.5-1.6,1.3-1.6,2.5h0Z"/>
        <path class="st1" d="M144.3,118.2h-6v-1.3h3.7v-.2h0c0-.4,0-.6-.1-.7,0-.1-.2-.2-.5-.2s-.4,0-.7.1c-.4,0-.6.1-.9.1-.4,0-.8,0-1-.3v-1.3c.2.1.5.2.9.2s.5,0,.9-.1c.4,0,.8-.1,1-.1.6,0,1.1.2,1.4.5.3.3.5.8.5,1.4s0,.4,0,.6h.8v1.3h0ZM143.5,125h-2.2l-2.2-1.5v-1.3h1.2c.5,0,1-.1,1.2-.3.3-.2.4-.6.4-1s0-.5-.2-.6-.3-.2-.6-.2-.4,0-.5.2-.2.3-.2.5,0,.4,0,.5h-1.5c0-.2-.1-.5-.1-.7,0-.6.2-1,.6-1.4s1-.5,1.6-.5,1.3.2,1.8.6c.4.4.7.9.7,1.6s-.2,1.2-.6,1.6-1,.7-1.7.8l2.3,1.6v.2h0Z"/>
        <path class="st1" d="M145.1,120.1c-.4-.4-.6-.8-.6-1.4s.2-1.1.6-1.4c.4-.4.9-.6,1.6-.6s1.1.2,1.5.6c.4.4.6.8.6,1.4s-.2,1.1-.6,1.4c-.4.4-.9.6-1.5.6s-1.1-.2-1.6-.6ZM144.6,122.5v-1.6l4.4,2.4v1.6l-4.4-2.4ZM147.1,119.2c.1-.1.2-.3.2-.6s0-.4-.2-.6-.3-.2-.5-.2-.4,0-.5.2c-.1.2-.2.3-.2.6s0,.4.2.6.3.2.5.2.4,0,.5-.2Z"/>
      </g>
      <g>
        <g>
          <path class="st1" d="M640.4,207.6c2.2,2.3,4.2,4.4,6.3,6.6,1.3,1.4,2.5,2.8,3.9,4.1.8.8.7,1.2-.1,1.8-1.6,1-3.2,2.1-4.9,3.2-.5.3-1,.6-1.3,1.2.6,0,1.3,0,1.9-.2,6.5-1.3,12.2,3,14.8,7.9s2.3,6.6.3,10c-1.3,2.3-3.9,3.5-6.7,3-2.8-.4-4.8-2.2-5.3-4.5-.4-2,.7-3.5,1.9-4.8,1.1-1.1,2.6-1,4-.3.2.1.4.1.6.2.1-2-1.3-3.8-3.2-4-3-.4-5.8,1.5-6.5,4.6-1.5,6,2.4,11.7,8.6,12.4.6,0,1.4.4,1.6.9,2,3.5,4,7.1,6,10.6.1.2.2.4.3.8-.4.1-.8.2-1.2.3-8.3.7-16.7,1.4-25,2.1-.5,0-1.2-.4-1.4-.8-2.4-4.6-4.7-9.1-7-13.7-.4-.8-.5-1.6-.2-2.5,2-5.1,3.8-10.2,5.7-15.3.1-.4.2-.7.2-1.2-.5,0-.7,0-1,.2-3.6,1.3-7.2,2.7-10.9,4-.9.3-1.1.7-.9,1.6,2.9,12,5.8,24,8.7,36,.1.5.1,1,.2,1.8-2-.4-3.8-.9-5.6-1.1-1.6-.2-2.4-.9-3.1-2.4-2.5-6.1-10.3-7.6-15.2-3.2-.7.6-1.4,1.3-2.4,2.2-.3-1-.7-1.6-.8-2.3-1-4.9-2-9.8-2.9-14.7-.1-.7,0-1.6.5-2.1,2.6-3.6,5.2-7.1,7.8-10.7.3-.4.6-1,1-1.6-.5,0-.7-.2-1-.2-3.7.4-7.3.9-11,1.3-.8,0-1,.3-1,1.2,0,12.6,0,25.2,0,37.8,0,1.8,0,1.8-1.7,1.8-2.5,0-5,0-7.6,0-1.1,0-1.5-.3-1.4-1.5.7-11.4,1.4-22.8,2.1-34.1,0-1.4.1-2.7.2-4.1,0-.8-.2-1.2-1.1-1.1-.8,0-1.7,0-2.6,0-1.2,13.3-2.4,26.4-3.6,39.7-.5-.2-.8-.3-1.1-.4-7.3-4.1-14.5-8.3-21.8-12.5-.4-.2-.8-1-.8-1.5.6-5.3,1.3-10.6,2.1-15.9,0-.6.8-1.3,1.3-1.7,4-2.8,8-5.6,12.5-8.7-5.8-1.3-11.2-2.5-16.8-3.7-.3,2.8-.6,5.4-.8,8-.8,9.2-1.7,18.4-2.5,27.6,0,.3,0,.6-.1.9-.4,2.8-.4,2.8-3.3,2.5-2.8-.3-5.5-.8-8.4-1.1.6-3.6,1.2-7,1.8-10.4,1.4-8.2,2.9-16.4,4.3-24.6.2-1.5.5-2.9.7-4.4,0-.4,0-1.2-.3-1.3-1.1-.5-2.3-.9-3.4-1.2-.2,0-.6.4-.7.7-2.2,11.2-4.4,22.4-6.5,33.5-.4,1.9-.8,3.7-1.1,5.6-.1.8-.5,1.1-1.3.9-3.3-.7-6.6-1.4-9.9-2.2-.3,0-.7-.9-.6-1.3.7-3.4,1.3-6.9,2.3-10.3,1.5-5.4,1.6-10.7-.8-15.8-1.7-3.9-5-5.8-8.9-6.7-2.2-.5-4,.5-4.4,2.5.5,0,1,0,1.5,0,2.3-.1,4.5.2,5.7,2.6,1.1,2.4.8,4.8-.8,6.9-1.6,2-3.8,2.2-6.1,1.6-7-1.7-10.5-7.4-8.6-14.3.5-1.8,1.4-3.6,2.3-5.3,1-1.8,2.8-2.6,4.8-2.6,2,0,4.1.5,6.1.9.8.2,1.2,0,1.1-.7-.4-3.2-.8-6.3-1.2-9.5-1.4-1.2-2.8-2.3-4.2-3.4-.2-.1-.7,0-1,.2-9,4.8-14.7,11.8-15.2,22.4-.5,9.3,4.9,14.8,11.9,17.2,3.1,1.1,6.4,1.5,9.6,2.1,1,.2,1.5.4,1.3,1.6-.5,3.3-.9,6.6-1.4,9.9-.4,2.7,0,2.2-2.6,1.9-7.9-.9-15.1-3.7-21-9.1-7.4-6.7-11.1-15-10.3-25.2.4-4.4,2.1-8.2,4.5-11.7,3.9-5.8,8.6-10.8,15-13.9,2.6-1.3,5.4-2.1,8.1-3,.4-.1,1,.1,1.3.4,6.6,5.3,13.9,9.5,21.5,13.1,7.8,3.6,15.9,6.4,24.4,8.2,10.7,2.3,21.5,2.9,32.4,2.1,11.7-.9,22.8-3.9,33.2-9.4,5.9-3.1,11.2-6.9,15.8-11.7.1-.1.3-.2.6-.5h0ZM533,236.8c.8-3.4,1.6-6.5,2.2-9.6,0-.3-.4-1-.8-1.1-1.8-.9-3.6-1.8-5.5-2.6-.5-.2-1.1-.4-2-.8,0,2.8,0,5.3,0,7.8,0,.4.3.9.7,1.3,1.2,1.3,2.5,2.6,3.8,3.8.4.4.9.8,1.5,1.3h0ZM640.3,240.4c-.2,0-.3,0-.5,0-.7,3.2-1.4,6.4-2,9.7,0,.2.5.8.8.9,1.2.2,2.5.4,3.7.5,1.2.1,2.4.2,4,.4-2.2-4.1-4.1-7.8-6.1-11.6h0ZM614.1,247.1h-.5c-1.5,2.9-3,5.8-4.5,8.7-.1.2.3,1,.6,1.1,1.6.8,3.2,1.4,4.8,2.1.6.3,1.3.5,2.2.8-.9-4.4-1.8-8.6-2.7-12.7h0ZM573.8,248.1c-2.8,2.6-5.2,4.8-7.6,7.2-.2.2,0,.9.2,1.2.9.9,1.8,1.7,2.8,2.6s1.9,1.6,3.1,2.6c.5-4.6,1-8.9,1.6-13.5h0ZM611.8,227.6c8.9-2,16.8-5.9,23.7-12-7.3,5-15.6,8.3-23.7,12ZM493.3,254.2c-2.3-3.2-4.1-6.7-4.9-10.6-.8-3.8-1-7.7-1.4-11.5-2,6,.6,17.1,6.3,22ZM570.5,269.9c0-.1.2-.3.3-.4-2.7-2.6-5.7-4.5-9.2-5.7l-.2.3c3,1.9,6.1,3.9,9.1,5.8ZM650.5,239.6c.4,3.4,2.7,4.8,4.6,4.9.4,0,.8-.2,1.2-.3-.3-.3-.6-.6-.9-.9-1.2-.9-2.5-1.7-3.7-2.6-.3-.2-.7-.6-1.2-1.1h0Z"/>
          <path class="st1" d="M557,204.1c2.1,0,4.2.2,6.3,0,4.6-.5,8.4-2.8,11.9-5.6,2.8-2.2,5.8-4.2,9.4-4.8,3.2-.6,6.2,0,9.3.8,0,.2,0,.4,0,.5-6.8,7.2-10.4,15.9-12,25.5-.3,1.6-.5,3.1-.6,4.7,0,.7-.3,1-1.1,1-5.6-.2-11.2-.5-16.7-2.2-1.6-.5-1.7-.7-.8-2.1,2-3.6,4.3-7,7.1-10,1.9-2,4-3.9,6-6-.8.3-1.6.5-2.4.8-5.3,2.1-10.6,4.4-15.9,6.4-6.3,2.3-12.4,1.6-18-2.3-.8-.6-1.1-1.2-.9-2.3.5-3,1-6,1.3-8.9.1-1.1.6-1.3,1.6-1.1,4.1.9,8.3,1.2,12.5.5,4.6-.7,9-4.6,9.9-8.7.8-3.7-1-7.4-4.3-9.3-2.6-1.4-5.2-2.3-8.1-1.1-2,.9-3.5,2.2-3.7,4.5,0,.4,0,1.1.3,1.3.2.2.9,0,1.3-.2,1.9-.9,3.7-1.8,5.9-1.3,1.8.4,3.1,1.5,3.6,3.3.5,1.6-.2,3-1.3,4.2-3.3,3.6-8.5,4.4-13.6,2.3-3.8-1.6-6.2-5.8-6-10.6.3-8,5.9-14,14-14.4,3.1-.2,6.3.4,9.4.6.2,0,.3.1.5.1.7,0,1.7.6,2.1-.5.4-1.1-.2-1.7-1-2.3-1.6-1.2-3.5-1.5-5.4-1.5-3.7,0-7.4,0-11,.4-7.9.7-14.4-1.8-19-8.4-3.3-4.8-4.1-10.1-2.8-15.7.3-1.3.7-2.6,1.1-4.2.3.5.5.8.7,1.1,3.3,7.6,8.6,13.2,16.5,16.2,4.7,1.8,9.6,1.6,14.5.9,3.1-.5,6.3-.7,9.3.6,4.7,1.9,6.8,6.2,5.6,11.2-.6,2.4-1.9,4.4-3.7,6.2.2.3.4.6.6.8,4.3,4.2,5.5,9.2,3.8,15-2.2,7.6-7.4,12.1-14.9,14.2-.4.1-.8.2-1.1.4,0,0,0,0,0,.2h0ZM543.2,174.7c-3,1.9-4.2,4.8-4.1,8.2,0,2.8,1.1,5.1,2.6,5.9-2.5-5.1-1.9-9.7,1.5-14.1ZM528.8,152.7c1.1,4.4,6.9,9.6,10.7,9.5-4.6-2.3-8.2-5.3-10.7-9.5Z"/>
          <path class="st1" d="M578.2,190c.2-2.1.4-4,.4-5.9.1-4.1-.7-7.9-3.1-11.2-.3-.4-.4-1.2-.3-1.8.8-3.6,1-7.2.3-11.1,18.1.4,30.9-8.4,40.1-23.3.2.2.4.3.4.5,4.6,12.6-2.6,26.3-15.6,29.5-2.4.6-5,.4-7.5.5-.8,0-1.3,0-1.2,1.1.2,3.4-.6,6.7-1.5,10-.4,1.6-.3,1.6,1.2,1.4,6.7-.9,13.5-1.9,20.2-2.8.8-.1,1.2.1,1.5.9,1.3,3.5,2.7,6.9,4,10.3.2.5,0,1.4-.3,1.8-3.2,3.7-5.4,8-7.1,12.5-1.9,5.2-1.4,10.5,1,15.5.4.8.8,1.6,1.3,2.7-3.5,1-6.7,2.2-10,2.9-4.1.8-8.3,1.1-12.4,1.8-1.4.2-1.6-.4-1.6-1.5,0-6.2,1.9-11.8,4.8-17.1,2.7-5.1,5.9-9.9,9.7-14.3.1-.2.2-.4.4-.7-8-4.2-16.3-3.9-24.8-1.7h0ZM612.8,153.3c-1.3,1.9-2.4,3.8-3.8,5.5-1.4,1.6-3.2,3-5,4.7,3.6-.6,8.4-6,8.8-10.2ZM596.9,207.1c-3,3-4.1,6.8-4.2,11,1.4-3.7,2.8-7.3,4.2-11Z"/>
          <path class="st1" d="M612.6,267.6c3,0,5.7,2.8,5.6,5.8,0,3.4-2.7,6-5.9,5.9-3.1,0-5.8-2.8-5.7-5.9,0-3,2.8-6,6-5.9h0ZM609.8,269.7c-1.5.7-2.1,2-2.2,3.5,0,1.3.3,2.5,1.6,3.2-1-2.4-.6-4.6.6-6.8h0Z"/>
          <path class="st1" d="M611.8,227.6c8.1-3.6,16.3-6.9,23.7-12-6.8,6-14.7,10-23.7,12Z"/>
          <path class="st1" d="M493.3,254.2c-5.7-4.9-8.3-16.1-6.3-22,.4,3.8.6,7.7,1.4,11.5.8,3.8,2.6,7.3,4.9,10.6h0Z"/>
          <path class="st1" d="M570.5,269.9c-3-1.9-6.1-3.9-9.1-5.8l.2-.3c3.5,1.3,6.5,3.2,9.2,5.7,0,.1-.2.3-.3.4Z"/>
          <path class="st1" d="M650.5,239.6c.6.5.9.8,1.2,1.1,1.2.9,2.5,1.7,3.7,2.6.3.2.6.6.9.9-.4.1-.8.4-1.2.3-2-.1-4.2-1.5-4.6-4.9h0Z"/>
          <path class="st1" d="M543.2,174.7c-3.4,4.4-4,9-1.5,14.1-1.5-.7-2.6-3.1-2.6-5.9,0-3.4,1.2-6.3,4.1-8.2Z"/>
          <path class="st1" d="M528.8,152.7c2.5,4.2,6.1,7.2,10.7,9.5-3.8.1-9.6-5.1-10.7-9.5Z"/>
          <path class="st1" d="M612.8,153.3c-.5,4.2-5.2,9.5-8.8,10.2,1.8-1.7,3.6-3.1,5-4.7,1.4-1.6,2.5-3.6,3.8-5.5Z"/>
          <path class="st1" d="M596.9,207.1c-1.4,3.7-2.8,7.3-4.2,11,.1-4.2,1.3-8,4.2-11Z"/>
          <path class="st1" d="M609.8,269.7c-1.2,2.2-1.6,4.4-.6,6.8-1.3-.7-1.7-1.9-1.6-3.2,0-1.5.7-2.8,2.2-3.5h0Z"/>
        </g>
        <g class="st2">
          <text class="st0" transform="translate(376.1 315.5)"><tspan x="0" y="0">এই ঈদে আপনার কুরবানী হোক সুবিধাবঞ্চিত শিশুদের সাথে</tspan></text>
        </g>
      </g>
    </g>
  </g>
</svg>