<?xml version="1.0" encoding="UTF-8"?>
<svg id="Layer_2" data-name="Layer 2" xmlns="http://www.w3.org/2000/svg" viewBox="0 0 540 389">
  <defs>
    <style>
      .cls-1 {
        fill: #f6f4e0;
      }
    </style>
  </defs>
  <g id="Layer_1-2" data-name="Layer 1">
    <path class="cls-1" d="M539.99,101c0-9.73,0-19.47,0-29.2,0-15.93-.01-31.87-.04-47.8,0-1.12.23-2.33-.67-3.38-.72,0-1.47-.01-2.21,0-2.41.06-4.82.13-7.23.18-.6.01-1.21-.05-1.81.02-3.23.36-6.52.41-9.65,1.24-3.12.82-6.43.19-9.42,1.79-.78.42-1.76.41-2.66.51-2.86.3-5.93-.29-8.17,2.48-2.11.53-4.23,1.06-6.34,1.61-.78.2-1.56.41-2.31.72-2.12.9-4.29,2-6.35.1-.93-.85-1.83-.94-2.9-.97-1.12-.03-2.41.18-3.32-.35-2.38-1.38-4.75-2.51-7.51-2.17-.21.03-.43-.14-.66-.17-1.57-.22-3.16-.31-4.69-.67-2.27-.53-4.67-.88-6.71-1.98-1.84-.99-3.62-1.45-5.58-1.55-.82-.04-1.72.04-2.45-.3-1.99-.92-3.99-1.46-6.16-1.17-.43.06-.9-.07-1.34-.2-1.67-.5-3.34-1.02-5.01-1.55-3.33-1.04-6.62-2.25-9.99-3.09-2.85-.72-5.78-1.03-8.68-1.52-.52-.09-1.13-.04-1.53-.33-1.16-.86-2.45-.79-3.72-.75-1.88.05-3.79.49-5.64.25-3.07-.4-5.98,0-8.94.86-2.96.85-5.93.82-8.87-.56-1.35-.64-2.89-1-4.36-1.09-3.61-.22-7.23-.2-10.84-.28-3.59-.08-6.76-1.68-9.73-3.65-2.45-1.61-4.71-3.56-7.03-5.39-1.21-.96-2.33-1.14-3.78-.43-1.68.82-3.42.91-5.08-.55-.59-.53-1.68-.5-2.54-.51-.81,0-1.64.46-2.44.42-3.04-.18-5.65,1.63-8.55,2.1-.42.07-.83.4-1.2.67-.88.64-1.76.69-2.79.4-.84-.24-1.78-.09-2.67-.03-2.78.19-5.55.45-8.34.61-.66.04-1.46,0-1.97-.38-1.37-1.01-2.85-.94-4.36-.96-.9-.01-1.8-.11-2.7-.19-1.41-.12-2.39-.82-2.81-2.39-.14-.51-.55-.92-.84-1.39-.41.16-.7.25-.96.38-3.12,1.59-6.34,2.64-9.84,2.14-.82-.12-1.66-.1-2.49-.06-.51.03-1.11.06-1.5.35-1.92,1.42-4.23.94-6.31,1.63-.58.19-1.37-.39-2.06-.63-1.13-.39-2.42-1.2-3.39-.11-.84.94-1.68.9-2.64.92-1.05.02-2.11.06-3.16.18-2.31.27-4.62.59-6.92.9-.37.05-.78.09-1.07.31-1.35,1.02-2.72.74-4.11.17-2.13-.86-4.29-1.45-6.59-1.6-1.15-.07-2.33-.66-3.37-1.28-1.28-.76-2.62-1.09-3.93-.66-1.96.64-3.85.51-5.81.16-.67-.12-1.65.04-2.06.51-.55.64-.96,1.27-1.82,1.09-.8-.16-1.71-.21-2.36-.67-1.57-1.14-3.21-1.74-5.1-1.73-.73,0-1.51-.21-2.2-.51-2.29-.99-4.56-.97-6.85-.04-1.08.44-2.15.49-3.29.03-1.86-.75-3.68-.84-5.05,1.02-.27-.09-.43-.11-.56-.18-3.38-1.77-6.68-2.22-9.99.29-.9.69-2.02,1.21-3.1,1.42-4,.78-7.97,1.82-12.09,1.5-.51-.04-1.25-.06-1.51.27-1.11,1.44-2.59,1.11-3.99,1.22-1.05.08-2.14,0-3.15.28-3.05.85-6.15,1.34-9.24,1.94-5.17,1.01-10.23,2.77-15.28,4.42-2.98.97-6.07,1.53-8.91.52-2.47-.88-4.66-.82-7.05-.27-1.38.32-2.82.3-4.22.54-1.17.21-2.48.27-3.43.93-3.69,2.56-7.71,3.71-11.99,3.95-1.57.09-3.26.26-4.71-.25-2.51-.89-4.86-.79-7.26.21-.11.05-.28-.07-.46-.12-.19-.66-.39-1.34-.59-2.03-2.04.25-3.96.48-5.92.71-.25-.47-.52-.88-.7-1.32-.67-1.63-1.76-2.39-3.41-2.16-1.55.22-3.11.43-4.67.56-.81.07-1.67.1-2.45-.11-1.09-.3-2.13-.82-3.17-1.29-2.32-1.04-4.69-1.86-7.23-1.75-1.39.06-2.69.59-4.16.53-4.06-.15-8.14.15-12.21.17-1.25,0-2.35.27-3.43.98-.53.35-1.28.61-1.87.5-2.44-.44-4.86-1.03-7.29-1.58-3.69-.84-7.35-.46-11.01.33-.93.2-1.56.68-2.08,1.65-1.28,2.38-3.15,2.78-5.41,1.55-1-.55-2.09-1.16-3.16-1.23-2.7-.19-5.42-.09-8.13-.09-.29,0-.59.11-.88.22-1.79.65-3.6,1.25-5.35,2.01-1.26.55-2.42.75-3.71.15-.51-.23-1.28-.34-1.71-.08-1.29.81-2.66,1.64-3.62,2.83-.99,1.24-1.95,1.87-3.45,1.88-1.74.01-1.95.32-1.98,2.2-.03,2.07.04,4.15.04,6.22,0,23.66-.02,47.31-.03,70.97h-.02v288h540V101h0Z"/>
  </g>
</svg>