<?xml version="1.0" encoding="UTF-8"?>
<svg xmlns="http://www.w3.org/2000/svg" version="1.1" xmlns:xlink="http://www.w3.org/1999/xlink" viewBox="0 0 820 461">
  <!-- Generator: Adobe Illustrator 29.7.1, SVG Export Plug-In . SVG Version: 2.1.1 Build 8)  -->
  <defs>
    <style>
      .st0 {
        font-size: 49.7px;
      }

      .st0, .st1, .st2, .st3, .st4, .st5, .st6, .st7, .st8 {
        fill: #fff;
      }

      .st0, .st1, .st3, .st9, .st4, .st10, .st5, .st6, .st7, .st8 {
        isolation: isolate;
      }

      .st0, .st6, .st7, .st8 {
        font-family: Kanit-Bold, Kanit;
        font-weight: 700;
      }

      .st1 {
        letter-spacing: 0em;
      }

      .st1, .st3, .st4 {
        font-family: Roboto-Regular, Roboto;
        font-size: 11.7px;
      }

      .st11 {
        fill: #010101;
      }

      .st12 {
        fill: #981e21;
      }

      .st13 {
        fill: none;
      }

      .st3 {
        letter-spacing: 0em;
      }

      .st9 {
        mix-blend-mode: multiply;
      }

      .st5 {
        font-family: Kanit-Light, Kanit;
        font-size: 7.3px;
        font-weight: 300;
      }

      .st14 {
        fill: #efa123;
      }

      .st15 {
        fill: #175d91;
      }

      .st6, .st7, .st8 {
        font-size: 41px;
      }

      .st7 {
        letter-spacing: -.1em;
      }

      .st16 {
        fill: #448a40;
        stroke: #448a40;
        stroke-miterlimit: 10;
        stroke-width: .2px;
      }

      .st8 {
        letter-spacing: 0em;
      }
    </style>
  </defs>
  <g class="st10">
    <g id="Layer_1">
      <g>
        <rect class="st15" y="-5" width="820" height="473"/>
        <image class="st9" width="673" height="256" transform="translate(0 -1.5) scale(1.2 1.8)" xlink:href="asset-12-1.png"/>
      </g>
      <g>
        <g class="st10">
          <text class="st8" transform="translate(36.5 201.7)"><tspan x="0" y="0">D</tspan></text>
          <text class="st6" transform="translate(61.8 201.7)"><tspan x="0" y="0">AI</tspan></text>
          <text class="st7" transform="translate(103.6 201.7)"><tspan x="0" y="0">L</tspan></text>
          <text class="st6" transform="translate(119.3 201.7)"><tspan x="0" y="0">Y TEN</tspan></text>
          <text class="st0" transform="translate(36.5 250.5)"><tspan x="0" y="0">SCHOOL</tspan></text>
        </g>
        <g class="st10">
          <text class="st4" transform="translate(36.5 275.8)"><tspan x="0" y="0">It</tspan></text>
          <text class="st3" transform="translate(43.5 275.8)"><tspan x="0" y="0">&apos;</tspan></text>
          <text class="st4" transform="translate(45.1 275.8)"><tspan x="0" y="0">s</tspan></text>
          <text class="st1" transform="translate(51.1 275.8)"><tspan x="0" y="0"> </tspan></text>
          <text class="st4" transform="translate(53.9 275.8)"><tspan x="0" y="0">Our</tspan></text>
          <text class="st1" transform="translate(72.3 275.8)"><tspan x="0" y="0"> </tspan></text>
          <text class="st4" transform="translate(75.1 275.8)"><tspan x="0" y="0">P</tspan></text>
          <text class="st4" transform="translate(82.5 275.8)"><tspan x="0" y="0">r</tspan></text>
          <text class="st4" transform="translate(86.3 275.8)"><tspan x="0" y="0">omise</tspan></text>
          <text class="st1" transform="translate(118.3 275.8)"><tspan x="0" y="0"> </tspan></text>
          <text class="st4" transform="translate(121.1 275.8)"><tspan x="0" y="0">t</tspan></text>
          <text class="st4" transform="translate(124.8 275.8)"><tspan x="0" y="0">o</tspan></text>
          <text class="st1" transform="translate(131.5 275.8)"><tspan x="0" y="0"> </tspan></text>
          <text class="st4" transform="translate(134.2 275.8)"><tspan x="0" y="0">P</tspan></text>
          <text class="st4" transform="translate(141.6 275.8)"><tspan x="0" y="0">r</tspan></text>
          <text class="st4" transform="translate(145.5 275.8)"><tspan x="0" y="0">o</tspan></text>
          <text class="st4" transform="translate(152.1 275.8)"><tspan x="0" y="0">vide</tspan></text>
          <text class="st1" transform="translate(173.4 275.8)"><tspan x="0" y="0"> </tspan></text>
          <text class="st4" transform="translate(176.1 275.8)"><tspan x="0" y="0">Quality</tspan></text>
          <text class="st1" transform="translate(212 275.8)"><tspan x="0" y="0"> </tspan></text>
          <text class="st4" transform="translate(214.8 275.8)"><tspan x="0" y="0">E</tspan></text>
          <text class="st4" transform="translate(221.3 275.8)"><tspan x="0" y="0">ducation</tspan></text>
          <text class="st1" transform="translate(266.7 275.8)"><tspan x="0" y="0"> </tspan></text>
          <text class="st4" transform="translate(269.5 275.8)"><tspan x="0" y="0">&amp;</tspan></text>
          <text class="st1" transform="translate(276.7 275.8)"><tspan x="0" y="0"> </tspan></text>
          <text class="st4" transform="translate(279.5 275.8)"><tspan x="0" y="0">Nutrition </tspan></text>
          <text class="st4" transform="translate(36.5 289.8)"><tspan x="0" y="0">for Underprivileged Child</tspan></text>
          <text class="st4" transform="translate(164.4 289.8)"><tspan x="0" y="0">r</tspan></text>
          <text class="st4" transform="translate(168.3 289.8)"><tspan x="0" y="0">en in Bangladesh</tspan></text>
        </g>
      </g>
      <path class="st2" d="M593.8,291.2h-.3c-.4-.2-.9-.3-1.3-.4-.9-.2-1.8-.4-2.8-.5-1.1-.1-2.2-.1-3.3-.1-1.9,0-3.8,0-5.7-.5-1-.3-2.1-.3-3.2-.3-1,0-2.1,0-3.1-.3-1.6-.4-3.3-.5-5-.7-.8,0-1.6-.1-2.5-.2-.8,0-1.6-.2-2.4-.3-.6-.1-1.2-.2-1.8-.3-2-.3-3.9-.5-5.9-.7-1.5-.2-2.9-.4-4.4-.5l-2-.2s-.1,0-.2,0c-.5-.1-1-.2-1.5-.4-1.2-.3-2.4-.6-3.6-.8-1-.2-2.1-.4-3.2-.6-.5-.1-1.1-.2-1.6-.3,0,0-.1,0-.2-.1l-.8-.3c-.8-.3-1.7-.6-2.6-.8-.7-.2-1.5-.4-2.3-.6h-.4c.2-.3.3-.5.5-.6,1.2-1,2.2-1.9,3.2-2.6.7-.5,1.5-1.1,2.3-1.5,2-1,3.6-2.5,4.8-4.5.2-.3.3-.7.4-1,0-.3.2-.6.3-.8.8-1.4.6-2.9.4-4.2-.2-1.2-.6-2.4-1-3.5l-.2-.6c-.2-.5-.4-.9-.6-1.3l-.2-.3c0-.2-.2-.4-.2-.5-.2-.5-.5-1-.8-1.5-.9-1.1-1.7-2-2.5-2.8-1.2-1-2.1-1.8-3.1-2.3-.6-.3-1.2-.5-1.8-.7-.6-.2-1.2-.4-1.8-.8-.9-.5-1.8-.8-2.7-1-.4-.1-.8-.2-1.2-.3,0,0,0,0,0,0,.1-.1.2-.3.3-.4l.8-1.2c.7-1,1.4-2,2.1-3.1.7-1.1,1.7-2.6,2.6-4.2.4-.7.8-1.5,1.2-2.3.2-.4.3-.7.5-1.1.2-.4.4-.7.5-1.1.4-.8.8-1.6,1.2-2.5.3-.6.4-1.3.6-2,0-.3.2-.7.3-1,.2-.7.4-1.4.6-2,.5-1.4.9-2.9,1.3-4.4.4-2,.7-4.1.7-6.2v-1c.1-4.2.2-8.5-.6-12.7-.2-1-.4-2-.6-3l-.2-1.4c0,0,0-.1,0-.2l-.4-1c-.3-.8-.6-1.6-.8-2.4-.1-.4-.2-.8-.3-1.1-.1-.6-.3-1.2-.5-1.7-.3-.8-.7-1.6-1.1-2.4-.2-.5-.5-.9-.7-1.4-.3-.6-.5-1.2-.8-1.8-.5-1.1-1-2.1-1.5-3.2-.4-.8-.9-1.6-1.4-2.3-.4-.6-.8-1.1-1.1-1.7-.4-.6-.7-1.3-1.1-1.9-.4-.7-.8-1.5-1.2-2.2-.2-.3-.5-.6-.8-.8l.6-.5h-1c0-.3,0-.6-.3-1-.8-1.2-1.6-2.4-2.6-3.7-.1-.2-.2-.3-.3-.5-.3-.5-.7-1.1-1.5-1.4,0-.2,0-.5-.2-.7l-.7-.7c-1.2-1.4-2.5-2.8-3.9-4.1-.8-.8-1.8-1.5-2.8-2.2h-.2c-1.5-1.1-2.8-2-4.2-2.8-.8-.4-1.6-.8-2.4-1.1-.3-.1-.6-.2-1-.4-.3-.1-.5-.2-.8-.4-.7-.3-1.5-.6-2.2-.9-.4-.1-.9-.2-1.3-.3-.5,0-1.1-.2-1.6-.4-2.1-.6-4.3-.8-6.3-.9-1.8,0-3.5,0-5.2,0s-3.3,0-5,0c-3.4-.1-6.2.6-8.7,2.3-.5.4-1,.8-1.5,1.2-.3.3-.6.5-1,.8-.9.7-1.7,1.3-2.6,1.9l-.6.4c-.7.5-1.4,1.1-2.2,1.6-.6.4-1.2.8-1.8,1.1-.6.4-1.2.8-1.8,1.2-.8.5-1.6,1.1-2.5,1.8-.3.2-.6.5-.9.7-.3.3-.6.5-.9.8-.5.4-1,.7-1.5,1.1-.9.6-1.9,1.3-2.8,2.1-2.1,1.9-4,3.7-5.7,5.5-.2.2-.5.5-.7.8-1,1.1-2.1,2.2-2.9,3.6-.3.5-.7,1.1-1,1.6-.6.9-1.2,1.8-1.7,2.8-.2.4-.5.8-.8,1.2-.1.1-.2.3-.4.5-.3.4-.6.8-.9,1.2l-.3.4h0c-.2,0-.5,0-.7.3-.4.5-.8,1.1-1.2,1.6-.8,1-1.5,2-2.4,2.9-.4.4-.5.8-.6,1.1l-1.7-.6,1.3,1.1c-.1,0-.2.1-.2.3-.4.7-.7,1.4-.9,2.1-.1.3-.2.6-.3,1-.4,1-.7,2-.8,3.1-.2,2-.3,4.4.6,6.7.2.5.4,1,.5,1.5.1.4.3.9.4,1.3.1.4.4.9.7,1.2,0,0,.1.2.2.4,0,.2.2.5.5.7l-.2.2h.7s.1.5.1.5h0c.2.2.4.5.7.7.5.4,1.2.5,1.7.4,0,0,.1,0,.2,0-.2.2-.3.4-.5.6-.1.2-.4.4-.5.4-.1,0-.3,0-.4-.1-1.5-1.1-2.6-2.6-3.2-4.3-.3-.9-.6-1.6-1.2-1.8-.5-.2-1.1.1-1.9.7-1.8,1.3-3.5,2.6-5.3,4l-1.4,1c-.2.1-.3.2-.5.4-.4.3-.9.6-1.2,1,0,0-.2.2-.4.2-.3.1-.7.4-.9.9-.8,0-1.3.5-1.8,1-.3.3-.7.6-1,.7-1.2.4-2.2,1.2-3.2,2.1-.5.4-.9.4-1.6.3-.2,0-.4,0-.5,0-.3,0-.7-.1-1-.2-.4-.1-.8-.2-1.2-.2-1.3,0-2.7,0-4-.1h-1.2c-1.1,0-2.2,0-3.3,0-.3,0-.5.1-.8.4l-.2.2v.2c0,.1.1.5.3.6.7.5,1.4,1,2.2,1.4,1.6.9,3.3.9,4.8.8.3,0,.7,0,1,0,1.1,0,2.3,0,3.5-.7,1.5-.9,3.2-.9,4.6-.8.5,0,.9,0,1.4,0h.4c.2,0,.5,0,.8-.1.5-.2,1.1-.3,1.6-.5.7-.2,1.4-.5,2.1-.7.6-.2,1.2-.3,1.8-.5.5-.1.9-.2,1.4-.4.7-.2,1.4-.4,2.1-.7.4-.1.8-.3,1.2-.5.6-.2,1.2-.5,1.8-.7.7-.2,1.4-.4,2.1-.6.4,0,.8-.2,1.2-.3.2,0,.3-.1.4-.2.4,0,.9-.1,1.3-.2h0c0,0,0,.1,0,.2,0,.4,0,.8,0,1-.5,1-1.1,1.9-1.7,2.9-.5.8-.9,1.5-1.4,2.2-.8,1.4-1.5,2.8-2.2,4.2-.1.3-.3.6-.5.9-.5,1.1-1.1,2.1-1.4,3.3-.3,1.1-.5,2.2-.6,3.3,0,.5-.1,1-.2,1.6,0,.2,0,.4-.1.6-.1.4-.2.7-.2,1.1,0,.2,0,.5,0,.7,0,.9-.1,1.8.2,2.6.2.6.2,1.2.3,1.8,0,1,.1,2,.8,2.9.2.3.3.8.5,1.3,0,.4.2.7.3,1.1.1.3.3.6.5.9.1.2.3.4.4.6.2.5.4.9.4,1.2,0,.6,0,1.3,0,1.9,0,1.2,0,2.4.2,3.7.2,1.1.7,2.2,1.2,3.3.2.5.4.9.6,1.4l.2.5c.2.5.4,1.1.7,1.6v.3c.3.4.5.9.8,1.2.5.5.9,1.1,1.3,1.6,1,1.2,2,2.5,3.5,3.3.6.3,1.6.7,2.6.7.5,0,.9-.3,1.4-.5.2-.1.3-.2.5-.3h.2v-4.7c0-.2,0-.6-.2-.9-.2-.4-.4-.7-.7-1.1-.4-.6-.8-1.2-1-1.8-.8-1.6-2-2.9-3.1-4.2-.5-.5-.9-1-1.4-1.6.8,0,1.5.2,2.2.4.3,0,.5.1.8.2,2.3.5,4.7.6,7,.8h1.4c.4.1.9.2.9.2,0,.1,0,.6,0,1.1h0c0,.7-.1,1.3,0,1.9.2,1,.4,2.1.8,3.1.2.5.7.7,1.1,1,0,0,.2,0,.2.1.1,1.3.8,2.5,1.8,3.5,1.3,1.1,2.8,1,4.1.9.4,0,.7,0,1.1,0h.2v-.2c1.6-1.9.9-3.5,0-4.9-.2-.3-.4-.7-.6-1.1.1,0,.3,0,.3,0,1.2,1.1,1.9,2.4,2.1,3.9,0,0,0,.1,0,.2,0,.3,0,.7.3.9.5.5.5,1,.4,1.6,0,.2,0,.4,0,.6-.4,0-.8-.1-1.3-.2-.9-.1-1.9-.3-2.8-.3-1.1,0-2.4.1-3.8.4-.8.2-1.6.4-2.4.7-.5.1-.9.3-1.4.4-.4.1-.8.2-1.2.4-1,.3-2,.6-2.9.6h0c-1,0-2.1-.3-3.2-.6-.5-.1-1-.3-1.5-.4h-.3c0,0-.2.1-.2.1-.1.2-.3.3-.4.5-.3.4-.7.8-1,1.2-.8.8-1.7.7-2.8.6-.3,0-.5,0-.8,0h-.3c-.4,0-.8,0-1.1-.1-.7-.4-1.4-.8-2.1-1.2-.4-.3-.8-.5-1.3-.8-.3-.2-.6-.3-1-.5-.6-.3-1.2-.5-1.5-.9-.2-.2-.5-.5-.9-.6-.3,0-.5,0-.7.2l-.6-3.2c0,0,0-.2,0-.2,0-.2,0-.4-.1-.5-.1-.5-.3-.9-.4-1.3-.2-.8-.5-1.6-.7-2.5-.2-.8-.4-1.6-.5-2.4,0-.4-.1-.7-.2-1.1,0,0,0-.1,0-.2l-.4-.9c-.3-.6-.5-1.3-.8-1.9l-.8-1.9c-.5-1.2-1-2.5-1.5-3.7,0-.2-.3-.3-.5-.3,0-.6-.3-1-.5-1.4,0-.1-.1-.2-.2-.3-.3-.6-.6-1.1-1-1.7-.3-.6-.6-1.2-1-1.8-.4-.7-.9-1.4-1.3-2.1-.5-.9-1.1-1.8-1.6-2.6-.3-.5-.5-1.1-.8-1.7-.2-.5-.5-1.1-.8-1.6-.3-.6-.7-1.1-1-1.7-.5-.8-1-1.6-1.4-2.4-.4-.9-1-1.6-1.6-2.3-.4-.5-.8-.9-1-1.4-.3-.5-.7-.9-1.1-1.3-.4-.4-.9-.9-1.1-1.3-.6-1.2-1.6-1.8-2.5-2.4-.4-.2-.7-.4-1-.7-.4-.3-.8-.4-1.3-.6-.3,0-.5-.2-.8-.3-1.3-.7-2.6-1.2-4.1-1.2h0c-.7,0-1.4,0-2,0-3.1,0-6.4-.1-9.5,1.3-1.2.6-2.5,1-3.8,1.3-1.7.4-2.9,1.3-3.7,3l-.3.6,1.6.2s0,0-.1,0c-.6.2-1.2.3-1.8.6-.9.4-2,.8-2.9,1.5,0,0-.2.1-.4.1-.2,0-.7.2-.9.5l-1-1,.4,1.1-1.1-.4.9.9c-.7.2-1.3.7-1.8,1.1-.3.2-.5.4-.8.6-.9.6-1.6,1.4-2.4,2.2-.3.3-.5.6-.8.8-.3.3-.6.6-1,1-1,1-2,2-2.9,3.1-.5.7-1,1.4-1.5,2.1-.4.6-.9,1.3-1.4,1.9-.3.4-.6.8-.7,1.3l-1.3-.4.9.8c-.3.2-.5.6-.6.9,0,.1-.1.2-.2.3-.2.4-.4.8-.6,1.2-.1.3-.3.5-.4.8-.3.5-.5,1-.8,1.5-.3.6-.7,1.2-1,1.8-.4.8-.8,1.7-1.2,2.5l-.5,1c-.6,1.2-1.1,2.3-1.7,3.5l-.2.4c-.3.7-.7,1.4-.9,2.1-.3.7-.5,1.5-.7,2.2,0,0,0,.2,0,.3l-.5-.4.2.9h-.5c0,0,.1.2.1.2,0,0,0,0,0,.1-.2.3-.3.6-.4,1,0,.2-.2.5-.3.7-.1.3-.3.6-.4.9-.4.8-.7,1.7-1.2,2.4-.6.9-1.2,1.8-1.8,2.7-.7,1-1.4,2.1-2.1,3.2-.7,1.2-1.4,2.5-2,3.7-.3.7-.7,1.3-1,2-.5.9-1,1.8-1.5,2.8-.6,1.2-1.3,2.4-1.9,3.7-.2.3-.3.6-.4.9-.1.4-.2.7-.4,1-.6,1-1.3,2.2-1.3,3.6-.2,0-.5.2-.6.5-.5,1.7-1,3.4-1.5,5.2-.1.4-.2.8-.3,1.2-.1.5-.3,1-.4,1.5-.1.4-.3.9-.4,1.3-.3.8-.5,1.6-.7,2.4-.1.5-.2,1.1-.2,1.6,0,.7-.1,1.4-.4,2.1-.3.9-.3,1.8-.4,2.8,0,.9,0,1.8-.3,2.6-.4,1.5,0,3.1.4,4.7.4,1.5,1.4,2.7,2.7,3.5.5.3,1.1.5,1.8.5s1.1-.1,1.7-.4c1.4-.6,2.6-1.8,3-3.2,0-.2.1-.5.2-.8.1-.6.2-1.1.5-1.4.6-.8.7-1.7.7-2.5,0-.7,0-1.4.5-1.9h.1v-.3c0-.8,0-1.5,0-2.3,0-2.7.1-5.4.5-8.1.4-2.6.5-5.2.6-7.8,0-1.2.1-2.3.2-3.5,0-.1,0-.3,0-.4h0c.1-.6.3-1.1.4-1.6.3-1,.6-2,.8-3.1.2-.9.4-1.7.5-2.6,0-.4.1-.8.2-1.2h-.5c0,0,.5-.1.5-.1l.4-1c.3-.8.6-1.6.8-2.3.3-.9.5-1.7.8-2.6v-.4c.2-.2.3-.5.3-.7.1-.4.2-.8.3-1.1v-.3c.5-1,.9-2,1.4-3h0c.5-1.1,1-2.1,1.7-2.9,1-1,2.1-2,3.2-2.9h.2c.6-.7,1.3-1.1,2-1.6.8-.6,1.6-1.2,2.4-1.8,0,0,.2-.1.4-.2.3-.1.9-.3,1-.9h.7c0,.1-.2-.1-.2-.1.3-.1.5-.2.7-.4.1,0,.3-.2.4-.3h.2c1-.6,2.1-1.1,3.2-1.5l.5-.2c1.1-.4,2.3-.9,3.5-1,2.7-.3,4.8,0,6.6.6.5.2,1,.3,1.6.4.5.1,1,.2,1.4.4.4.1.8.4,1.1.6.4.2.8.4,1.2.6.6.2,1.2.4,1.8.5,0,0,0,0,0,0h0c0,0,.4.1.4.1l-.2,1,.4-.5c.2.3.6.5.8.5,0,0,.1,0,.2,0,1.8,1,3.2,2.5,4.4,3.9,1,1.1,1.8,2.1,2.5,3.1.5.8,1,1.6,1.4,2.6,0,.2.2.4.1.5,0,0-.2.1-.2.2-.4.2-.7.5-.9.9,0,0-.1.2-.2.3-.2.2-.4.5-.6.7-.5.6-1.1,1.2-1.5,1.9-.1.2-.3.5-.6.7-.4.4-.9,1-.9,1.7-.2,0-.4.1-.5.3-.6.8-1.1,1.6-1.7,2.4-.8,1.1-1.6,2.2-2.4,3.3-.6.8-1.3,1.5-2,2-.1.1-.4.1-.7.2-.3,0-.7.1-1,.3-.8.5-1.6.4-2.5,0-.1,0-.2,0-.3-.1-.2-.1-.5-.2-.7-.2-.4,0-.9-.1-1.3-.2-1.2-.2-2.5-.4-3.7-.3-2.4,0-4.9.2-7.3.4-.9,0-1.7.1-2.6.2-.2,0-.4.1-.6.2h-.1c-.3.2-.6.3-.9.4-.6.3-1.3.5-1.9.7-1.3.4-1.9,1.1-1.9,2.4v.4h.4c.5.1,1,.2,1.5.3,1.1.2,2.3.4,3.5.4,2.5,0,5-.3,7.5-.5,1,0,2-.2,2.9-.2.2,0,.3,0,.5-.1,1.4-.4,2.9-.8,4.3-1.2.2,0,.5-.1.7-.2.5-.1.9-.3,1.4-.4.4,0,.7,0,1,0,.5.2,1.1.3,1.6.5.7.2,1.4.5,2.1.7.9.2,1.8.4,2.7.6.4,0,.8.1,1.2.2,0,0,.1,0,.2,0s.1,0,.2,0c.4.1.8.2,1.2.4,1,.3,1.9.6,2.9.9.6.1,1.1.3,1.7.4.6.1,1.1.2,1.7.4.5.1,1.1.3,1.6.5.7.2,1.4.5,2.1.6.5.1,1,.2,1.5.2.6,0,1.2.2,1.9.3,1.7.5,3.6.6,5.4.8h.8c.9.1,1.9.1,2.8.1,1.3,0,2.6,0,3.8.2,2.2.3,4.1.3,6.1,0,1.4-.2,2.9-.2,4.3-.3,2,0,4,0,5.9-.6,1.3-.3,2.7-.5,4-.6.6,0,1.2-.1,1.9-.2,0,0,.2,0,.3,0,.4-.1.8-.2,1.2-.4.9-.3,1.8-.5,2.6-.8.8-.2,1.7-.4,2.5-.5.4,0,.8-.1,1.2-.2.1,0,.2,0,.4-.1.3-.1.6-.3,1-.4.6-.3,1.3-.6,2-.8.6-.2,1.3-.4,1.9-.6.9-.3,1.7-.5,2.6-.9.8-.3,1.5-.7,2.2-1.1.5-.3,1.1-.6,1.7-.8,1.2-.5,2.4-1,3.6-1.5.6-.2,1.1-.5,1.7-.7l.5-.2c.5-.2,1-.4,1.4-.6.3-.1.6-.3.9-.5.4-.2.7-.4,1-.6.6-.2,1.2-.5,1.8-.7.8-.3,1.5-.5,2.3-.9,1-.4,1.4-1.3,1-2.2-.3-.9-.6-1.9-.9-2.8-.1-.4-.2-.8-.4-1.2h0c0-.2,0-.3,0-.3-.1-.3-.3-.6-.4-1-.3-.7-.5-1.4-.8-2.1-.2-.5-.3-1-.4-1.5-.1-.5-.3-1.1-.5-1.6-.2-.5-.4-.9-.5-1.4-.2-.5-.4-1-.6-1.4-.2-.6-.3-1.2-.5-1.8-.1-.4-.2-.9-.3-1.3-.3-1-.5-1.7-.8-2.4-.2-.4-.3-.9-.5-1.3-.2-.5-.5-1.1-.6-1.6-.2-.6-.3-1.2-.5-1.8-.1-.4-.2-.9-.3-1.3-.2-.8-.5-1.6-.8-2.2-.3-.9-.6-1.7-1-2.5l-.3-.7c0-.2-.2-.4-.2-.6-.2-.4-.3-.7-.4-1.1-.2-.7-.3-1.4-.5-2.1,0-.3-.1-.7-.2-1,0-.2-.1-.4-.2-.7l-.4-1c-.3-.7-.5-1.4-.8-2.1,0-.2,0-.5,0-.5.5-.6,1-.9,1.6-.8.2,0,.4,0,.6,0,.8,0,1.3,0,1.6.6.4.6.6,1.4.8,2.1.1.5.3,1.1.4,1.6.1.6.3,1.2.4,1.7.3,1,.6,1.9.9,2.9l.4,1.2c0,.1,0,.2.1.3h0c.1.4.2.7.4,1,.3.7.5,1.4.8,2,.2.6.3,1.1.5,1.7.1.4.2.9.4,1.3.2.8.5,1.7.8,2.3.2.4.3.9.5,1.3.2.6.5,1.3.7,1.9.2.6.3,1.1.5,1.7.1.5.3,1.1.5,1.6.2.5.4,1,.5,1.5.2.5.4,1,.5,1.5.2.6.3,1.2.5,1.8.1.5.3,1,.4,1.6.3.9.6,1.9.9,2.8l.4,1.3h0c0,.2,0,.2,0,.3l.4,1c.3.6.5,1.3.8,1.9.2.6.4,1.1.6,1.7l.4,1.1,1.1-.3c.4-.1.8-.2,1.1-.3.8-.2,1.7-.4,2.5-.5l1.3-.3c.1,0,.2,0,.2,0,.4-.1.7-.3,1.1-.4.8-.3,1.5-.6,2.2-.6.5,0,1.1,0,1.6,0,2-.1,3.9-.2,5.8.5,2.4.9,3.5,2.2,3.3,3.7,0,.4,0,.7,0,1,0,1.4-.1,1.5-1.7,1.5s-.2,0-.4,0c-.7,0-1.1.3-1.2.5-.2.2-.3.6-.2,1.2v.2s.3,0,.3,0c.2,0,.4.2.6.3.5.2,1,.5,1.5.5,1.6.1,3.1.6,4.5,1.4.6.3,1.1.9,1.3,1.4.7,1.6-.3,4.3-1.5,5.3-1.1.9-2.4,1.4-3.7,2-.5.2-1,.4-1.5.6-.6.3-1.1,1.1-1.3,1.8-.2.6-.2,1.1,0,1.5.7,1.1.5,3.5-.3,4.3-.7.7-1.5,1.4-2.4,2h-.2c-1.2,1.1-1.9,2.1-2.2,3.3,0,.1,0,.3,0,.4-.1.5-.2,1-.5,1.5-.8,1.2-2,2.2-3.7,2.9-1.3.5-2.9.6-4.4.7-3.1.2-6.4.1-9.5,0-4.8-.1-9.8-.2-14.7.6-1.3.2-2.7.4-4,.5-.5,0-1.1.1-1.7.2h-1c-1.8.3-3.6.5-5.5.7-.6,0-1.2,0-1.9.1-1.4,0-2.9.1-4.3.5-1.4.4-2.9.5-4.3.6-.7,0-1.4,0-2.1.2-.6,0-1.2,0-1.8.1-1.2,0-2.5.1-3.8.5-1,.3-2,.3-3.1.4-1.1,0-2.2,0-3.3.4-.9.2-1.9.3-2.9.3-1,0-2,0-3,.3-1,.2-2,.3-3.1.3-1.2,0-2.5.1-3.7.4-1.2.3-2.5.4-3.8.5-.6,0-1.2,0-1.9.1-1,.1-2.1.2-3.1.4-1.3.1-2.6.3-3.9.4-1.4.1-2.8.3-4.1.4l-2.2.2c-.8,0-1.6.1-2.4.1-1.5,0-3,.1-4.5.5-1.2.3-2.5.3-3.9.4-1.3,0-2.6,0-4,.3-1.5.3-2.9.3-4.5.4-1.3,0-2.7,0-4,.3-2,.3-4,.4-6,.4-1.6,0-3.4.1-5,.3-4.8.5-8.7.4-12.2-.5,0,0-.2,0-.3-.1-.1,0-.3-.1-.4-.2-.8-.2-1.5-.5-2.3-.7l-.6-.2c0-.2-.1-.5-.3-.7-.2-.2-.4-.3-.6-.4-.2-.1-.4-.3-.5-.4-1.1-1.7-2.8-2.4-5.2-2,0,0-.2,0-.2,0-.1,0-.3,0-.4,0-1.7.2-3.4-.1-5.1-.4-.6-.1-1.2-.2-1.8-.3-.4,0-.7-.3-1.1-.5-.2-.1-.4-.3-.6-.4-.1,0-.3-.1-.4-.2l-.8-.3v.6s0,.1,0,.2c0,.2,0,.6.2.8.1.1.3.2.5.4.5.4,1,.8,1.7,1,2,.4,4.1.6,6.1.8,1.3.1,2.6.1,3.6.1.7,0,1,.3,1.6.8h0c.2.2.3.4.5.6.5.6,1.1,1.3,2.1,1.3s0,0,.1,0c0,.2.2.5.4.6.3.2.7.3,1,.4.4.1.7.3,1,.4,1.6.9,3.3,1.3,5.2,1.3h.3c1.3,0,2.6,0,3.9,0,3,0,6.2,0,9.3-.5,1.7-.3,3.4-.3,5.1-.3,2.1,0,4.2,0,6.3-.5,1.6-.4,3.3-.4,5-.5,1,0,2,0,3-.2.8,0,1.6-.1,2.3-.1,1.5,0,3,0,4.5-.5,1.1-.3,2.3-.3,3.5-.3s2.6,0,3.9-.4c1-.3,2-.3,3.1-.3,1.1,0,2.2,0,3.3-.3,1-.2,2-.3,3.1-.3,1.2,0,2.4-.1,3.6-.4,1.2-.3,2.6-.4,3.8-.5.6,0,1.2,0,1.9-.2,1.3-.1,2.6-.3,3.9-.5l4-.5c1.5-.2,2.9-.3,4.4-.5.7,0,1.4-.1,2.1-.1,1.5,0,3-.1,4.6-.6.9-.3,1.8-.3,2.7-.3,1,0,2,0,3-.3,1.6-.4,3.4-.5,5.1-.6.8,0,1.5,0,2.3-.1l9.7-.9c0,0,.1,0,.2,0,.9-.1,1.7-.2,2.5-.4,1.9-.3,3.9-.6,5.9-.8,1.9-.1,3.8-.1,5.6,0,.5,0,1.1,0,1.6,0,.4,0,.8,0,1.3.1.4,0,.9.1,1.3.1.7,0,1.4,0,2.1.1,1.8.1,3.7.2,5.5,0,.7-.1,1.4-.1,2.1-.2,1.5,0,3-.1,4.4-.9.3-.2.7-.3,1-.4.5-.1.9-.2,1.4-.5,1.9-1.2,3.1-3.1,3.8-5.9.2-.7.5-1,1.1-1.4,2.6-1.6,3.8-3.6,3.7-6,0-.4,0-.9,0-1.3,0-.4,0-.9,0-1.3v-.2c0-.6,0-.8.5-1,1.2-.5,2.5-1.1,3.9-1.9.2-.1.3-.2.5-.3-.5.7-.5,1.5-.2,2.4.2.6.7,1.2,1.1,1.7h.1c.2.4.5.6.7.8,0,0,0,0,.1,0,0,1,.6,1.5,1.1,2,.2.1.3.3.5.4,1.2,1.3,2.7,2.2,4.2,2.5.7.1,1.4.1,2.1.1.2,0,.5,0,.7,0,1.6,0,2.7-.6,3.3-2,.2.1.4.2.6.3.2.1.5.4.7.6.5.5,1,1,1.9,1,0,.2.1.4.3.5.2.2.5.3.7.4.3.1.6.3.8.5,1,.9,2.2,1.1,3.2,1.1s.5,0,.8,0c2.9-.1,4.1-1.5,4.6-2.7,0,0,.2.1.3.2.6.4,1.1.8,1.8,1l.4.2c1,.4,2.1.9,3.1.8.8-.1,2-.4,2.9-1.3,1.3-1.4,1.5-2.8.7-4.2.2,0,.4.2.6.3,1,.5,1.9.9,3,1.2,1.3.4,2.7.2,4-.5,1.9-1,2.7-1.7,2.6-3.7,0-1.2-.8-2-2-2.1-.2,0-.5-.1-.8-.2-.1,0-.3-.1-.4-.1l-2.3-.8c0-.2,0-.4-.2-.6-.9-.8-2-1.7-3.3-2.7h0c-.6-.6-1.2-1.1-1.9-1.5-.6-.4-1.1-.7-1.7-1l-1.4-.8c-1.1-.6-2.3-1.2-3.5-1.8-.7-.4-1.5-.7-2.3-1-.2,0-.4-.1-.5-.2.3-.4.6-.8.5-1.3,0-.4-.2-.7-.6-1h0c0-.3,0-.4,0-.6,0-.2-.2-.5-.3-.7,0-.2-.2-.4-.2-.6,0-.2,0-.4-.2-.6,0,0,.2,0,.3,0,.7,0,1.3.1,1.9-.2,1-.5,1.8-1.4,2.4-2.2.4-.5.8-.6,1.2-.5.9.2,1.8.5,3,.9.4.1.8.3,1.1.4.7.3,1.4.5,2.1.7,1.1.2,2.2.4,3.3.6.5,0,.9.1,1.4.2h.2c.5.1.9.3,1.4.4,1,.3,2.1.6,3.2.8,1,.2,2,.4,3,.5.4,0,.8.1,1.2.2l1.1.2c1.2.2,2.5.4,3.7.6,1,.1,2,.3,3,.4.7,0,1.4.2,2.1.3.6,0,1.3.1,1.9.2,1.2,0,2.3.2,3.5.5,1,.3,2,.3,3,.4,1,0,1.9,0,2.9.3,1.4.4,2.8.4,4.2.5.8,0,1.6,0,2.4.1,1.7.2,3.5.3,5.2.5,1.7.1,3.4.3,5.1.5,0,0,0,0,.1,0,0,0,0,0,0,0-.4.5-.8,1-1.2,1.5-.2.3-.3.7-.4,1,0,0,0,0,0,0-.2,0-.5,0-.7.2-.7.6-1.3,1.2-2,1.8-.4.4-.9.8-1.3,1.2l-.7.7c-.8.7-1.6,1.5-2.5,2.1-.9.7-1.9,1.4-2.9,2-.3.2-.7.5-1,.7l-.5.3c-.6.4-1.1.8-1.7,1-.6.3-1.2.6-1.8.8-.6.2-1.1.5-1.7.8-1.4.7-2.8,1.4-4.2,2.2l-.7.4c-.4.2-.8.4-1.2.6-1,.5-2,1-2.8,1.6-1.6,1.3-3.4,3.1-3.4,6,0,.2-.2.5-.4.7-.8.6-1.6,1.1-2.4,1.6-.7.5-1.4.9-2.1,1.4-1.9,1.3-3.4,2.4-4.8,3.4-2.5,1.9-4.5,3.5-6.4,5-1.5,1.2-3.1,2.6-5.1,4.4-1.3,1.2-2.7,2.5-4.1,3.9-1.5,1.6-2.8,3-3.9,4.5-.9,1.2-1.7,2.6-2.2,4-.2.5-.4.8-.7,1.1,0-.1-.2-.3-.3-.4-.9-.5-2-1.1-3.2-1.6-1.3-.6-2.7-1.2-4.4-1.9-.4-.2-.8-.3-1.2-.4-.4-.1-.7-.2-1.1-.4-.4-.1-.8-.3-1.1-.5-.5-.2-1.1-.5-1.7-.7-.7-.2-1.3-.4-2-.5-.6-.1-1.1-.2-1.7-.4-.7-.2-1.5-.5-2.2-.7-1.2-.4-2.4-.8-3.6-1.1-.5-.1-1-.2-1.4-.3-1.4-.3-2.8-.6-4.2-1-1.8-.6-3.7-.9-5.5-1.3h-.7c-1.1-.4-2.3-.5-3.4-.7-.5,0-1-.1-1.5-.2h-.2c-.1,0-.2,0-.3,0-.5-.1-.9-.2-1.4-.4-1-.3-2-.6-3.1-.8-.5,0-.9-.1-1.3-.2-.7,0-1.4-.1-2-.4-.8-.3-1.6-.4-2.5-.5-.5,0-1-.1-1.4-.2-1.3-.3-2.6-.5-3.9-.7-1.4-.2-2.9-.4-4.3-.8-2.5-.5-5.1-.9-7.6-1.2l-1.5-.2c-.7,0-1.4-.1-2-.2-1.2,0-2.2-.1-3.4-.4-1-.3-2.1-.4-3.1-.4-.8,0-1.6,0-2.4-.2-1.5-.3-3-.4-4.5-.4-1.4,0-2.8-.1-4.2-.4-2-.4-4.1-.5-6.1-.6-.9,0-1.8-.1-2.7-.2,0,0,0,0,.1,0,.5-.4,1.2-1,.5-2.1l-.2-.4-.4.2c-.2.1-.4.2-.6.4-.4.2-.7.5-1.1.5-1.7.3-3.5.5-5.3.7h-.7c-1.9.3-3.8.5-5.8.7l-2.7.3c0,0-.1,0-.2,0l-2,.4c-1.5.3-3.1.6-4.7.8-.5,0-1.1.1-1.7.1-.9,0-1.9.1-2.9.4-1.4.4-2.9.5-4.4.6-.7,0-1.4,0-2,.2l-7.6.9h-.1c-.7.1-1.3.3-2,.4-1.5.3-3,.6-4.5.8-.7,0-1.3.1-2,.2-1.1,0-2.3.1-3.5.5-.8.2-1.7.3-2.7.3-.9,0-1.9,0-2.8.3-1.7.4-3.6.5-5.4.6-.6,0-1.3,0-1.9,0-4.2.3-8.6.2-12.8.2-1.7,0-3.3,0-5,0s-.7,0-1-.1c-.5-.1-1-.3-1.4-.5-.8-.3-1.6-.5-2.4-.7-1.4-.3-2.5-1.1-3.8-1.9-.3-.2-.6-.4-1-.6-.2-.2-.5-.3-.7-.5-.5-.4-1.1-.9-1.8-1.1h0c0,0-.5,0-.5,0,0,0-.1,0-.2,0v-.4c-.1,0-.3.2-.3.2-.1-.2-.3-.4-.6-.4-2.2-.2-4.4-.5-6.6-.6-.3,0-.6,0-.9,0-.4,0-.7,0-1.1,0-.2,0-.4-.1-.7-.3-.1,0-.2-.1-.3-.2l-2.4-1-.6,1.3.4.2c.3.1.5.3.8.5.6.4,1.2.8,1.9,1,1.2.4,2.5.6,3.9.7,1.4,0,2.9,0,4.3,0h.7l-.2.2h1c0,0,.1.2.3.4.7.5,1.5.9,2.2,1.4l.8.5c.3.2.5.3.8.5.6.4,1.2.8,1.9,1.1.6.3,1.2.5,1.8.6.2,0,.4.1.6.2.4.1.8.3,1.1.4.9.3,1.9.7,2.9.8,3.8.2,6.9.4,10.1.2,1.4,0,2.8,0,4.1,0,2.7,0,5.5,0,8.3-.6.8-.2,1.7-.2,2.6-.2,1.1,0,2.2,0,3.4-.4.8-.3,1.7-.3,2.7-.3,1,0,2.1,0,3.1-.4.7-.2,1.5-.3,2.4-.3.9,0,1.7,0,2.6-.3.8-.2,1.6-.3,2.4-.3,1,0,2.1,0,3.1-.5,1.1-.4,2.3-.5,3.4-.5.4,0,.8,0,1.2-.1.5,0,1,0,1.5-.1,1.3,0,2.6-.2,4-.6.8-.2,1.6-.3,2.4-.3.9,0,1.9,0,2.9-.4.6-.2,1.3-.2,2.1-.3.8,0,1.5-.1,2.3-.3,1.5-.4,3.2-.5,4.9-.7.7,0,1.4,0,2.1-.2l2.4-.2c1.6-.2,3.2-.3,4.8-.5.2,0,.4-.1.6-.2,0,0,.2-.1.2-.1,1-.1,1.9-.2,3-.3h.3s-.6,1-.6,1h.6c.4.2.9.3,1.3.4.9.2,1.7.4,2.6.5,1.2.1,2.4.1,3.6.2,1.6,0,3.3,0,5,.4,1.8.5,3.6.6,5.5.6.9,0,1.8,0,2.7.2,1,.1,1.9.2,2.9.4.7,0,1.3.2,2,.2,1.4.2,2.7.3,4,.5,1.1.1,2.2.2,3.2.4,1.6.2,3.1.4,4.7.6l1.8.2s0,0,.2,0c.6.1,1.2.2,1.8.4,1.3.3,2.7.6,4,.8,1.4.2,2.8.4,4.1.6.6,0,1.2.2,1.9.3.5.1,1,.2,1.5.4,1.2.3,2.4.6,3.5.8,1.2.2,2.3.4,3.5.6.5,0,1,.1,1.5.2h.1s0,0,.1,0c.5.1.9.3,1.4.4,1,.3,2,.6,3.1.8,1.1.2,2.3.4,3.4.6.5,0,1,.1,1.5.2h.1c.4.1.7.3,1.1.4.8.3,1.6.6,2.5.8,1,.3,2,.5,3,.6.5,0,.9.2,1.4.3.1,0,.2,0,.4.1l1.1.4c.7.3,1.5.5,2.2.8.7.2,1.4.5,2.2.7.7.2,1.3.4,2,.6,1.2.4,2.7.9,4.2,1.4,1.5.5,2.9,1,4.1,1.5.3.1.5.3.8.4.2.1.5.3.7.4.2.1.5.3.7.4.4.3.8.5,1.3.6l-.9,1,1.7-.7v.2c0,0,.1,0,.1,0,0,.1.2.2.3.3.4.2.8.2,1.1,0,.5-.2.7-.7.9-1.1,0-.1,0-.2.1-.3.3-.6.6-1.3.9-1.9.4-1,.9-2,1.5-2.9,1.3-1.7,2.9-3.3,4.4-4.8l.9-.9c1.5-1.4,2.9-2.8,4.4-4,1.8-1.5,3.7-3,5.5-4.4l.8-.6c1.3-1,2.7-2,4-3.1l1.7-1.3c.6-.5,1.2-.9,1.9-1.4l.3-.2c1.1-.7,2.2-1.5,3.4-2.1.9-.5,1.9-1.6,1.9-2.9s.5-2,1.2-2.9c1.5-2,3.5-3.1,5.6-4.2l.3-.2c1-.5,2-1,3-1.4.5-.2,1.1-.4,1.6-.7.6-.3,1.2-.6,1.7-.8l.7-.4c.7-.4,1.5-.8,2.2-1.2.5-.3,1-.7,1.4-1,.3-.2.6-.5,1-.7.4-.3.8-.5,1.3-.8.8-.5,1.6-1,2.4-1.6,1.5-1.3,2.9-2.7,4.3-4.1l.4-.4c.3-.3.5-.6.7-1h.1c0,.1.2-.3.2-.3h.5c0-.1-.2-.3-.2-.3,0,0,0,0,.1,0,.4-.3.9-.6,1.2-1,.2-.2.4-.4.6-.6.6-.6,1.3-1.2,1.2-2.2v-.4s0,0,0,0ZM413.4,225c-.3,0-.7,0-1,0h-.6c-.8,0-1.5,0-2.1,0-.4,0-.8-.2-1.3-.4,1.9-.1,3.5,0,5,.4ZM514.6,276.7c-.3-.2-.6-.3-.9-.5-.3-.1-.6-.3-.9-.5-.2-.1-.3-.3-.5-.4.2,0,.4,0,.5,0,.9.3,1.8.7,2.7,1.1.2.1.5.2.7.3.8.4,1.6.7,2.3,1.2.8.6,1.6,1.3,2.3,2,.3.3.6.5.8.8,0,0,0,.1,0,.2,0,0,0,0-.1,0-.7-.4-1.3-.8-1.9-1.2-.3-.2-.6-.4-1-.6l-.5-.3c-1.2-.8-2.4-1.5-3.6-2.2h0ZM528,284.7l-.3-.2c-1-.6-1.9-1.1-2.5-2.1-.9-1.6-2.2-2.8-3.4-4l-.6-.5c-1.4-1.4-3.2-2.2-4.8-3.1l-.5-.3c-1.3-.6-3.3-1.3-5.5-.7h-.3c0,0,0,.4,0,.4-.1,1.1.6,2.4,2,3.1,1,.6,2,1.2,2.9,1.8.8.5,1.5,1,2.3,1.5.5.3,1.1.6,1.6.9.4.2.9.4,1.3.7l.5.3c1.4.8,2.8,1.6,4.2,2.5.4.2.6.9.8,1.4.5,1.3,1,2.7.8,4.1-.2,1.7,0,2,1.6,2.5.6.2,1.1.5,1.7.8.4.2.8.4,1.2.6.3.1.7.3,1,.4.4.1.8.3,1.1.5.9.5,1.9,1,2.7,1.6,1,.8,2.1,1.6,3.1,2.4.8.6,1.7,1.3,2.5,1.9.3.2.6.2.9.2v.8c0,0,.4-.4.4-.4,0,.2.2.3.4.4.5.3,1.1.5,1.7.8.4.2.8.4,1.2.5h.3c.3.3.7.5.9.7,0,0,.2.3-.4.9-1,1.1-2.1,1.6-3.1,1.4-1.3-.2-2.9-.5-4.3-1.4-1.7-1.1-3-2.6-4.1-3.8-.5-.5-.9-1.1-1.2-1.7-.5-.7-1-1.5-1.7-2.1-.9-.9-2-1.7-3-2.5-.5-.4-1-.8-1.6-1.2-.5-.4-1-.9-1.5-1.3-.2-.2-.5-.5-.8-.7l-.5-.4-.2.6c-.3.6-.6,1.3.2,2.1l.2.2c.8.7,1.5,1.4,2.6,1.9.5.2,1,.8,1.5,1.3.2.2.4.5.6.7.8.8,1.7,1.7,2.5,2.6.8.9,1.5,1.9,2.3,3,.6.9,1.2,1.9,1.9,2.8.3.4.5.8.8,1.2.2.3,0,1.2-.7,1.9-.8.7-3.3.9-4.2.2-.3-.2-.5-.3-.8-.5-.4-.2-.8-.4-1.1-.7-1.1-.9-1.9-2-2.6-3.4-.4-.8-.9-1.4-1.4-2.1-.3-.4-.5-.7-.8-1.1-.3-.5-.6-.9-.9-1.4-.3-.5-.7-1-1-1.5-.3-.4-.6-.8-.9-1.3-.2-.3-.4-.6-.7-.9-.2-.3-.5-.7-.7-1-.3-.5-.6-.9-1-1.3-.2-.2-.4-.4-.6-.5,0,0-.2-.1-.2-.2l-.7-.6v1c0,.1,0,.2,0,.3,0,.3,0,.7,0,1,.8,1.4,1.8,2.7,2.6,4,.4.6.8,1.1,1.2,1.7.7,1,1.4,2,2,3,.8,1.3,1.7,2.8,2.9,4.1.1.1.2.7-.3,1.3-1.1,1.3-2.4,1.2-3.9,1.1-.4,0-.8,0-1.1,0-.3,0-.6-.2-1-.4-.2-.1-.4-.2-.7-.3-.3-.1-.5-.2-.8-.3l.4-.6-.8.2v-.4c-.1,0-.3.2-.3.2-.2-.3-.4-.6-.7-.9-.3-.3-.7-.6-1-.9-.6-.5-1.1-.9-1.5-1.4-.4-.5-.6-1.2-.8-1.9,0-.3-.2-.7-.3-1,0-.2-.1-.4-.2-.6-.2-.5-.3-.9-.5-1.3-.6-1.3-1.2-2.7-1.8-4-.2-.5-.5-1.1-.9-1.7-.1-.2-.4-.3-.7-.4,0,0-.2,0-.3,0l-.8-.2.2.8c0,.3.1.5.2.8.1.6.3,1.1.4,1.6.2.6.4,1.2.6,1.7l.5,1.5c.3.8.6,1.7,1,2.5.2.4.3.7.5,1,.2.4.5.8.6,1.1.2.9.3,1.6.1,2.1,0,.2-.7.6-1.2.7-2.5.5-4.6-.4-6.8-2.9-.3-.3-.6-.6-1-.8-.1,0-.2-.1-.3-.2,0-.2-.1-.4-.2-.6-.2-.6-.4-1.1-.7-1.7-.4-.7-.3-1.3.3-1.8,1.9-1.7,2.8-3.8,2.6-6.1,0-.9-.5-1.6-.9-2.4-.1-.2-.2-.4-.3-.6-.8-1.7-2.3-2.5-3.8-3.3-.1,0-.2-.1-.4-.2.2-.3.4-.6.4-1,0-1,0-2.1,0-3.1,0-.4-.2-.7-.3-1,0-.1,0-.2-.1-.3v-.3c-.2-.3-.4-.7-.6-1-.2-.4.1-1.5.8-2,.6-.4,1.2-1,1.7-1.6.2-.3.3-.8.1-1.1-.2-.5-.6-.8-1.1-.9-.5,0-.9-.1-1.4-.2-.9-.1-1.9-.3-2.9-.5-.7-.2-1.4-.4-2.1-.7-.4-.2-.8-.3-1.2-.5-.7-.2-1.5-.5-2.2-.7h-.3c3.7-4.6,5.4-9.5,5-15v-.6c.7,0,1.5,0,2.3,0,2,0,3.8-.9,5.2-1.7,1.5-.8,2.6-2,3.7-3.2.5-.5,1-1.1,1.5-1.6.2-.2.4-.5.6-.8,0,.2,0,.5-.1.7,0,.2-.1.4-.2.6-.1.3-.2.7-.2,1v.2c0,1.9-.1,3.9,0,5.8,0,.9.3,1.9.5,2.8,0,.3.1.6.2.9.1.7-.2,1.2-.5,1.9-.2.3-.3.5-.5.8-.4,1-.9,2-1.3,3l-.7,1.7.5.2c1.3.5,2-.1,2.5-.6.2-.2.4-.3.5-.4.4-.2.7-.5,1-.9.2-.2.3-.4.5-.5,0,0,.1,0,.2,0,.3.5.7,1,1,1.6.6,1,1.2,1.9,1.9,2.8,1.2,1.5,2.6,3,4.1,4.4.8.7,1.7,1.3,2.5,1.9.4.2.8.5,1.1.8l.8.5c.6.4,1.2.8,1.8,1.2.6.4,1.2.7,1.7,1,.8.4,1.6.7,2.5,1.1l.6.3-.3.3c-.8.6-1.4,1.1-2.1,1.6,0,0-.4,0-.5,0h0ZM474.1,266.3c-.3-.8-.6-1.6-.8-2.4-.1-.5-.2-.9-.4-1.4-.1-.6-.3-1.2-.5-1.9-.2-.7-.5-1.5-.8-2.2-.1-.3-.3-.6-.4-1,0,0,0-.1,0-.2l-.5-1.7c-.3-1.2-.7-2.5-1-3.7-.3-.9-.6-1.8-.9-2.7-.2-.5-.3-1.1-.5-1.6-.1-.5-.3-1-.4-1.4-.3-1-.6-2-1-3.1-.2-.6-.6-1.2-1-1.8-.1-.2-.3-.4-.4-.6,0,0-.3-.5-.7-.5-.4,0-.9,0-1.3,0-1.1-.1-2.4-.3-3.4.8-.3.3-.9.9-.9,1.7,0,1.8.6,3.4,1.3,4.7.3.6.4,1.1.6,1.8,0,.3.2.7.3,1,.2.6.4,1.2.6,1.9.2.5.4,1,.5,1.5v.4c.3.6.6,1.2.7,1.9.2.6.4,1.3.5,1.9.3,1.1.6,2.3,1,3.4.2.7.6,1.5.9,2.1.1.3.3.6.4,1,0,0,0,.1,0,.2,0,.3.1.7.2,1,.2.8.3,1.6.5,2.4.2.6.4,1.1.6,1.6.1.3.3.6.4,1,.3.8.6,1.6.8,2.3.1.4.2.8.3,1.2.1.6.3,1.2.5,1.8.2.7.6,1.5.9,2.2.1.3.3.6.4.9,0,0,0,0,0,.1l.8,3.7-1.3.6c-1.2.6-2.3,1.1-3.4,1.6-.4.2-.7.3-1.1.4-.4.1-.8.3-1.2.5-.6.3-1.1.5-1.7.8-.5.3-1.1.6-1.6.8-.7.3-1.4.6-2,.9-.6.2-1.1.5-1.7.7-.5.2-.9.4-1.4.7-.4.2-.8.4-1.2.6-.6.3-1.3.6-2,.8-.4.1-.9.2-1.3.4-.5.1-1,.2-1.4.4-.6.2-1.2.4-1.8.7-.5.2-.9.3-1.4.5h-.2c-.8.3-1.5.6-2.3.8-.7.2-1.4.3-2.1.4-.6.1-1.3.2-1.9.4-.7.1-1.3.3-2,.5-1.1.3-2.2.5-3.3.7-.6,0-1.1,0-1.8,0-.7,0-1.5,0-2.2.1-4,.9-8,.7-12,.6-1.7,0-3.4-.1-5.1,0-2.7,0-5.4-.2-8-.8-.6-.1-1.2-.2-1.8-.3-.6,0-1.2-.2-1.8-.3-1.3-.3-2.6-.7-3.9-1.1-.4-.1-.8-.2-1.1-.3,0-.1.1-.2.2-.3.4-.6.7-1.2,1-1.9v-.3c.5-1.3,1-2.6,1.1-3.9.2-2.2.2-4.6,0-7.1-.1-1.7-.4-3.5-1.4-5-.3-.5-.6-.9-1-1.3s-.7-.9-1-1.3c-.2-.3-.3-.6-.5-1,0-.2-.2-.4-.3-.6-.9-1.9-2.3-3.6-4-5.1-1.4-1.3-2.7-2.3-3.9-3.2-.3-.2-.6-.3-1-.3l.5-1.4-.8.9c-.3-.4-.8-.5-1-.6-.1,0-.3,0-.3-.1-1.1-.6-2.3-1.1-3.4-1.6-.4-.2-.9-.4-1.3-.5-.1,0-.2,0-.4-.1-2-.6-4.1-.9-6.5-.8-.4,0-.8,0-1.1,0-.7,0-1.5,0-2.2.1-.9.2-1.7.5-2.6.9-.3.1-.5.2-.8.3-.5.2-1.1.5-1.7.8-1,.5-1.9,1-2.8,1.5,0,0-.1.1-.2.2l-.7-.8.3,1.2c-.5,0-.9.4-1.2.7-.9.8-2,1.5-3,2.1-.7.4-1.3.9-2,1.4-.4.3-.7.5-1,.9.2-.5.4-1,.6-1.4.3-.6.5-1.3.8-1.9.4-.8.8-1.6,1.2-2.4.2-.5.5-1,.7-1.4.1-.3.3-.6.4-.9,0-.2.2-.4.3-.6.2-.5.4-.9.6-1.4.5-1.2,1.1-2.4,1.6-3.5.2-.4.5-.8.8-1.3.3-.4.6-.9.9-1.4.3-.6.5-1.2.7-1.8,0,0,0,0,0-.1l.6.5-.2-.8h.7s-.3-.2-.3-.2c.3-.2.5-.6.6-.9,0-.1.1-.2.1-.3.2-.4.5-.7.7-1.1,1-1.4,1.9-2.8,3.1-3.9.5-.4.9-.9,1.2-1.4.4-.5.8-1.1,1.3-1.5.7-.6,1.5-1.3,2.3-1.9.9-.7,1.8-1.4,2.7-2.2,0,0,.2,0,.3-.1.2-.1.5-.2.8-.5l.4.4v-.8c-.1,0,0,0,0,0h.6c0,0-.2,0-.2,0,.3-.1.6-.3.9-.5.3-.2.5-.4.8-.4.6-.1,1.2-.4,1.7-.7.3-.2.6-.3.9-.4,1-.4,2-.8,3-1.1h.3c0-.1.2-.2.3-.2.1,0,.3,0,.4,0,.2,0,.5-.1.7-.2.4-.1.8-.3,1.2-.4.4,0,.9,0,1.5,0,.6.1,1.2.3,1.7.5h.2c1.3.5,2.6.9,3.8,1.3h.4c.7.3,1.4.6,2.1.9.9.4,1.8.8,2.6,1.3.9.6,1.7,1.3,2.4,1.9.2.2.5.4.8.7.8.7,1.6,1.4,2.2,2.2.5.8,1,1.7,1.4,2.6.3.7.6,1.4,1,2,.4.7.9,1.3,1.4,2,.2.3.4.5.6.8l.3.2.9-.4v-.2c0-.1.1-.2.1-.3,0-.3.2-.6.2-.9v-1c0-1.1,0-2.3-.2-3.4-.2-1-.7-1.9-1.1-2.8l-.3-.6c-.5-1-1.1-2.1-1.9-3-.8-1-1.9-1.9-3.2-2.9-.5-.4-1.1-.6-1.7-.9-.4-.2-.8-.4-1.1-.6-1.7-1-3.6-1.2-5.4-1.4h-.3c-.4,0-.7-.2-1.1-.3-.9-.2-1.7-.5-2.6-.1-1.5.6-3,.5-4.6.5-.7,0-1.4,0-2.1,0-.5,0-.9,0-1.4,0,.3-.2.6-.4.9-.5.6-.3,1.3-.6,2-.8l1-.4c.1,0,.2,0,.3-.1.4,0,.8-.1,1.3-.2.9-.1,1.9-.3,2.8-.6,1.8-.8,3.6-.7,5.6-.6.7,0,1.4,0,2.1,0,.8,0,1.8.4,2.6.8l.4.2c1.2.5,2.3,1.1,3.3,1.7.9.5,1.5,1.1,2,2,.4.6.9,1.2,1.4,1.7.3.4.6.7.9,1.1,1,1.4,2.1,2.9,3.1,4.5.6.9,1.2,1.9,1.8,3.1.3.5.5,1.1.8,1.6.3.6.6,1.3.9,1.9.3.6.7,1.1,1,1.6.2.4.5.7.7,1.1.3.5.6,1,.9,1.5.2.4.5.8.7,1.2.3.5.6,1,.9,1.5.2.4.5.8.8,1.2,0,0,.1.2.1.3,0,.2.2.4.3.6,0,0,0,0,0,0l-.6.3h.9c0,.1-.2.6-.2.6l.5-.3c0,.1,0,.3.1.4.2.7.4,1.5.6,2.3.2.6.5,1.3.8,1.9.1.3.3.6.4.9l.3.8c.3.8.6,1.5.9,2.3.2.5.3,1.1.5,1.7v.5c.3.7.4,1.3.6,2,.1.6.3,1.2.4,1.9.3,1.1.5,2.3.8,3.4l.4,1.6s0,0,0,.1l.2,1.4c.2,1.1.4,2.1.5,3.2,0,.6.1,1.2.2,1.9.1,1.3.2,2.6.7,3.9.1.4.2.9.4,1.4.3,1.2.5,2.5,1.6,3.4,0,0,0,.3,0,.4,0,.2,0,.3,0,.5v.5c.1,0,1.7-.5,1.7-.5v-.4c0-.4,0-.8-.1-1.2,0-.9-.1-1.7-.2-2.5-.2-1.5-.5-3.1-1.2-4.6l-.9-5.9s.1,0,.1,0c.5.2.8.3,1.1.5l.3.2c1,.7,2,1.5,3.2,1.8.4.1.8.3,1.2.5.5.2,1.1.5,1.6.6.6.1,1.2,0,1.7-.1.2,0,.4,0,.5-.1,1.5-.3,2.5-1.3,3.3-2.2.1,0,.7,0,1.5.2,2.3.6,4.1.6,5.8,0,0,0,.1,0,.2,0h.2c.4-.2.8-.3,1.2-.5.9-.3,1.7-.6,2.6-.8,1.1-.2,2.4-.3,3.9-.3,1.5,0,3.1,0,4.6.2.6,0,1.3,0,2,.1h.2l.6-.7-.9-2.3c0-.4-.1-.8-.2-1.1-.1-.8-.3-1.7-.5-2.5-.4-1.6-1.2-3.3-3.2-4.1-1.7-.6-3.3-1.3-4.8-2-.3-.1-.7-.5-.9-1-.5-1-2.2-2.3-3.4-2.4-.7,0-1.4-.1-2.1-.1-2-.1-4.1-.3-6-.7-.6-.1-1.3-.2-1.9-.3-.7,0-1.3-.2-2-.3-1.4-.3-2.6-.8-3.6-1.4-.5-.3-1-1-1.4-1.6l-.4-.7c-.9-1.4-1.8-2.8-2.5-4.3-.4-.8-.6-1.9-.7-3.1-.1-2.1-.1-4.1,0-6.1,0-1.6.2-3.1.7-4.4.7-1.9,1.7-3.9,2.6-5.7l.5-1.1c.6-1.3,1.4-2.6,2.3-4.1.2-.4.5-.7.8-1.1.3-.4.7-.9,1-1.4.3-.5.5-1.1.7-1.7,0-.3.2-.5.3-.8l.2-.5-1.1-.3.2-.2c.5-.6.9-1.1,1.4-1.7.3-.3.5-.6.7-1,.5-.7,1-1.4,1.6-1.9.7-.6,1.5-1.1,2.3-1.6.5-.4,1.1-.7,1.6-1.1l.5-.4c1.8-1.4,3.7-2.7,5-4.8.3-.5.6-1,1-1.5.5-.7,1-1.4,1.4-2.2.3-.5.4-1,.6-1.6.1-.5.3-.9.5-1.3.8-1.5.7-3.1.6-4.6,0-.4,0-.8,0-1.2,0-.8-.3-1.5-.5-2.1,0-.2-.1-.4-.2-.6,0-.2-.3-.3-.5-.4,0-.9-.6-1.5-1.1-2-.2-.2-.3-.3-.5-.5-2.1-2.7-5.1-2.5-7.9-2.3h-.3c-.3,0-.5.3-.7.4,0,0-.1.1-.2.1,0,0,0,0-.1,0,.2-.3.3-.6.5-.9.6-1.1,1.2-2.1,1.9-2.9.6-.6,1.1-1.3,1.7-2,1.6-1.9,3.2-3.8,5.4-5.1.6-.3,1-.8,1.5-1.3.3-.3.5-.5.8-.8.5-.4,1.1-.9,1.6-1.3.3-.2.6-.4.9-.7.4-.3.8-.7,1.2-1,.9-.7,1.8-1.4,2.7-2.1.5-.4,1-.7,1.6-1,.4-.2.7-.4,1-.6s.7-.5,1-.7c-.1.2-.3.4-.4.6-.2.3-.4.6-.5.9-.2.4-.5.9-.7,1.5-.1.4-.3.8-.4,1.2-.1.5-.3.9-.5,1.4-.2.5-.4,1-.6,1.4-.2.4-.4.8-.5,1.2-.4.9-.7,1.8-1,2.6l-.2.7c-.4,1.1-.8,2.3-1,3.5-.1.7-.2,1.3-.3,2-.1.9-.2,1.7-.5,2.5-.3.9-.4,1.8-.4,2.6,0,.8-.1,1.6-.4,2.3-.2.7-.3,1.4-.3,2,0,.4,0,.9-.2,1.3-.2,1.2-.6,2.4-.9,3.6-.1.5-.2,1-.4,1.5,0,.3-.2.7-.2,1-.2.8-.4,1.5-.6,2.3-.4,1.1-.8,2.2-1.3,3.2v.2c-.5.9-.9,1.8-1.4,2.6-.5.8-1.1,1.5-1.6,2.2-.3.3-.5.7-.8,1-.1.1-.2.3-.3.4l-.4.6.5.2c0,0,.1,0,.2,0,.2.1.5.3.9.2.9-.3,1.7-.7,2.6-1.1h.1c.7-.4,1.5-.7,2.2-1.1.4-.2.7-.4,1.1-.5.3-.2.6-.3,1-.5l.4-.2c.5-.2.9-.5,1.4-.6s1-.3,1.5-.5c.4-.1.7-.2,1-.3.7-.2,1.5-.5,2.2-.7l1.4-.5c.1,0,.3-.1.4-.1h.6c2.2-.1,4.6-.2,6.7.6,1.4.6,2.7,1.3,3.9,2.1l.7.4c.6.4,1.3.8,1.9,1.2.8.5,1.7,1.1,2.6,1.6,1,.5,2.1.5,3.2-.2.8-.4,1.6-.8,2.4-1.2.4-.2.7-.3,1.1-.5l.5-.2c.4-.2.7-.3,1.1-.5,3.1-1.7,6.5-2.3,10.6-1.8.5,0,1,.3,1.5.6.5.2.9.5,1.4.6,1.2.3,2.1,1.2,2.9,2.1.2.2.3.4.5.5,1.3,1.3,2.3,2.8,3.1,4.6.5,1.2.8,2.5,1.1,3.8.2,1,.4,2.1.8,3.1,0,.2.1.3.2.5l.4.8,1.5-1.5c0,.2.2.4.3.6.4.8.7,1.6,1,2.3.1.4.1.8.1,1.3s0,.7,0,1.1c0,.3.2.6.3.9,0,.2.2.5.2.7,0,.5,0,1-.1,1.5v.2s0,0-.1.1c0,.1-.2.3-.2.5,0,.5-.2,1.1-.3,1.6-.1.9-.3,1.8-.5,2.6-.2.7-.4,1.4-.7,2.1-.1.4-.3.8-.4,1.2-.1.3-.2.7-.2,1.1,0,1.1-.6,1.9-1.8,2.4-2.8,1.2-4.8,2.6-6.4,4.5-1.8,2.1-3.6,4-5.5,5.6-.4.4-1.1.6-1.7.9-.5.2-1,.4-1.5.6-1,.6-2,.6-3,.6-.7,0-1.4,0-2,.1-.9.2-1.7.9-2.5,1.7-1,1.1-2,2.2-2.9,3.3l-.4.5c-.2.2-.2.4-.2.6-.2,0-.4,0-.6.2h-.1c-.9.8-1.8,1.5-2.6,2.2-.4.4-.8.9-1.1,1.3-.1.1-.2.3-.3.4-.2,0-.4.1-.5.2-.5.2-1.1.4-1.5.7-1.3,1.1-2.7,1.9-4.4,2.5-.3.1-.6.2-1,.3-.5.1-1,.3-1.5.5-.4.2-.7.6-.9,1,0-.2,0-.3-.1-.5-.1-.6-.3-1.2-.4-1.8-.2-.7-.5-1.3-.7-1.9-.1-.4-.3-.7-.4-1.1h0ZM386.1,290.4c-.3,0-.6-.1-.9-.2h-.1c.6-.3,1-.8,1.3-1.3,0-.1.2-.2.3-.4,1.4-1.7,2.8-3.6,4.6-6,.2-.3.3-.7.3-1.1h0c.2-.1.5-.2.7-.4.8-1,1.6-1.9,2.4-2.9.5-.7,1.1-1.3,1.6-2,1,2.8.8,5.6.6,8.4,0,.6,0,1.2-.1,1.9,0,.5-.3,1-.6,1.6-.2.4-.4.8-.5,1.2-.3.9-.5,1.7-.7,2.7,0,.3-.1.6-.2.9-.3,0-.6-.2-.9-.3,0,0,0,0,0,0,0,0-.2-.1-.4-.2-.4,0-.9-.2-1.3-.2-.8-.1-1.7-.3-2.5-.5-.7-.2-1.4-.4-2.1-.7-.4-.1-.9-.3-1.3-.4h0ZM397.1,290c.2-.4.4-.8.5-1.2,0,0,0,.1,0,.2,0,0,0,.2,0,.2-.4.8-.7,1.7-1.1,2.5,0,0,0-.1,0-.2.2-.5.4-1,.6-1.5h0ZM397.8,288.3c.1-.4.2-.7.4-1.1,0,.4-.1.8-.4,1.1ZM395.3,230c1.1-.1,2.2-.1,3.2.5.2.1.4.2.7.2,1.3.2,2.4.8,3.5,1.4.2.1.5.3.8.4,1.5.8,2.5,1.9,3.5,3.1l.5.5c.4.4.6.9.9,1.5,0,.1.1.3.2.4.1.2.2.5.4.7.4.7.7,1.3.8,2,.1.8.1,1.5,0,2.3-2.6-6.4-7.5-10.9-14.5-13.2h0ZM458.5,268.2c-.1-.3-.3-.6-.5-.9-.2-.2-.5-.3-.7-.4,0-.1,0-.2-.1-.3-.1-.5-.3-1-.6-1.5-.6-.8-.6-1.6-.5-2.5,0-.3,0-.6,0-1,.3,0,.4.2.5.5.2.4.6.7.9,1,.1,0,.2.2.3.3.4.4.9.8,1.3,1.1,1,.8,2,1.6,2.8,2.5.4.5,1.1,1.6.7,3.1-1.7.3-2.8,0-3.6-1.1-.2-.3-.4-.6-.5-.9h0ZM446.9,271.4c0,.2-.2.3-.3.4-.2.1-.4.2-.6.2-2.5-.4-3.7-2.3-5-4.3v-.2c-.4-.4-.6-.8-.9-1.1-.4-.5-.7-1-1-1.5-.3-.5-.4-1-.6-1.6,0-.2-.1-.5-.2-.7-.1-.3-.2-.7-.4-1-.3-.8-.6-1.7-.8-2.5-.1-.7-.2-1.4-.2-2.2v-.3c1.6.9,2.7,2.2,3.8,3.5.5.6,1,1.2,1.6,1.8,1.2,1.2,2.2,2.5,3.1,3.9,1,1.5,1.9,3.4,1.6,5.7h0ZM440.1,214.4c0,0,0-.1-.1-.1l.3-.4h-.8c0,.1,0-.4,0-.4h-.1c0,.1,0,.1,0,0-.2-.6-.4-1.3-.6-1.9-.2-.4-.4-.9-.5-1.3-.2-.5-.4-1-.6-1.4-.7-2.1-.9-3.7-.6-5.2.2-1,.5-2,.8-2.9.1-.4.3-.8.4-1.3.2-.6.4-1.3.5-1.9v-.2c0,0,.4.3.4.3v-.6c.5-.1.7-.6.8-.9,0-.1.1-.2.2-.3,1-1.1,1.9-2.3,2.8-3.5l.3-.4c.2-.3.3-.6.4-.9,0,0,0,0,0,0h0c0,.1,0,.2,0,.3,0,.4,0,.9-.2,1.2-.9,2.3-.8,4.6-.6,6.9,0,.9.1,1.7.1,2.6,0,.8.3,1.6.6,2.3.2.5.4,1,.5,1.5.1.6.3,1.2.5,1.7.3.9.7,1.9.5,2.8-.2,1.1-.5,1.4-1.5,1.5-1.4.1-2,.8-2,2.2,0,.2,0,.3,0,.5,0,0-.1,0-.2,0-.6,0-.9,0-1.1-.4h0ZM443.4,214c0,0,.1,0,.2,0-.2.3-.4.7-.6,1,0-.5,0-.7.4-.9h0ZM446.1,207.4c-.1-.3-.2-.5-.3-.8-.2-.6-.3-1.2-.4-1.9-.1-.7-.3-1.5-.5-2.2-.8-2.2-.7-4.5-.3-6.6,0-.4,0-.8.1-1.2,0-1.2.2-2.3.9-3.2.2-.2.2-.4.2-.6h0c.1-1.2.8-1.9,2.2-2.6s1.9-.6,3.1-.6h0c2.1,0,3.5,1.3,4.8,2.7,0,0,.1.2.2.4.1.4.4.9,1,1,0,.7.2,1.4.4,2.2.3,1.2.6,2.7-.2,4-.1.2-.2.4-.2.6,0,.3-.1.7-.2,1-.1.7-.3,1.4-.5,2.1-.2.6-.6,1.1-1,1.6-.2.3-.4.5-.5.8-1,1.7-2.5,3.2-4.6,5s-1.1.8-1.8,1.1c-.4.2-.7.4-1.1.6-.3.2-.6.4-.8.6.4-1.5,0-2.8-.5-4h0ZM513.1,162.6c1.2.4,2.2,1.2,3.2,2.2,1.2,1.1,2.3,2.2,3.4,3.3.6.6,1.3,1.3,1.9,1.9.3.3.7.5,1,.8.1,0,.2.2.3.2,0,.2.1.3.2.5.2.5.4.9.7,1.4.6.9,1.3,1.9,2,2.8l.6.9c0,.1.1.2.2.3.2.4.5.9,1.2,1v.4c0,0,.2,0,.2,0h0c.2.7.3,1.2.6,1.8.7,1.2,1.4,2.4,2.1,3.6l.4.6c.2.4.5.8.8,1.2.4.6.9,1.3,1.2,1.9.5,1,1,2,1.4,2.9.3.6.5,1.2.8,1.7.2.5.5.9.7,1.4.4.8.8,1.6,1.1,2.4.3.6.4,1.3.6,2l.2.8c.3,1.1.6,2.1.8,3.2v.5c.3.5.4.9.5,1.4.3,1.6.6,3.2.9,4.7l.3,1.8c0,0,0,.2,0,.3,0,.2,0,.4,0,.5,0,.8,0,1.5,0,2.3,0,2.1,0,4.2,0,6.3,0,1.8-.4,3.7-.8,5.4-.3,1.6-.7,3.3-1.3,5.5-.4,1.6-.8,2.8-1.3,4.1-.5,1.1-1.1,2.2-1.7,3.3-.3.6-.7,1.3-1,1.9-.3.6-.5,1.1-.8,1.7-.4.9-.8,1.8-1.3,2.7-.4.8-1,1.5-1.5,2.2-.2.2-.3.4-.5.7-.5.6-1,1.2-1.4,1.8-.4.5-.8,1-1.2,1.5-.5.6-.9.9-1.6.7.1-.2.2-.4.3-.7.4-.8.8-1.7,1.4-2.4,1.2-1.6,1.3-3.5,1.4-5.2v-.2c0-1.4-.7-2.1-1.4-2.8l-.2-.2c-.2-.2-.6-.4-1-.3-.7.1-1.5.7-1.8,1.3-.4.8-.9,1.6-1.4,2.3l-.4.7c-.3.4-.5.9-.8,1.3-.5.8-1,1.5-1.4,2.3-.4.8-1,1.3-1.6,1.5.1-.4.3-.8.4-1.1.3-.7.7-1.4,1-2.1.3-.6.6-1.3.9-1.9.2-.5.4-1,.6-1.7.2-.6.3-1.2.5-1.9.1-.5.2-1,.4-1.5.3-1,.5-1.9.8-2.9l.4-1.5c0-.1,0-.2,0-.3,0-1.3.2-2.5.4-3.8.4-3.4.7-6.9.2-10.4,0-.4,0-.7-.1-1.1-.1-.8-.2-1.7-.5-2.5-.2-.8-1.1-1.5-1.7-2-.5-.4-1.5,0-1.8.4-.6.7-1.2,1.4-1.7,2.2,0,0,0,.1-.1.2v-1c0-.7,0-1.4,0-2.1,0-.5,0-1.1-.1-1.6-.1-2-.3-4.2-.7-6.2-.2-1-.6-2-1-2.9-.3-.7-.6-1.4-.8-2.1-.4-1.4-1.2-2.5-2-3.6-.3-.4-.6-.8-.9-1.2-.3-.5-.8-.9-1.3-1.2-.3-.2-.8,0-.9,0-.2,0-.5.2-.6.5-.5,1-.9,2-1.3,3l-.3.6c-.1-.1-.3-.3-.4-.6-.3-.9-.7-1.7-1.1-2.5-.2-.4-.5-.9-.7-1.4-.3-.6-.5-1.3-.7-2-.2-.6-.3-1.2-.5-1.8-.1-.6-.3-1.2-.4-1.8-.2-.9-.5-1.8-.8-2.6l-.3-1c0,0,0-.2-.1-.3,0,0,0-.1,0-.2-.1-.6-.3-1.3-.4-2-.3-1.5-.6-3-1.1-4.4-.3-1-.8-2-1.2-2.9-.2-.5-.5-.9-.7-1.4-.2-.4-.3-.8-.5-1.2-.3-.8-.6-1.6-1-2.3-.6-1-1.3-1.9-2-2.7l-.5-.6c-.2-.2-.5-.4-.7-.6,0,0,0,0,0,0-.1-.9-.8-1.4-1.4-1.8-.2-.1-.3-.2-.5-.4-.7-.6-1.4-1-2.2-1.4-.5-.2-.9-.5-1.3-.8-3.8-2.5-7.9-2.3-11.9-2.1h-.9c-.3,0-.5.2-.8.3-.1,0-.2.1-.3.1,0,0,0,0-.1,0,0,0,.1,0,.2-.1.7-.6,1.3-1.1,2.1-1.5,1-.6,2.1-1.1,3.2-1.5l.9-.4c.1,0,.4,0,.6,0h3.6c2.9,0,5.9,0,8.9,0,1.5,0,3.1.3,4.6.5.4,0,.8.1,1.2.2,1.1.1,2.1.4,3.1.6.9.2,1.7.6,2.6.9.9.4,1.7.7,2.4,1.1.4.2.8.4,1.2.7.7.4,1.4.8,2.2,1.1h0ZM536.7,256c1.1.8,2,1.5,2.8,2.3.9.9,1.8,2,2.5,3.2.4.6.6,1.3.8,2v.2c.5,1.7.8,3.3,1.1,4.6,0,.3,0,.6,0,1-.1.8-.2,1.3-.4,1.8-.4,1.3-1.2,2.5-2.4,3.4l-.4.3c-1.1.8-2.2,1.7-3.3,2.4-.5.3-1,.7-1.5,1-.6.4-1.3.8-1.9,1.2-.5.3-.8.7-1.2,1.1-.2.2-.4.5-.7.7,0,0-.2.1-.2.2-.5-.2-1-.5-1.5-.7-.2-.1-.4-.2-.6-.3-.2-.1-.5-.2-.7-.4-.4-.2-.7-.4-1.1-.5-.3-.2-.7-.4-1.1-.6-.9-.5-1.8-1-2.7-1.5-2.7-1.8-4.5-3.4-6-5.2-.5-.6-1-1.2-1.5-1.7-.6-.7-1.2-1.4-1.8-2.2-.4-.5-.6-1.1-.8-1.8,0-.2-.2-.4-.3-.7l6.4-7.6-.2.8,1.1.7.2-.2c.6-.6,1.2-1.1,1.7-1.7,1.3-1.3,2.7-2.6,4.1-4,1-1.1,1.4-1.2,2.8-.4.2.1.5.1.7.1,1.2,0,2.1.6,3.2,1.2.4.2.8.4,1.2.6.6.3,1.1.5,1.6.9h0ZM511.8,265.2s0,.2-.3.5c-.3.3-.6.6-.9,1l.8-1.6c.3,0,.4.2.4.2h0ZM522.2,232.8c.1-.4.3-.8.3-1.2v-.4c.2-.9.3-2-.5-2.9,0,0,0-.5,0-.7v-.4c0-1.8-.8-3.4-2.1-5,0,0-.1-.2-.2-.4,0,0,0-.1,0-.2l-.2-.3-1.1.2.3-.4c.5-.7,1.1-1.4,1.6-2.2.3-.5.7-1,1-1.6.2-.4.5-.9.8-1.3,0-.1.2-.2.2-.2,0,0,0,0,0,0,0,.1.2.2.3.3.6.5.6,1.2.6,1.9s0,.5,0,.7c0,.9.2,1.8.3,2.6.2,1.7.5,3.4.3,5.1,0,.8-.2,1.6-.2,2.4-.1,1.4-.2,2.8-.5,4.1-.3,1.5-.8,3.1-1.2,4.6-.2.7-.4,1.4-.6,2.1,0,.4-.2.7-.3,1.1-.2.7-.3,1.4-.6,2.1-.3.9-.8,1.7-1.2,2.5-.2.4-.4.9-.7,1.4-.1.2-.2.5-.3.8-.2.4-.3.8-.5,1.1,0,.2-.3.4-.3.4-1.6-.2-3-.4-4.3-.7,0,0-.2-.2-.3-.4,0,0,0,0,0-.1.3-.1.6-.3.9-.4,1.1-.5,2.1-1,3.1-1.5h.2c1.4-.9,3-1.8,3.1-4,0-.7.3-1.4.7-2.1.2-.4.3-.7.4-1.1,0-.2,0-.4.1-.5l.3-1.5c.2-1,.4-2,.6-3,0-.2.1-.5.2-.8h0ZM521.9,249c.4-.6.9-1.3,1.3-1.9.8-1.2,1.7-2.4,2.4-3.7.4-.7.8-1.4,1.4-2.1,1,.9.8,2,.6,3.2v.2c-.2.8-.6,1.6-1.1,2.4l-.3.5c-.4.7-.9,1.4-1.4,2.2-.1.2-.3.4-.4.6l-.4-.2c-.7-.4-1.4-.7-2.1-1.1,0,0,0-.2,0-.2h0ZM513,263.9c-.4-1.2.4-2,1.2-2.9l.2-.2c1.5-1.6,3.1-3.1,4.6-4.5.4-.3.8-.6,1.4-.8-.6.8-1.3,1.5-1.9,2.2l-.3.4c-.4.5-.9,1-1.3,1.5-.5.5-.9,1-1.4,1.6-.3.3-.6.7-.9,1-.5.5-.9,1.1-1.4,1.6,0,0-.1.1-.2.2h0ZM511.6,253.1c0-1,.4-1.9.8-3,0,0,.3-.1.4-.1.8.7,1.8.7,2.6.7.3,0,.6,0,.8,0l-2.3,4.3.9.8.3-.2c.2-.1.4-.3.6-.4.4-.3.9-.6,1.3-1,.6-.6,1.2-1.2,1.8-1.8.5-.5,1.1-1.1,1.7-1.6,0,0,.3-.1.4-.1.5.1,1.1.3,1.7.5.2,0,.3.1.5.2,0,.4,0,.7-.9,1-1.3.6-2.5,1.3-3.7,2.2-1.4,1-2.7,2.2-3.8,3.3-.7.6-1.3,1.3-2,2.1-.1.1-.3.3-.4.5,0,0,0-.1,0-.2-.2-.6-.5-1.3-.5-1.9-.1-1.7-.1-3.5,0-5.4h0ZM524.2,254.3c.2-.5.7-.9,1.2-1.2-.2.4-.6.7-.9,1-.1.1-.2.2-.3.3,0,0,0,0,0-.1h0ZM495,259.1c-.2.5-.3,1.1-.5,1.7-.1.5-.2.9-.3,1.3-.4,1.1-.8,2.1-1.2,2.9l-.3.6c-.4.9-.8,1.7-1.3,2.5-1.5,2.3-3.1,4.6-5.2,6.4-.7.6-1.3,1.2-1.8,1.9-.6.7-1.2,1.3-1.9,1.9-.5.4-1.1.6-1.8.9-.2,0-.4.1-.5.2,0-.3-.1-.5-.2-.8-.2-.9-.4-1.6-.6-2.4-.2-.6-.4-1.1-.6-1.7-.1-.4-.3-.7-.4-1.1-.1-.4-.3-.9-.4-1.3h0c.2-.2.5-.3.7-.3.8-.2,1.5-.4,2.1-.7.9-.4,1.6-.9,2.4-1.4.8-.6,1.7-1.2,2.7-2,.2-.2.3-.4.3-.6h0c.3,0,.7,0,1-.3l.3-.2c.8-.5,1.5-1.1,2-1.9.1-.2.3-.3.5-.5.4-.3,1-.7,1-1.5.1-.1.3-.2.4-.3.5-.4,1-.7,1.5-1.1.7-.7,1.4-1.4,2-2.1,0,0,0,0,0,0,0,0,0,0,0,0h0ZM496.3,257.9c-.2.1-.4.3-.5.4,0,0-.1,0-.2.1.2-.2.5-.5.7-.8,0,0,.2,0,.3,0l-.4.3h0ZM484.5,162.3c1.6.2,3.2.6,4.5,1.3,1.2.7,2.4,1.6,3.6,2.4.6.4,1.1.9,1.7,1.3.2.2.5.2.7.3h0c0,.1,0,.2.1.3.2.5.3,1,.7,1.4,1.6,1.9,2.7,3.7,3.3,5.7.2.6.5,1.1.8,1.5.1.2.2.4.4.7,0,0,0,.1,0,.2l.2,1.1c.2.7.3,1.4.5,2.2.4,1.4.7,2.7,1.1,4.1l.4,1.4c.1.5.3,1,.4,1.5.3,1.2.6,2.4,1,3.6.4,1.1.8,2.1,1.2,3.1.2.5.4,1,.6,1.5.2.4.3.8.4,1.2.3.9.6,1.9,1.2,2.7,0,.1.2.4.3.6.3.7.6,1.7,2,1.7h.3l1.9-5s0,0,.1,0c.2,0,.4.4.5.6,0,.1.1.2.2.3.8,1.2,1.6,2.5,2.2,3.9.6,1.4,1.3,3.2,1.8,5.1.2,1,.3,1.9.3,3,0,.5,0,.9,0,1.4,0,.5,0,.9.1,1.4,0,1.2.2,2.4.2,3.6,0,.4,0,.8-.2,1.2-.2-1.1-.8-2-1.3-2.9-.2-.4-.5-.7-.6-1.1-.8-1.6-1.8-2.8-3-3.7-.7-.6-1.5-1-2.3-1.5-.6-.3-1.1-.7-1.7-1.1-1.2-.9-2.6-.9-3.9-1-.4,0-.7,0-1.1,0-.2,0-.4,0-.6,0-1.1,0-2.3.3-3.4.5-.4,0-.8.2-1.2.3-1,.2-1.9.5-2.8.9-.9.4-1.8.9-2.6,1.3-.4.2-.7.4-1.1.6l-.4.2c-.3.2-.6.3-.9.5-.2,0-.4.2-.5.3-.5.2-1,.5-1.4.5-.6,0-1.2-.4-1.7-.7-.5-.3-1-.7-1.5-1-.4-.3-.8-.6-1.2-.8l-.4-.2c-1-.6-2.1-1.3-3.2-1.8-.5-.2-1-.3-1.4-.4-.5-.1-.9-.2-1.2-.4-1.9-.9-3.9-.8-5.8-.7-.7,0-1.3,0-2,0s-1.8.4-2.7.7c-.3.1-.7.3-1,.4-.8.3-1.6.5-2.4.9-.8.4-1.7.7-2.5,1.1-.6.3-1.2.5-1.8.8-.6.2-1.1.5-1.7.7h0c.2-.3.4-.7.5-1.1.2-.4.5-.9.7-1.3.4-.8.8-1.6,1.2-2.4.3-.7.6-1.4.9-2,.1-.3.2-.6.4-.9l.2-1c.2-1,.4-2,.6-3l1.2-6h0c0-.2,0-.3,0-.4,0-.6.1-1.2.2-1.9.2-1.4.3-2.8.6-4.2.2-.9.4-1.8.7-2.7.1-.4.3-.9.4-1.4.1-.4.2-.9.3-1.3.2-.8.4-1.5.6-2.3.2-.8.6-1.7.9-2.5l.2-.6c.3-.8.5-1.5.9-2.1v-.2c.9-1.8,1.7-3.7,2.6-5.6.4-.8.8-1.6,1.4-2.3.4-.5,1-.9,1.7-1.3.5-.3,1-.4,1.5-.6,2.8-.8,5.8-1,9.1-.7h0ZM476.9,274.6c.2.7.4,1.4.5,2l.2.9s0,0,0,0c0-.2-.2-.5-.3-.7-.2-.7-.5-1.4-.7-2.1,0-.3-.1-.6-.1-.9.1.3.2.5.3.8h0ZM484.4,279.9c-.5.2-1,.4-1.5.5-.5.1-.9.2-1.4.3.7-.4,1.4-.8,2.1-1.3,2.4-1.6,4.2-3.8,5.9-5.9,0,0,.1-.2.1-.2.1,0,.2-.2.3-.3,0,.1,0,.3,0,.5,0,.4.3.8.6,1,.5.2,1,.4,1.5.5.3.1.7.2,1,.3.7.2,1.3.5,2,.7l1.1.4c.2,0,.3.1.5.1l2.1.3c.8.1,1.6.3,2.4.4-.1.1-.3.3-.5.5-1,1-2.2,2.1-1.9,3.9-.2-.2-.4-.3-.6-.5-.5-.4-1-.8-1.5-1.1-.8-.5-1.7-.8-2.6-.9-1.3-.2-2.5-.2-3.7-.2s-2.4,0-3.6.3c-.8.1-1.6.4-2.3.7h0ZM430.4,221.1c-.6.2-1.3.3-2,.6-.4.1-.8.3-1.2.5-.7.3-1.3.6-1.9.6-.7,0-1.3.3-2,.5-.8.2-1.5.5-2.3.5,0,0,.2-.1.2-.1,1-.6,1.9-1.2,2.8-1.9.4-.3.6-.6.8-1,0,0,0-.1,0-.1h0c1,0,1.6-.6,2.1-1.1.2-.2.5-.5.7-.6,1-.6,1.8-1.3,2.7-1.9l.8-.6c.3-.2.6-.5.9-.7.4-.3.8-.7,1.2-.9.5-.3,1-.6,1.6-.9,0,0,.2-.1.3-.2.6,1.8,1.6,3.3,3.3,4.9h0c-.5.2-1,.4-1.4.6l-.6.2c-.8.3-1.7.6-2.5.9-.6.2-1.3.4-2,.6h-.4c-.4.2-.7.3-1.1.4h0ZM347.9,279.2c-.1.1-.3.3-.3.5-.2.6-.3,1.2-.5,1.8-.3,1.2-.6,2.5-1,3.7-.2.8-.5,1.6-.8,2.5-.1.4-.3.7-.4,1.2,0,0,0,.2-.1.3,0,.5-.1,1.1-.2,1.6-.1,1.1-.3,2.3-.6,3.4-.4,1.4-.4,2.9-.5,4.3,0,1.2,0,2.3-.3,3.4-.4,2.1-.4,4.2-.4,6.2,0,1.6,0,3.3-.2,4.9,0,.4-.1.8-.1,1.2-.2,1.5-.4,3-1,4.4-.2.5-.4,1-.5,1.6-.1.4-.2.8-.4,1.2-.5,1.3-1.2,2-2.1,2.3-1.2.4-2.3-.1-3.1-1.3-.6-.9-.9-2-1.2-3h0c0-.2,0-.3.1-.4.1-.2.2-.4.3-.7,0-.4,0-.8,0-1.1,0-.3,0-.6,0-.9,0-.6.1-1.2.2-1.9.2-1.7.3-3.5.7-5.2.3-1.5.7-3.1,1.2-4.6.2-.8.4-1.5.6-2.3.1-.4.2-.8.3-1.2.2-.8.3-1.5.6-2.2.4-.9.7-1.6.7-2.4.2,0,.4-.1.5-.3.2-.5.4-1.1.6-1.6.3-.7.5-1.5.9-2.1.3-.8.7-1.5,1.1-2.2.3-.5.5-1,.8-1.5.2-.3.3-.7.5-1,.1-.3.3-.7.4-1,.5-1,1-2,1.5-2.9,1-1.8,2-3.6,3.1-5.5,0,.4,0,.6-.3.8h0ZM364.4,290.6h.4c0-.1.1-.1.2-.1,3.9,0,7.8,0,11.8,0-.7,0-1.4.2-2.1.4-2.1.6-4.2.6-6.3.7-.9,0-1.9,0-2.9,0-1.1,0-2.2,0-3.4,0-.1,0-.3,0-.4,0,.9-.3,1.9-.6,2.8-.9h0Z"/>
      <path class="st2" d="M581.9,131.3c2-6.5,7.2-11.6,13-14.9s12.5-5.1,19-6.8c1.3-.3,2.7-.7,4-.5,5,.7,6.4,7.9,11.2,9.5,4.5-4.7,9.4-9.4,15.3-12s13.3-3.1,18.8.5,7.9,11.8,4.1,17.1c3.6.5,7.2-.1,10.8.2,8.4.9,15.7,8,16.9,16.3,1.2,8.4-4,17.2-11.8,20.3,3.4,9.9,2.9,21.4-2.6,30.3-5.5,8.9-16.4,14.5-26.7,12.7-4.8-.9-9.5-3.2-14.2-2.2-2.3.5-4.4,1.8-6.4,3-7.1,4.4-15.3,9-23.4,7-4.2-1-7.8-3.7-11.1-6.4-6.6-5.3-13-11.6-15.4-19.7s1.1-18.5,9.2-21c-9.6-9.2-12.6-24.6-7.2-36.8"/>
      <path class="st2" d="M568.9,194.5c-2.5-1.5-6-.5-7,2.3-.5,1.3-.4,2.8.3,4,.2.4.6.9.5,1.4,0,.4-.4.6-.7.9-.5.5-1,1-1.2,1.7-1.1,3.2,2.2,5.3,4.9,5.6,1.6.2,3.3.2,4.7-.6.7-.5,1.3-1.1,2-1.6.8-.6,1.7-.9,2.5-1.2,1.8-.6,3.6-1.1,5-2.4,1.2-1.1,2-2.8,1.5-4.5-.1-.4-.5-.5-.9-.4-1.5.6-2.6-.3-3.3-1.5-.5-.9-1.1-1.7-2-2.3-1.7-1-3.9-1-5.5,0-.7.4,0,1.5.6,1.1,2.1-1.4,4.6-.5,5.8,1.6.5.9,1.1,1.7,2.1,2.2s2,.4,3,0l-.9-.4c.9,3.1-3.1,4.5-5.3,5.2-1.2.4-2.4.9-3.4,1.7-1.2.9-2.2,1.9-3.8,1.9-1.3,0-2.8,0-3.9-.7s-2.2-1.9-1.8-3.2c.3-1.1,1.5-1.6,1.9-2.6.5-1.2-.3-1.9-.7-2.9-1.2-3.2,2.4-5.9,5.2-4.2.7.4,1.3-.7.6-1.1h0Z"/>
      <path class="st2" d="M554.9,217.9c-.2,2-2.3,3.3-3.2,5s-1.2,4,.7,5.1c1.7,1,3.9.6,5.4-.5s2.7-2.8,2.9-4.7c.3-2.4-.8-4.8-2.4-6.6-.5-.6-1.4.3-.9.9,1.2,1.4,2.1,3.1,2.1,4.9s-.8,3.1-2.1,4.2-3,1.5-4.4.7c-1.7-.9-.7-3.1.3-4.3,1.2-1.5,2.7-2.8,2.8-4.8,0-.8-1.2-.8-1.2,0h0Z"/>
      <g>
        <path class="st12" d="M605.5,138.4c1.5,1.6,2.9,3.4,4,5.3l.2-.2c-.7-.2-1.5-.4-2.2-.6-.4-.1-.7-.2-1.1-.3-.3,0-.6-.2-1-.2-.8,0-.5,1-.4,1.5.1.8.2,1.5.4,2.3.1.9.3,1.7.4,2.6l.2-.2c-.8,0-1.4-.5-1.8-1.1-.5-.6-.8-1.3-1.3-1.9-.2-.3-.6-.6-1-.7s-.7.2-.9.4c-.5.6-1,1.4-1.4,2.1-.5.8-1,1.7-1.3,2.6h.2c-.5-.5-.7-1.2-.7-1.9,0-.8,0-1.5,0-2.3,0-.4,0-.8-.2-1.1-.2-.4-.6-.5-1-.5-1,0-2.1,0-3.1,0s-2.3,0-3.5,0v.3c1.6-1.1,3.2-2.1,4.9-3,0,0,0-.1,0-.2-1.1-1.6-2.5-2.9-4.2-3.9v.3c.7,0,1.5,0,2.2-.1s.8,0,1.2,0c.3,0,.7,0,1,0,.2,0,.5-.2.6-.4.1-.3,0-.6,0-.9-.2-.7-.4-1.5-.5-2.2-.2-.9-.4-1.7-.6-2.6h-.3c.6.7,1.2,1.2,1.9,1.7.3.2.6.5.9.8.2.2.5.5.8.5s.5-.2.7-.4c.2-.4.3-.7.5-1.1.3-.7.6-1.4.9-2.1.3-.8.7-1.7,1-2.5h-.3c0,2,.3,4,.5,6,0,.1.2.1.3,0,1.5-1.9,3-3.8,4.5-5.8l-.3-.2c-.4,2.1-.8,4.1-1.2,6.1,0,.2.3.3.3,0,.4-2.1.8-4.1,1.2-6.1,0-.1-.2-.3-.3-.2-1.5,1.9-3,3.8-4.5,5.8h.3c-.3-1.9-.4-3.9-.5-5.9,0-.2-.2-.2-.3,0-.5,1.4-1,2.7-1.6,4-.1.3-.3.6-.4,1,0,.2-.2.3-.2.5,0,.1-.1.3-.3.4-.3.1-.6-.3-.8-.4-.3-.2-.6-.5-.9-.7-.6-.5-1.3-1.1-1.9-1.6-.1,0-.3,0-.3.1.3,1.4.7,2.8,1,4.2,0,.3.2.7.2,1,0,.3,0,.5-.4.6-.3,0-.7,0-1,0-.3,0-.7,0-1,0-.8,0-1.6,0-2.5.1-.2,0-.2.2,0,.3,1.6,1,3,2.3,4,3.8v-.2c-1.6.8-3.2,1.8-4.7,3-.1,0,0,.3,0,.3,2,0,4,0,6.1,0h.7c.2,0,.4,0,.5.3.2.3.2.7.2,1.1,0,.7,0,1.5,0,2.2,0,.8.2,1.5.8,2.1,0,0,.2,0,.2,0,.7-1.5,1.5-3,2.5-4.3.2-.3.5-.8.9-.7.3,0,.7.4.9.7.5.6.8,1.2,1.3,1.8s1.2,1.1,2,1.1c.1,0,.2-.1.2-.2-.2-1.4-.5-2.8-.7-4.2,0-.3-.1-.7-.2-1,0-.2-.2-.7.2-.7.1,0,.2,0,.4,0,.2,0,.3.1.5.1l1,.3c.8.2,1.5.4,2.3.6.1,0,.2-.1.2-.2-1.1-1.9-2.5-3.8-4-5.4-.1-.1-.3,0-.2.2h0Z"/>
        <path class="st12" d="M604.8,135l4.7-3-.2-.2c-.6,1.3-1.4,2.5-2.3,3.7-.2.3-.4.6-.7.9-.2.2-.5.5-.2.8,0,.1.3.1.4.2.2,0,.4.2.6.2.3.1.7.3,1.1.4.8.3,1.6.6,2.4.7v-.3c-1.5.1-3,0-4.5-.3-.2,0-.3.2,0,.3,1.5.4,3.1.5,4.6.3.2,0,.2-.3,0-.3-1.4-.2-2.7-.8-4-1.4,0,0-.2,0-.3-.1s0,0,0-.1c0-.1.2-.3.3-.4.2-.3.4-.5.6-.8.4-.5.8-1.1,1.2-1.6.4-.6.8-1.3,1.1-2,0-.1,0-.3-.2-.2-1.6,1-3.2,2-4.7,3-.2.1,0,.4.2.3h0Z"/>
        <path class="st14" d="M600.7,133.4c-1.2-.1-2.4.4-3.3,1.1s-1.9,1.5-2.4,2.6c-.5,1.2-.4,2.5-.3,3.7,0,.6.1,1.2.3,1.7s.6.9,1,1.3,1,.6,1.5.7c.6.2,1.3.4,2,.5,1.2.2,2.5,0,3.6-.5,1-.5,1.9-1.3,2.3-2.3s.6-2.3.5-3.4c0-.3,0-.6,0-.9s0-.6-.1-.9-.3-.4-.5-.6-.2-.5-.3-.8-.2-.5-.4-.7-.5-.3-.8-.4c-.7-.3-1.3-.6-2-.9-.3-.1-.7-.3-1-.4-.2,0-.3.2-.2.3.6.3,1.2.5,1.9.8.3.1.6.3,1,.4.3.1.5.2.8.4s.4.4.4.6c0,.2.1.5.2.7s.4.3.5.6c.1.2,0,.6.1.8,0,1.1,0,2.3-.2,3.4-.3,1.1-.8,2-1.7,2.6-.9.6-2,.9-3.1.9s-2.5-.3-3.6-.8c-.5-.2-1-.5-1.3-.9s-.5-1-.6-1.5-.1-1.1-.1-1.7,0-1.2.1-1.8.3-1.1.7-1.6.8-.9,1.2-1.2c.8-.7,1.8-1.4,3-1.6.3,0,.6,0,.8,0,.2,0,.2-.3,0-.3h0Z"/>
        <path class="st15" d="M658.4,140.1h-1.1l-3.8-.2h-.8c-.7,0-1.3,0-2,0-.8,0-1.2-.2-1.4-1-.2-1.2.4-2.1,1.6-2.6,0-1,.3-1.5,1.4-2,1.3-.6,2.4-.3,3.5.9.5-.3,1-.6,1.6-.4.5.1,1,.6,1.6,1.6.2,0,.4,0,.6,0,.6,0,1.1-.2,1.6-.2,1,0,1.7.7,1.8,1.6,0,.6,0,1.4-1.3,1.9-1.1.4-2.2.5-3.3.5h0ZM653.4,139.5h0l3.8.2h.5c1.3,0,2.6,0,3.8-.4.8-.3,1.2-.8,1.1-1.5,0-.8-.7-1.3-1.5-1.3-.5,0-1,0-1.6.1-.2,0-.5,0-.8.1h-.2c-.6-1.1-1-1.5-1.4-1.6s-.8,0-1.4.5h-.1c0,0,0,0,0,0-1-1.1-2-1.4-3.2-.9-1,.4-1.2.8-1.2,1.8h0c0,.1-.1.2-.1.2-1.2.4-1.7,1.2-1.5,2.2,0,.6.3.8,1,.7s1.3,0,2,0h.9Z"/>
        <path class="st14" d="M645.8,173.2c-.3-.1-.6-.3-.9-.4-2.4-.3-4.8-.3-7.3,0-.3,0-.5,0-.8,0,1.2-.5,2.5-.4,3.7-.6,0-.4-.1-.7-.2-1.1-.3.3-.5.5-.7.7,0,0,0,0,0,0,.3-.5.5-1.1.8-1.6,0,0-.1,0-.2-.1-.6.5-1.2,1-1.8,1.6,0,0-.1,0-.2-.1l.3-1c0,0-.1,0-.2-.1-.3.4-.7.8-1.1,1.2,0,0-.1,0-.2-.1.5-.9,1-1.8,1.5-2.7-.9-.1-1.8-.2-2.7-.4.2,1.4.5,2.9.2,4.3h-.2c-.1-1.3-.2-2.6-.4-4-.2-1.3-.5-2.6-.8-3.9,1.9-.9,3.9-.6,5.9-.6,1.4,0,2.8.2,4.2.2.5,0,.6.2.6.6.2,2.5.4,4.9.7,7.4,0,.5,0,.5-.2.8h0ZM642.1,168.2c1,0,1.1-1.1,1.9-1.5-.1.5-.2.9-.3,1.3h1.5c0-1.1-.2-2.2-.3-3.3-1.6,0-3.2-.2-4.9-.3,0,.5.2.9.3,1.3.4-.3.7-.6,1-.8,0,0,0,0,0,.1-.4.6-.7,1.2-1.1,1.8,0,0,.1,0,.2.1.3-.3.5-.6.8-.9,0,.8-.9,1.3-.8,2.1.6.1.9,0,1.2-.5.5-.8,1.1-1.6,1.7-2.4.1-.2.3-.3.4-.4,0,0,0,0,.1.1-.6,1-1.2,2.1-1.9,3.2h0ZM639.2,165.4s0,0-.2-.1c-.6.6-1.2,1.2-1.8,1.7,0-.9.3-1.7.8-2.5,0,0,0,0,.2,0-.2.5-.3.9-.5,1.4h.1c.6-.4,1.2-1,1.8-1.5,0,0,0-.1,0-.1-1.5,0-3-.3-4.4.6.2.9.4,1.8.6,2.6,0,.1.2.3.3.3.6.1,1.2.2,1.7.3.5-1,1-1.9,1.5-2.8h0ZM645.3,168.4c-.6,0-1,0-1.5,0-.2,0-.4,0-.4.2-.4.8-.8,1.5-1.2,2.3,0,0,.2.1.2.2.5-.6,1.1-1.2,1.6-1.8,0,0,.1,0,.2.1-.1.6-.2,1.2-.3,1.9.2,0,.3,0,.5,0,0,0,0,0,0,.1-.4.3-.8.6-1.2.9,0,0,0,.1.1.2.7,0,1.4.1,2.2.2-.1-1.4-.2-2.8-.3-4.2h0ZM641.6,172c0,0-.1-.1-.2-.1.5-1.1,1.1-2.2,1.7-3.3,0,0,0,0-.1-.1-.2,0-.4.1-.5.3-.5.6-1,1.1-1.5,1.7-.1.1-.2.4-.2.6,0,.4.2.9.2,1.3h2.1c.3-.8.5-1.5.8-2.3,0,0-.1,0-.2,0-.7.7-1.4,1.4-2.1,2h0ZM638.3,167.7c0,0,.1,0,.2.1.3-.4.7-.7,1-1.1.6-.6.6-.7.2-1.5-.5.8-.9,1.6-1.4,2.4h0ZM640.1,168.6c0,0-.1,0-.2,0-.4.7-.8,1.4-1.2,2.1,0,0,0,0,.2,0,1.2-.8,1.5-1.2,1.2-2.1h0ZM638.4,168.2c.6.1,1.4-.7,1.5-1.5-.5.5-1,1-1.5,1.5ZM638.3,169.7c0,0,.1,0,.2.1.3-.4.6-.8.9-1.2,0,0-.1-.1-.2-.2-.3.4-.6.8-.8,1.2h0Z"/>
        <path class="st14" d="M617.9,164.8c2.6-1.1,5.3-.5,8-.4.7,0,1.4,0,2.2,0s.5.1.5.5c.2,2.5.4,5,.6,7.5,0,.3,0,.6,0,.9-.7-.7-1.5-.6-2.2-.6-2,0-4,.1-6,.2-.2,0-.5,0-.7,0,0,0,0-.2,0-.3,1.2-.1,2.4-.3,3.7-.4,0-.6-.2-1.2-.3-1.9-.4.4-.7.7-1.2,1.1,0-1.1,1.2-1.7,1-2.8-.7-.2-1.2,0-1.4.6-.2.5-.4,1-.6,1.5,0,.2-.3.4-.4.6,0,0-.1,0-.2-.1.4-.8.8-1.7,1.2-2.5-.5-.2-.7,0-.9.4-.2.6-.5,1.1-.8,1.6,0,0-.1,0-.2,0,.3-.6.5-1.3.8-2-.6,0-1.2-.2-1.8-.3.1,1.5.5,2.9,0,4.4,0-2.7-.7-5.3-1.2-7.9h0ZM623.1,166.8c-.2.5-.3,1-.5,1.5h.8c0-.5-.2-1-.2-1.5v-.6s0,0-.2,0c-.5.7-1,1.4-1.4,2.1.5.2.7,0,.9-.3.2-.4.5-.7.7-1.1h0ZM628.1,164.8c-1.6,0-3.2-.2-4.8-.3,0,.4.1.8.2,1.3.2-.1.3-.2.4-.3-.6.9-.2,1.8,0,2.8.8-.8,1.2-1.9,1.7-2.8,0,0,.1,0,.2.1-.4.9-.9,1.7-1.4,2.7,1.3-.2,1.7-1.8,2.9-2.2-.2.7-.4,1.4-.6,2h1.8c0-1.1-.2-2.2-.3-3.3h0ZM626.9,171.2c-.5-.8.2-1.4.2-2.1,0,0,0,0-.2-.1-.8.9-1.6,1.9-2.4,2.8,0,0-.1,0-.2-.1.6-1.1,1.1-2.2,1.7-3.2,0,0,0-.1-.1-.2-.4.1-.8.2-1.1.4-.8.6-1.2,1.4-.8,2.4,0,.2.1.4.1.7,0,.4.2.5.5.5.9,0,1.8,0,2.7.1.5,0,.9,0,1.5.2-.1-1.5-.2-2.9-.4-4.4-.3.2-.6.2-.7.3-.3.8-.6,1.7-.9,2.7h0ZM621.5,165.6c0,0-.1,0-.2-.1-.6.7-1.2,1.4-1.8,2.2,0,0-.1-.1-.2-.1.6-.9,1.2-1.9,1.9-2.9,0,.1.1.3.2.4.2-.2.5-.3.7-.4,0,0,.1,0,.2.1-.5,1.1-1,2.2-1.6,3.5.4-.1.7,0,.8-.2.6-.7,1.1-1.5,1.6-2.3.3-.4,0-1.3-.4-1.3-1.4,0-2.8-.2-4.2.6.2.9.3,1.8.6,2.7,0,.2.5.3.8.4.2,0,.5,0,.6-.1.4-.7.8-1.5,1.2-2.3h0ZM625.6,170.2c.6-.6,1.2-1.1,1.8-1.7-.9-.3-1.3.1-1.8,1.7ZM625.4,168.1c1,.1,1.2-.2,1.3-1.4-.5.5-.9.9-1.3,1.4Z"/>
        <path d="M658.3,154.1c-1,0-1.7.6-2.3,1.3-.5.6-.8,1.2-1.2,1.9-.3.6-.3,1.2-.1,1.9.2.9.3,1.9.3,2.9,0,.4-.2.8-.3,1.1-.7,1.5,0,2.9,1.5,3.4.1,0,.2,0,.4.2-.2.1-.4.2-.5.2-.8.3-1.2.9-1.3,1.6-.5,2.6,1.1,5.1,3.7,5.5,1.8.3,3.3-.5,4.4-1.9.3-.4.5-.8.9-1.3,0,1.2-2,3.1-3.6,3.5-2.2.5-4.1-.4-5-2.4-.8-1.8-1-4.1.7-5.2-.7-.4-1.4-1-1.5-1.9,0-.5,0-1.1.1-1.5.5-1.2.5-2.4.2-3.6-.6-2.5.9-5.1,3.3-5.8,0,0,.1,0,.2,0v-.2c-.3-2.2.8-3.6,2.8-4.5.4-.2.8-.4,1.2-.6,1.3-.5,2.2-1.4,2.9-2.7.3-.6.6-1.1,1-1.7.9-1.2,2.2-1.5,3.5-.9,1,.4,1.7,1.2,2.2,2.1.1.2.4.4.6.5,2.3.3,4.2,1.5,5.5,3.4,1,1.4.8,2.6-.5,4.1,1.5.8,1.6,2.1,1.4,3.5-.2,1.5-.8,2.9-1.7,4-.5.7-1.2,1.2-1.9,1.8,1,1.1,1,2.3,0,3.6-.9,1.2-2,2.1-3.6,2-.3,0-.6-.2-.9-.3,0,0,0-.1,0-.2,0,0,.2,0,.3,0,1.1.4,2.2.1,3-.7.6-.6,1.1-1.3,1.5-2.1.5-1,0-1.8-.9-2.4-.2,0-.3-.2-.5-.3,2.7-.5,3.5-2.5,4.2-4.6.2-.5.2-1.1.3-1.6,0-1.5-.3-2-1.9-2.7.3-.2.6-.3.8-.5.9-1,1.2-2,.4-3.1-1.4-2-3.2-3.5-5.8-3.7-.2,0-.4-.2-.5-.4-.7-1.3-1.6-2.3-3.2-2.4-.9-.1-1.7.3-2.2,1-.5.6-.9,1.3-1.2,2-.5,1-1.3,1.7-2.3,2.2-.7.3-1.4.7-2.1,1.1-1.6.9-2.5,2.2-2.2,4.1,0,.1,0,.2,0,.4s0,0,0,.1h0Z"/>
        <path d="M604.1,185.9c.7,0,1.5,0,2.2,0,.5,0,1.1.1,1.7.2-.5.8-1.2.4-1.8.7.9.2,1.8.3,2.7.5,0,0,0,0,0,.1-.2,0-.3,0-.5,0-.6,0-1.1,0-1.7.1-1.4.1-2.8.3-4.2.3-1.3,0-2.6,0-3.9-.1-.2,0-.3,0-.4-.1,2.7-.1,5.3.4,8-.3h-2.5c0-.1,2.8-.1,2.8-.1v-.2c-1.7-.1-3.3-.4-5-.4-1.7,0-3.4.3-5.1.4,0,0,0-.1,0-.2,2-.2,4-.4,6.1-.6.2-.8-.3-1.5-.9-2-.8-.6-1.6-1.1-2.4-1.7-.7,1.2-1.7,1.6-2.7,1.1-.6-.3-.7-1-.2-1.8.5-.9,1-1.2,1.6-.8.8-.9,2.2-.6,2.5.6.1.4,0,.6-.4.7-.2,0-.3,0-.6,0,1.3,1.2,3.2,1.6,3.6,3.6,0-2.4.3-4.7,2.3-6.3,0-.5-.2-1,0-1.4,0-.3.5-.6.8-.8,0,0,.5.4.7.6.8-.5,1.2-.5,1.6,0,.4.5.2.9-.2,1.3.6.2.6.6.3,1.1-.3.6-.9.9-1.5.7-.5-.2-.8-.7-.7-1.2,0-.2.2-.7-.4-.4.1-.4.4-.3.7-.1h0c-.4.5,0,.6.4.8-.2,0-.3,0-.4.1,0,0,0,.1,0,.2.3.2.6.6.9.5.3,0,.7-.4.9-.7.1-.1,0-.4,0-.6-.2,0-.4,0-.6,0-.1,0-.2,0-.5,0,.4-.6,1.5-.8.9-1.5-.6-.8-1.2,0-1.9.3,0-.2,0-.3,0-.4,0-.2-.1-.3-.2-.5-.2.1-.4.2-.5.4-.3.5-.2,1.1.3,1.6-2.2,1.3-2.5,3.4-2.7,5.6,0,.2,0,.4,0,.6,0,.2-.2.4-.2.6,1.4.4,2.8.2,4.2-.2-.3-.2-1.5-.2-1.8,0-.3.2-.9,0-1.2-.3h0s0,0,0,0ZM597.2,182.5s0,0,.2,0c.2-.3.3-.6.4-.9,0-.1,0-.4-.2-.5,0,0-.3-.1-.4,0-.6.4-1,.9-1,1.6,0,.3.2.7.5.8.6.4,1.2.3,1.7-.2.3-.3.4-.7.7-1.2.2,0,.5,0,.9,0,.1,0,.2-.2.3-.4-.1,0-.4-.3-.4-.3-.4.4-.7,0-1.1-.1-.3,1.3-.8,1.2-1.9,1.6-.1-.2-.2-.5-.4-.9.2-.1.5-.3,1-.6,0,.4-.1.7-.2,1h0ZM599.8,181.3c-.5-.6-1-.8-1.4-.6-.4.2-.4.4,0,1.4,0-.4.1-.7.2-1.1.4,0,.8.2,1.3.2h0Z"/>
        <path class="st12" d="M657.4,162.4c.3,0,.6,0,.8,0,.7,0,1.1.2,1.3.9.2.9,0,1.7-.8,2-.5.2-1.1,0-1.5-.6-.4-.6-.3-1.8.2-2.4h0ZM658.4,163.7c0,.3-.2.6-.3.9.1,0,.2,0,.3,0,0-.3,0-.6.1-.9,0,0,0,0-.1,0h0Z"/>
        <path d="M671.2,184.5c-.2-1.2-.6-2.3-.7-3.5-.4-3.1-.7-6.2-1-9.3,0-.7,0-1.4-.3-2-.3-1.2,0-2.4.5-3.5.7-1.6,1.3-3.2,2-4.9,0-.1.1-.2.2-.2,0,0,.1,0,.2,0-.2.5-.4,1-.6,1.4-.7,1.6-1.4,3.3-2,4.9-.2.5-.2,1.2-.1,1.7.2,2.2.5,4.3.7,6.5.2,2.8.5,5.5,1.3,8.2,0,.2,0,.3.1.5,0,0-.2,0-.2,0Z"/>
        <path class="st12" d="M674.3,158.2c0-1.2,1.1-2,2-1.5.5.3.9,1.1.8,1.9,0,.7-.6,1.4-1.2,1.4-.5,0-.8,0-1-.5-.2-.4-.3-.8-.5-1.3h0ZM676.4,157.3c0-.6-.5-.4-.9-.4-.5,0-.8.6-.8,1.3.4-.9,1-1.3,1.7-.9.2.6.3,1.2-.1,1.7-.2.3-.6.4-.9.6.4.2.8.1,1.2-.4.5-.6.4-1.4-.2-1.9h0ZM676.1,158.5c-.2-.4-.3-.6-.4-.8,0,0-.1,0-.2,0,0,.2-.1.5-.2.7.2,0,.4,0,.8,0h0Z"/>
        <path class="st12" d="M666.7,152.4c0,.4,0,.7,0,1,.5-.2.9-.4,1.4-.5.7,0,1,.4.8,1.1-.2.7-.8,1.1-1.5,1.3-.2,0-.4,0-.5-.1-.4-.4-.6-2.1-.2-2.8h0ZM667.1,154.7c0-.4.2-.8.3-1.3-.7.5-.8.9-.3,1.3Z"/>
        <path d="M665.6,187.5c0-.9-.3-1.7-.3-2.6,0-2.1-.1-4.1-.1-6.2,0-2.6,0-5.2-.5-7.7-.1-.5-.3-1-.4-1.5,0,0,0,0,.2-.1.2.8.4,1.5.6,2.2.5,2.8.3,5.7.4,8.6,0,2.2.2,4.4.3,6.6,0,.2,0,.5,0,.7h-.2,0Z"/>
        <path d="M604.1,185.9c0,0-.2,0-.3.1.7-1.3,3.6-2.8,5-2.6,0-.2.1-.5.2-.7.3-.7,1-.9,1.6-.4,0,0,.2.2.3.2.7.2.8.3.7,1.1,1,.4,1.1,1.1.3,1.9-.1.1-.2.4-.3.5-.2.2-.4.4-.6.4-.8,0-1.7-1.1-1.5-1.8.3.4.6.9.9,1.4.2.2.5.2.8.2s.2-.4.3-.7c.5,0,.8-.5.7-1.1,0-.2-.4-.5-.7-.7h-.2c0,0,0-.2.1-.4,0-.2,0-.4,0-.5-.5-.3-.9-.5-1.4-.7-.2,0-.6.3-.7.5-.1.2,0,.6,0,.8,0,.2.3.3.5.5h0c-.2,0-.3,0-.4-.1-.5-.6-1.1-.6-1.8-.4-1.4.4-2.4,1.3-3.5,2.2h0s0,0,0,0Z"/>
        <path class="st12" d="M669.8,147.8c.4-.5.8-.5,1.2-.1.4.3.5,1,.3,1.4-.2.5-.7.8-1.1.6-.3,0-.7-.6-.7-.9-.1-.5,0-1.1,0-1.6h.2c0,.2,0,.3,0,.6h0Z"/>
        <path class="st12" d="M660.7,152.3c.4-.2.7-.5,1-.6.5-.2.8,0,1,.6.2,1-.7,2.1-1.7,2-.5,0-.9-.5-.8-1.1,0-.4.1-.8.2-1.4.2.3.2.5.3.6h0ZM662.1,153.6c.2-.3.3-.5.4-.8.1-.5-.3-1-.6-.9-.4.2-.8.6-1,.9-.2.2.3.7.6.7,0,0,.2-.1.2-.2,0,0,0-.2-.2-.2-.2-.1-.3-.2-.5-.4.4-.2.8-.4,1.1-.5.7.5-.4.8,0,1.4h0Z"/>
        <path class="st12" d="M667.3,164.2c.2,0,.3-.1.4-.2.2-.1.6-.4.7-.3.3.2.6.5.7.8.2.5-.3,1.2-.8,1.5-.4.2-.8,0-1-.5,0-.2-.1-.5-.1-.7s0-.4,0-.6h0Z"/>
        <path d="M658.6,171.5c.2.4.4.6.6.9,0,0,0,0,.2-.1,0,0-.1-.2-.2-.3-.4-.5-.4-1-.1-1.5,0-.2.6-.4.7-.3.3.2.7.6.8.9.2.5-.3,1.3-.9,1.4-.6.2-1.1-.3-1.1-1.1h0Z"/>
        <path class="st16" d="M666.7,168.4c-1.5-1.3-4.3-7.1-4.1-8.3,1,3,2.5,5.7,4.1,8.3Z"/>
        <path class="st16" d="M670.6,161.3c0-1.3,3.7-6.5,4.9-6.9-2,2.1-3.5,4.5-4.9,6.9Z"/>
        <path class="st16" d="M664.6,163.5c1.2-2.5,2.7-4.9,4.2-7.3,0,0,.1,0,.2.1-1.4,2.4-2.8,4.8-4.2,7.2,0,0,0,0-.2,0h0Z"/>
        <path class="st16" d="M659.7,160.5c-.1-.6-.7-.6-1.1-.8-.4-.1-.9-.2-1.3-.4v-.3c.9.2,1.7.5,2.5.7.2-.8.3-1.7.5-2.6,0,0,.1,0,.2,0-.1.8-.2,1.5-.4,2.2,0,.3,0,.5.3.6.4.2.8.5,1.2.9-.7.2-1.1-.9-1.8-.5h0Z"/>
        <path class="st16" d="M666.8,158.3c-.6-.4-2.8-5.4-2.7-6.2.9,2.1,1.8,4.1,2.7,6.2Z"/>
        <path class="st16" d="M669.3,151.7c1.7.9,2.7,2.5,3.8,3.9,0,0,0,0-.1.1l-3.7-4h0Z"/>
        <path class="st16" d="M662.2,167.8c-.5-.8-1-1.6-1.6-2.4,0,0,0,0,.2-.3.8,1.7,2.1,3,3.5,4.2,0,0-.1.1-.2.2-.6-.6-1.2-1.1-1.9-1.7h0Z"/>
        <path class="st16" d="M668.1,160c.9.9,1.8,1.8,2.7,2.6,0,0-.1.1-.2.2-.9-.9-1.8-1.8-2.7-2.6,0,0,.1-.1.2-.2Z"/>
        <path class="st16" d="M662.2,167.8c0,0,0,.2-.2.2-.9.4-1.9.8-2.8,1.2-.2,0-.4,0-.5.1,0,0,0-.1,0-.2.2-.1.5-.2.7-.4.7-.3,1.5-.7,2.2-1,.2,0,.5,0,.7,0h0s0,0,0,0Z"/>
        <path d="M610.1,184.3c.1.2.3.3.4.5.1.2.2.4.4.6h0c0,.1,0,.3,0,.4,0,0-.1,0-.2,0-.2-.5-.4-1.1-.6-1.6h0Z"/>
        <path d="M610.8,185.4c0-.2-.1-.5-.2-.9.2.3.3.4.4.6,0-.2.1-.4.2-.5,0,0,0,0,.2,0,0,.3,0,.6-.1.9-.2,0-.3,0-.5,0h0s0,0,0,0Z"/>
        <path d="M610.1,184.3c-.2-.4-.4-.8-.6-1.4.4.2.6.4.9.6h-.3v.8h0Z"/>
        <path d="M606.5,179.4c.2-.3.4-.7.6-1,0,0,.2,0,.3,0,0,.2,0,.4,0,.5-.2.2-.5.3-.8.4h0Z"/>
        <path class="st13" d="M626.3,140.3s0,0-.1,0c-2.6,2.7-5.2,5.4-7.8,8.1-2.2,2.3-4.2,4.9-5.7,7.7-.4.8-.8,1.6-1.2,2.5,0,0,0,0,.2,0,.3-.3.5-.6.8-.8,1.4-1.8,2.9-3.5,4.2-5.3,2-2.7,4.5-5.1,6.8-7.6,1.2-1.4,2.1-2.9,3-4.5h0Z"/>
        <path class="st13" d="M650.8,158.4c0,0-.1-.1-.2-.2l.2.2h0Z"/>
        <path class="st13" d="M650.6,159.2s0,0,0,0c-.6.3-1.2.6-1.9,1,0-.5.2-.9.2-1.3-.6.4-1.1.7-1.6,1,0,0,0-.1,0-.1.2-.4.4-.9.7-1.5-1,.5-1.6,1.2-2.7,1.4.2-.4.2-.6.4-.9-.2.1-.4.3-.6.4,0,0,0,0-.1-.1.5-.7.9-1.4,1.4-2.1-1.1.6-1.8,1.7-3,2.2,0,0-.1-.1-.2-.2.3-.7.7-1.4,1-2.1-.9.9-1.8,1.8-2.8,2.6,0,0-.2-.1-.2-.2.9-1.5,1.8-3,2.7-4.4,0,0,0,0-.1,0-.3.4-.6.8-.9,1.1-.9,1-1.7,2-2.6,2.9-.1.1-.4.2-.6.3.8-2.3,2.8-3.8,3.5-6.2-1.2.8-2,1.8-2.7,2.8-.6.9-1.3,1.8-1.9,2.6-.1.2-.3.3-.5.4,0-1.1.5-2,1-2.9.6-.9,1.2-1.7,1.7-2.6,0,0-.1,0-.2-.1-1.4,2-2.8,3.9-4.2,5.9,0,0-.2-.1-.2-.2,1.6-2.8,3.7-5.3,5.3-8.2-.2,0-.5.2-.7.3-1.5.9-2.5,2.3-3.5,3.7-.8,1.1-1.8,2.1-2.7,3.2-.2.2-.5.3-.7.5h-.1c.5-2,1.7-3.5,2.7-5.1-1.8,2-3.3,4.3-5.2,6.2.8-1.6,1.8-3.1,2.8-4.5,1-1.5,2-3,3-4.4h-.2c-1,1-2,2.1-3,3.3-1.4,1.6-2.8,3.2-4.2,4.9-.2.2-.4.3-.6.4,0,0,0-.1-.1-.1,2.1-3.1,4.2-6.2,6.4-9.4-.9.7-1.8,1.5-2.5,2.3-2.2,2.5-4.3,5.1-6.5,7.6-.2.2-.4.4-.6.7l-.2-.2c2.6-3.9,5.8-7.5,8.3-11.5-.2,0-.4.2-.5.4-3.5,3.3-7,6.5-10,10.2,0,.1-.3.2-.4.3h-.1c.3-.7.6-1.2.9-1.7.8-1.3,1.6-2.6,2.4-3.9,0,0,.1,0,.2-.1,1.2-1.6,2.4-3.3,3.6-4.9,0,0,0-.1,0-.2-.4.3-.7.6-.9,1-1,1.4-2,2.8-3,4.2-.2.3-.5.6-.8,1-1.5,2.1-3.2,4.1-5.4,5.5-.2.1-.4.2-.7.3,2.1-2.6,4.1-5,6-7.4,2.3-3,4.8-7.2,4.9-8.1-1.8,1.8-3.6,3.4-5.2,5.1-3,3.1-6,6.3-9,9.4-.2.2-.3.3-.5.4,0,0,0,0-.1,0,0-.2,0-.5.2-.7.5-.9,1-2,1.7-2.8,2.2-2.8,4.4-5.4,6.6-8.1.1-.1.2-.3.3-.4-1.3,1.3-2.6,2.7-3.8,4.1-1.9,2.1-3.8,4.3-5.8,6.4-.2.2-.4.3-.6.5,0,0,0-.1-.2-.2,1.8-3.9,4.6-7.1,7.2-10.5-.2.1-.3.3-.5.5-1.5,1.8-3,3.7-4.5,5.5-1.5,1.8-3.1,3.6-4.6,5.3-.1.1-.3.2-.5.3,0,0,0,0-.1-.1,0-.3.2-.5.3-.8,1-2.6,2.4-4.8,4.1-7,3.5-4.5,7.8-8.4,11.8-12.6.1-.1.4-.1.6-.2,0,0,0,.1.2.2-.4.8-.6,1.6-1.1,2.3-2,2.7-4,5.3-6.1,7.9-1.9,2.4-3.8,4.7-5.3,7.4,0,.1-.1.3-.2.4.2,0,.2,0,.3-.2,1.6-1.8,3.2-3.5,4.7-5.3,3-3.4,6-6.8,9.5-9.7.2-.1.4-.2.6-.4,0,0,0,.1,0,.1,0,0-.1.2-.2.2-4.6,4.4-8.3,9.6-12.4,14.5-.6.7-1,1.5-1.5,2.2,0,0,0,0,.2.1,5-4.9,9.3-10.4,14.9-14.7,0,.2,0,.4,0,.6-.7,1.2-1.3,2.5-2,3.7-.5.9-1.1,1.8-1.6,2.7,0,0-.2.1-.2.2-1.3,1.8-2.7,3.5-4,5.3-.5.6-1,1.1-1.4,1.7,0,0,.2.1.2.2.2-.2.3-.5.5-.7,1.2-1.5,2.4-3,3.6-4.6.5-.7.9-1.4,1.4-2.1.2-.2.3-.4.5-.5,1.3-1.5,2.7-2.9,4-4.4.2-.2.5-.3.7-.5,0,0,.1.1.2.2-2.8,3.7-5.8,7.2-8.1,11.3,3.4-3.7,7.1-7,10.8-10.3-1,2.2-2.5,4.1-3.9,6.1.2-.1.3-.3.5-.4,1.6-1.5,3.2-3.1,4.9-4.6.2-.1.4-.2.6-.3v.2c-2.1,2.5-3.9,5.2-5.7,8,.3-.3.6-.6.8-.9,1.5-1.9,3-3.8,4.9-5.4.2-.1.4-.2.6-.3,0,0,.1.1.2.2l-3.2,5c.6-.7,1.2-1.4,1.8-2.1.6-.7,1.1-1.5,1.8-2,0,0,.2.1.2.2-1.5,2.3-3,4.6-4.5,7l.2.2c.2-.2.4-.4.6-.7.8-1,1.5-1.9,2.2-2.9,1.1-1.5,2.4-2.9,4.2-3.7.2,0,.3-.1.5-.2,0,0,0,0,.1.1-.2.3-.4.7-.5,1-.2.3-.4.6-.7,1,.4-.3.6-.4.9-.6l.2.2c-1.2,1.9-2.4,3.8-3.7,5.7,0,0,.1,0,.2.1,1.5-1.8,2.4-4.2,4.9-5.3-.3,2.4-2.1,3.9-3.1,5.8,1.6-1.4,2.5-3.4,4.2-4.6-.4,1.7-1.5,3-2.2,4.5.8-.8,1.5-1.7,2.3-2.5l.3.2c-.4.9-.7,1.7-1.1,2.6,1-.8,1.9-1.6,2.7-2.4.6.7.3,1.2,0,1.7-.2.4-.4.8-.7,1.3.9-.4,1.5-1.1,2.5-1.3-.2.5-.3.9-.5,1.4.5-.3.9-.6,1.5-.9,0,.6-.2.9-.3,1.4.7-.3,1.2-.6,1.8-.8,0,0,0-.1,0-.2l-.2-.2s0,0,0,0h-.3.3c-2.4-2.4-4.8-4.8-7.2-7.2-.2-.2-.5-.2-.6-.3-.2-.3-.3-.6-.5-.8-1.4-1.3-2.8-2.5-4.2-3.7-3.2-2.8-6.4-5.5-9.6-8.3-.5-.4-.8-.4-1.3-.1-2.3,1.4-4,3.3-5.7,5.3-1.7,2.1-3.3,4.2-5.1,6.3-3,3.4-5.8,6.8-8.2,10.6-.2.2-.3.5-.5.8,1.4,0,2.7,0,4,0,.5,0,1-.2,1.6-.2,1.7,0,3.3.3,5,.2,2.3,0,4.6-.2,6.9-.3,4.8-.1,9.7-.2,14.5-.2,2.7,0,5.5.1,8.2.2.6,0,1.2.2,1.8.3-.1,0-.2-.1-.4-.2.1,0,.3.1.4.2,0,0,.1,0,.2,0,.3-.5.5-1,.8-1.5h0Z"/>
        <path class="st13" d="M641,187.8c0-1.4,0-2.7-.2-4-.3-2.4-.6-4.9-.9-7.4,0-.4-.3-.4-.5-.5-1.9-.6-3.9-.4-5.8-.2-1.9.2-3.8.3-5.6.4.3,3.7.7,7.6,1.1,11.4,4.1,0,8,.1,12.1.2h0Z"/>
        <path class="st13" d="M642.7,149.7c.5-2.4,1.1-4.8,1.6-7,1,.1,1.8.2,2.7.4,0-.5,0-.9,0-1.2,0-.9-.2-1.3-1.1-1.6-2.2-.7-4.4-.4-6.6-.3,0,.8-.1,1.5-.2,2.3.8.2,1.5.4,2.3.5.3,0,.4.1.4.5-.3,1.6-.5,3.1-.8,4.6,0,.1,0,.4,0,.4.5.5,1,.9,1.5,1.4h0Z"/>
        <path class="st12" d="M650.9,158.4s0,.1,0,.2c-.6.3-1.1.5-1.8.8,0-.4.2-.8.3-1.4-.6.3-1,.6-1.5.9.2-.5.3-.9.5-1.4-1,.2-1.6.9-2.5,1.3.3-.5.5-.9.7-1.3.3-.5.6-1,0-1.7-.9.7-1.8,1.5-2.7,2.4.4-.9.8-1.8,1.1-2.6l-.3-.2c-.8.8-1.5,1.7-2.3,2.5.7-1.5,1.8-2.8,2.2-4.5-1.8,1.2-2.7,3.2-4.2,4.6,1-1.9,2.8-3.4,3.1-5.8-2.5,1.1-3.4,3.5-4.9,5.3,0,0-.1,0-.2-.1,1.2-1.9,2.4-3.8,3.7-5.7l-.2-.2c-.2.2-.5.3-.9.6.3-.4.5-.7.7-1,.2-.3.4-.6.5-1,0,0,0,0-.1-.1-.2,0-.4.1-.5.2-1.8.8-3,2.2-4.2,3.7-.7,1-1.5,2-2.2,2.9-.2.2-.4.4-.6.7l-.2-.2c1.5-2.3,3-4.6,4.5-7,0,0-.2-.1-.2-.2-.8.5-1.2,1.3-1.8,2-.6.7-1.1,1.4-1.8,2.1l3.2-5c0,0-.1-.1-.2-.2-.2.1-.4.2-.6.3-1.9,1.6-3.4,3.5-4.9,5.4-.2.3-.5.6-.8.9,1.8-2.8,3.5-5.6,5.8-8v-.2c-.3.1-.5.2-.7.3-1.6,1.5-3.3,3-4.9,4.6-.2.1-.3.3-.5.4,1.3-2,2.8-3.9,3.9-6.1-3.7,3.3-7.4,6.6-10.8,10.3,2.3-4,5.2-7.6,8.1-11.3,0,0-.1-.1-.2-.2-.2.2-.5.3-.7.5-1.3,1.5-2.7,2.9-4,4.4-.2.2-.3.4-.5.5-.5.7-.9,1.4-1.4,2.1-1.2,1.5-2.4,3.1-3.6,4.6-.2.2-.3.5-.5.7,0,0-.2-.1-.2-.2.5-.6,1-1.1,1.4-1.7,1.3-1.8,2.7-3.5,4-5.3,0,0,.2-.1.2-.2.5-.9,1.1-1.8,1.6-2.7.7-1.2,1.4-2.5,2-3.7,0-.2.1-.4,0-.6-5.6,4.3-10,9.8-14.9,14.7,0,0,0,0-.2-.1.5-.8.9-1.6,1.5-2.2,4.1-4.9,7.8-10.1,12.4-14.5,0,0,.1-.1.2-.2,0,0,0-.1,0-.1-.2.1-.4.2-.6.4-3.4,3-6.5,6.3-9.5,9.7-1.6,1.8-3.2,3.6-4.7,5.3,0,0-.2.1-.3.2,0-.1,0-.3.2-.4,1.5-2.6,3.5-5,5.3-7.4,2.1-2.6,4.1-5.3,6.1-7.9.5-.7.8-1.5,1.1-2.3,0,0,0-.1-.2-.2-.2,0-.5,0-.6.2-3.9,4.2-8.2,8-11.8,12.6-1.7,2.1-3.1,4.4-4.1,7,0,.3-.2.5-.3.8,0,0,0,0,.1.1.2-.1.4-.2.5-.3,1.5-1.8,3.1-3.5,4.6-5.3s3-3.6,4.5-5.5c.1-.2.2-.4.5-.5-2.6,3.4-5.4,6.6-7.2,10.5,0,0,0,.1.2.2.2-.2.4-.3.6-.5,1.9-2.1,3.9-4.3,5.8-6.4,1.2-1.4,2.5-2.8,3.8-4.1,0,.1-.2.3-.3.4-2.2,2.7-4.5,5.4-6.6,8.1-.7.9-1.2,1.9-1.7,2.8-.1.2-.1.4-.2.7,0,0,0,0,.1,0,.2-.1.4-.3.5-.4,3-3.1,6-6.3,9-9.4,1.7-1.7,3.4-3.3,5.2-5.1-.1,1-2.6,5.2-4.9,8.1-1.9,2.5-4,4.9-6,7.4.3-.1.5-.2.7-.3,2.2-1.5,3.8-3.4,5.4-5.5.2-.3.5-.6.8-1,1-1.4,2-2.8,3-4.2.3-.4.6-.7.9-1,0,0,0,.1,0,.2-1.2,1.6-2.4,3.3-3.6,4.9,0,0-.1.1-.2.1-.8,1.3-1.6,2.6-2.4,3.9-.3.5-.6,1.1-.9,1.6h.1c.1,0,.3,0,.4-.1,3-3.7,6.5-6.9,10-10.2.2-.1.3-.3.5-.4-2.5,4-5.7,7.6-8.3,11.5l.2.2c.2-.2.4-.4.6-.7,2.2-2.5,4.3-5.1,6.5-7.6.8-.9,1.6-1.6,2.5-2.3-2.1,3.1-4.2,6.2-6.4,9.4,0,0,0,.1.1.1.2-.1.4-.2.6-.4,1.4-1.6,2.8-3.2,4.2-4.9,1-1.1,2-2.3,3-3.4h.2c-1,1.6-2,3.1-3,4.6-1,1.5-2,2.9-2.8,4.5,1.9-1.9,3.4-4.1,5.2-6.2-1,1.6-2.2,3.1-2.7,5h.1c.2,0,.5-.1.7-.3.9-1.1,1.8-2.1,2.7-3.2,1-1.4,2-2.8,3.5-3.7.2-.1.4-.2.7-.3-1.6,2.9-3.7,5.4-5.3,8.2,0,0,.2.1.2.2,1.4-2,2.8-3.9,4.2-5.9,0,0,.1,0,.2.1-.6.9-1.2,1.7-1.7,2.6-.5.9-1,1.7-1,2.9.2-.1.4-.2.5-.4.7-.9,1.3-1.7,1.9-2.6.7-1,1.5-2,2.7-2.8-.7,2.4-2.7,4-3.5,6.2.2-.1.4-.1.6-.3.9-1,1.8-1.9,2.6-2.9.3-.4.6-.8.9-1.1,0,0,0,0,.1,0-.9,1.5-1.8,3-2.7,4.4,0,0,.2.1.2.2,1-.8,1.8-1.7,2.8-2.6-.3.7-.7,1.4-1,2.1,0,0,.1.1.2.2,1.1-.5,1.8-1.6,3-2.2-.5.7-.9,1.4-1.4,2.1,0,0,0,0,.1.1.2-.1.4-.2.6-.4-.1.3-.2.5-.4.9,1-.2,1.7-1,2.7-1.4-.3.6-.5,1-.7,1.5,0,0,0,.1,0,.1.5-.3,1-.6,1.6-1,0,.5-.2.8-.2,1.3.7-.4,1.3-.7,1.9-1,0,0,0,0,0,0-.3.5-.5,1-.8,1.5,0,0-.1,0-.2,0,.3.1.5,0,.6,0,.3-.7.7-1.3,1-2l-.4-.4h0ZM616.5,152.4c-1.3,1.8-2.8,3.5-4.2,5.3-.2.3-.5.6-.8.8,0,0,0,0-.2,0,.4-.8.8-1.7,1.2-2.5,1.5-2.9,3.5-5.4,5.7-7.7,2.6-2.7,5.2-5.4,7.8-8.1,0,0,0,0,.1,0-.9,1.6-1.7,3.2-3,4.5-2.3,2.5-4.7,4.9-6.8,7.6h0Z"/>
        <path d="M653.9,160.6c-.6-.6-1.3-1.1-1.9-1.7-2.9-2.9-5.8-5.7-8.6-8.6-.1-.1-.2-.4-.2-.6.1-.7.3-1.4.4-2.2.3-1.5.7-3,1-4.5.5,0,.8.2,1.2.2,2.1,0,1.5.4,1.7-1.7,0-.6-.3-1.1-.8-1.4-.3-.1-.6-.3-1-.4-2.2-.6-4.4-.2-6.7-.1,0,.9-.2,1.8-.2,2.8.9.2,1.8.5,2.7.7-.3,1.6-.5,3.1-.8,4.8-1.2-1-2.2-1.9-3.2-2.7-3-2.6-6.1-5.2-9.1-7.8-.4-.4-.7-.4-1.2-.2-2.2,1.2-4,3-5.6,4.9-1.8,2.1-3.4,4.3-5.2,6.3-3.3,3.7-6.4,7.5-9.1,11.7-.1.2-.2.4-.4.7h5.9c.2,1.5.5,3,.5,4.5,0,2.9-.2,5.8-.2,8.7,0,4.6.2,9.2.3,13.8,0,.5.3.8.8.7.9,0,1.8,0,2.8-.2,2.2-.2,4.4-.5,6.5-.5,5.9,0,11.8.1,17.7.2,2.8,0,5.5,0,8.3,0,.3,0,.5,0,.8-.1,0,0,0-.1,0-.2h-9.1c0-1.1,0-2.2,0-3.2-.2-2-.6-4.1-.9-6.1-.1-.8-.1-1.7-.2-2.5,0,0,.1,0,.2,0,0,0,0,0,0,0-.1,0-.2-.1-.3-.1-1.8-.6-3.6-.6-5.4-.4-1.7.1-3.5.3-5.2.4-.7,0-1.3,0-2-.1.4,4,.7,7.9,1.1,11.9h-.6c-3.5-.1-7.1,0-10.6.5-1,.2-2.1.1-3.2.2,0-1.3-.1-2.4-.1-3.6,0-4.4-.2-8.8-.2-13.1,0-3,.3-6.1-.2-9.1,0-.6-.2-1.2-.3-1.6,2,0,3.9,0,5.8,0,3.4,0,6.8-.1,10.2-.2,2.1,0,4.1-.1,6.2-.1,3.5,0,7.1,0,10.6,0,.2,0,.5,0,.5,0,0,.6.5.3.7.3.3,0,.7,0,1,0,.4,0,.6.1.7.6.7,2.8.8,5.7.8,8.6,0,3.6.3,7.1.8,10.7.3,2.3.6,4.6,0,6.9,0,.1,0,.2,0,.4,0,0,.1,0,.2,0,0-.2.2-.4.2-.6.5-2.4.2-4.8,0-7.2-.3-2.9-.6-5.9-.8-8.9-.2-2.6-.2-5.3-.4-7.9,0-.9-.3-1.7-.5-2.6,1.5,0,2.9-.1,4.3-.2,0,0,0-.1,0-.2h0ZM627.9,176.2c1.8-.1,3.7-.2,5.6-.4,2-.2,3.9-.4,5.8.2.3,0,.5.1.5.5.3,2.4.7,4.9.9,7.4.1,1.3.2,2.6.2,4-4.1,0-8.1-.1-12.1-.2-.4-3.9-.7-7.7-1.1-11.4h0ZM641.1,147.9c.2-1.6.5-3.1.8-4.6,0-.4,0-.4-.4-.5-.8-.1-1.5-.3-2.3-.5,0-.8.1-1.5.2-2.3,2.2-.1,4.4-.4,6.6.3.9.3,1.1.6,1.1,1.6,0,.4,0,.7,0,1.2-.9-.1-1.8-.2-2.7-.4-.5,2.3-1,4.6-1.6,7-.5-.5-1-.9-1.5-1.4,0,0,0-.3,0-.4h0ZM650.2,160.7h0c-.1,0-.3,0-.6,0-.6-.1-1.2-.3-1.8-.3-2.7-.1-5.5-.2-8.2-.2-4.8,0-9.7.1-14.5.2-2.3,0-4.6.3-6.9.3-1.7,0-3.3-.2-5-.2-.5,0-1,.2-1.6.2-1.3,0-2.6,0-4,0,.2-.3.3-.6.5-.8,2.5-3.7,5.2-7.2,8.2-10.6,1.8-2,3.4-4.2,5.1-6.3,1.7-2,3.4-4,5.7-5.3.5-.3.8-.3,1.3.1,3.2,2.8,6.4,5.5,9.6,8.3,1.4,1.2,2.8,2.5,4.2,3.7.2.2.3.5.5.8.1,0,.4.1.6.3,2.4,2.4,4.8,4.8,7.2,7.2h0c0,.1.1.2.2.2h0l.4.4h0c.6.5,1.3,1.1,2.1,1.8-1.1,0-2.1.1-3.1.2h0Z"/>
        <path d="M650.6,158.1h0s0,0,0,0h0Z"/>
        <path class="st14" d="M596.3,137.2l1.5-1.2.7-.6c.2-.1.6-.6.8-.4h0c-1.2,1.4-2.6,2.9-4.1,4.2,0,0,0,.2.1.2,2.4-.7,3.3-3.4,5.7-4.2v-.2c-2,2.1-3.9,4.2-5.8,6.3,0,.1,0,.3.2.2,2.2-1.2,3.8-3.3,5.7-4.9.6-.5,1.2-.9,1.8-1.2l-.2-.2c-1,1-2,2.1-3,3.1-.9.9-1.8,1.8-2.5,3,0,.1,0,.2.2.2,2.1-1,3.5-2.8,4.9-4.6h-.2c-.3,1.1-1.2,2.1-2,3s-1.8,1.8-2.4,2.9c0,.1,0,.2.2.2,2.7-1.2,5-3.2,6.5-5.7h-.2c-.7,2.2-3,3.3-4.4,5.1-.4.6-.8,1.3-.6,2,0,0,.1.1.2,0,1.1-.6,1.9-1.4,2.8-2.2,1-1,1.9-2,2.9-2.9h-.2c.2.4-.4.9-.6,1.2-.3.4-.6.8-.9,1.1-.6.8-1.2,1.5-1.8,2.3,0,.1,0,.3.2.2,1-.9,1.9-1.7,2.9-2.6h-.2c.1.6-.2,1.2-.7,1.5-.1,0,0,.3.1.2.6-.4,1-1.1.8-1.8,0-.1-.2-.1-.2,0-1,.9-1.9,1.7-2.9,2.6l.2.2c.7-.9,1.4-1.8,2.1-2.6.3-.4.7-.8,1-1.2.2-.3.5-.7.3-1.1,0,0-.1,0-.2,0-.9,1-1.9,1.9-2.8,2.9-.8.9-1.7,1.7-2.8,2.3h.2c-.2-.6.2-1.3.6-1.8.3-.5.8-.9,1.2-1.3.8-.8,1.7-1.5,2.3-2.4.4-.5.7-1,.8-1.6,0-.1-.2-.2-.2-.1-1.5,2.5-3.8,4.4-6.4,5.6l.2.2c1.2-2.2,3.8-3.5,4.4-6.1,0-.1-.1-.2-.2-.1-1.4,1.8-2.8,3.6-4.9,4.5l.2.2c.7-1.1,1.6-2.1,2.5-3,1-1,2-2,3-3,0-.1,0-.3-.2-.2-2.2,1.2-3.8,3.2-5.7,4.8-.6.5-1.2.9-1.8,1.3l.2.2c1.9-2.1,3.8-4.2,5.7-6.3,0,0,0-.2-.1-.2-2.3.8-3.3,3.5-5.7,4.2v.2c1.6-1.3,3-2.8,4.2-4.4,0,0,0-.1,0-.1-.2-.2-.4-.1-.6,0-.3.1-.6.4-.9.7l-2,1.6c-.1.1,0,.3.2.2h0Z"/>
      </g>
      <g>
        <g>
          <g class="st10">
            <text class="st5" transform="translate(674 345.6)"><tspan x="0" y="0">fb.com/dts15</tspan></text>
          </g>
          <path class="st2" d="M671.7,343.1c0-1.8-1.5-3.3-3.3-3.3s-3.3,1.5-3.3,3.3,1.1,2.9,2.6,3.2v-2h-.5v-1h.5v-.3c0-.4.1-.8.4-1.1.2-.3.6-.4,1.1-.4s.4,0,.5,0,.3,0,.5.1v.9c0,0-.2,0-.2,0,0,0-.2,0-.3,0-.2,0-.4,0-.5.1s-.1.2-.1.4v.3h1v1h-1v2c1.4-.3,2.5-1.6,2.5-3.2h0Z"/>
        </g>
        <g>
          <rect class="st2" x="665.1" y="285.4" width="50.2" height="50.2"/>
          <rect class="st11" x="668.1" y="288.4" width="1.8" height="1.8"/>
          <rect class="st11" x="669.9" y="288.4" width="1.8" height="1.8"/>
          <rect class="st11" x="671.7" y="288.4" width="1.8" height="1.8"/>
          <rect class="st11" x="673.4" y="288.4" width="1.8" height="1.8"/>
          <rect class="st11" x="675.2" y="288.4" width="1.8" height="1.8"/>
          <rect class="st11" x="676.9" y="288.4" width="1.8" height="1.8"/>
          <rect class="st11" x="678.7" y="288.4" width="1.8" height="1.8"/>
          <rect class="st11" x="682.2" y="288.4" width="1.8" height="1.8"/>
          <rect class="st11" x="683.9" y="288.4" width="1.8" height="1.8"/>
          <rect class="st11" x="689.2" y="288.4" width="1.8" height="1.8"/>
          <rect class="st11" x="692.7" y="288.4" width="1.8" height="1.8"/>
          <rect class="st11" x="699.8" y="288.4" width="1.8" height="1.8"/>
          <rect class="st11" x="701.5" y="288.4" width="1.8" height="1.8"/>
          <rect class="st11" x="703.3" y="288.4" width="1.8" height="1.8"/>
          <rect class="st11" x="705" y="288.4" width="1.8" height="1.8"/>
          <rect class="st11" x="706.8" y="288.4" width="1.8" height="1.8"/>
          <rect class="st11" x="708.5" y="288.4" width="1.8" height="1.8"/>
          <rect class="st11" x="710.3" y="288.4" width="1.8" height="1.8"/>
          <rect class="st11" x="668.1" y="290.1" width="1.8" height="1.8"/>
          <rect class="st11" x="678.7" y="290.1" width="1.8" height="1.8"/>
          <rect class="st11" x="685.7" y="290.1" width="1.8" height="1.8"/>
          <rect class="st11" x="699.8" y="290.1" width="1.8" height="1.8"/>
          <rect class="st11" x="710.3" y="290.1" width="1.8" height="1.8"/>
          <rect class="st11" x="668.1" y="291.9" width="1.8" height="1.8"/>
          <rect class="st11" x="671.7" y="291.9" width="1.8" height="1.8"/>
          <rect class="st11" x="673.4" y="291.9" width="1.8" height="1.8"/>
          <rect class="st11" x="675.2" y="291.9" width="1.8" height="1.8"/>
          <rect class="st11" x="678.7" y="291.9" width="1.8" height="1.8"/>
          <rect class="st11" x="683.9" y="291.9" width="1.8" height="1.8"/>
          <rect class="st11" x="689.2" y="291.9" width="1.8" height="1.8"/>
          <rect class="st11" x="691" y="291.9" width="1.8" height="1.8"/>
          <rect class="st11" x="692.7" y="291.9" width="1.8" height="1.8"/>
          <rect class="st11" x="696.2" y="291.9" width="1.8" height="1.8"/>
          <rect class="st11" x="699.8" y="291.9" width="1.8" height="1.8"/>
          <rect class="st11" x="703.3" y="291.9" width="1.8" height="1.8"/>
          <rect class="st11" x="705" y="291.9" width="1.8" height="1.8"/>
          <rect class="st11" x="706.8" y="291.9" width="1.8" height="1.8"/>
          <rect class="st11" x="710.3" y="291.9" width="1.8" height="1.8"/>
          <rect class="st11" x="668.1" y="293.6" width="1.8" height="1.8"/>
          <rect class="st11" x="671.7" y="293.6" width="1.8" height="1.8"/>
          <rect class="st11" x="673.4" y="293.6" width="1.8" height="1.8"/>
          <rect class="st11" x="675.2" y="293.6" width="1.8" height="1.8"/>
          <rect class="st11" x="678.7" y="293.6" width="1.8" height="1.8"/>
          <rect class="st11" x="685.7" y="293.6" width="1.8" height="1.8"/>
          <rect class="st11" x="691" y="293.6" width="1.8" height="1.8"/>
          <rect class="st11" x="696.2" y="293.6" width="1.8" height="1.8"/>
          <rect class="st11" x="699.8" y="293.6" width="1.8" height="1.8"/>
          <rect class="st11" x="703.3" y="293.6" width="1.8" height="1.8"/>
          <rect class="st11" x="705" y="293.6" width="1.8" height="1.8"/>
          <rect class="st11" x="706.8" y="293.6" width="1.8" height="1.8"/>
          <rect class="st11" x="710.3" y="293.6" width="1.8" height="1.8"/>
          <rect class="st11" x="668.1" y="295.4" width="1.8" height="1.8"/>
          <rect class="st11" x="671.7" y="295.4" width="1.8" height="1.8"/>
          <rect class="st11" x="673.4" y="295.4" width="1.8" height="1.8"/>
          <rect class="st11" x="675.2" y="295.4" width="1.8" height="1.8"/>
          <rect class="st11" x="678.7" y="295.4" width="1.8" height="1.8"/>
          <rect class="st11" x="689.2" y="295.4" width="1.8" height="1.8"/>
          <rect class="st11" x="691" y="295.4" width="1.8" height="1.8"/>
          <rect class="st11" x="692.7" y="295.4" width="1.8" height="1.8"/>
          <rect class="st11" x="696.2" y="295.4" width="1.8" height="1.8"/>
          <rect class="st11" x="699.8" y="295.4" width="1.8" height="1.8"/>
          <rect class="st11" x="703.3" y="295.4" width="1.8" height="1.8"/>
          <rect class="st11" x="705" y="295.4" width="1.8" height="1.8"/>
          <rect class="st11" x="706.8" y="295.4" width="1.8" height="1.8"/>
          <rect class="st11" x="710.3" y="295.4" width="1.8" height="1.8"/>
          <rect class="st11" x="668.1" y="297.1" width="1.8" height="1.8"/>
          <rect class="st11" x="678.7" y="297.1" width="1.8" height="1.8"/>
          <rect class="st11" x="683.9" y="297.1" width="1.8" height="1.8"/>
          <rect class="st11" x="687.5" y="297.1" width="1.8" height="1.8"/>
          <rect class="st11" x="691" y="297.1" width="1.8" height="1.8"/>
          <rect class="st11" x="692.7" y="297.1" width="1.8" height="1.8"/>
          <rect class="st11" x="699.8" y="297.1" width="1.8" height="1.8"/>
          <rect class="st11" x="710.3" y="297.1" width="1.8" height="1.8"/>
          <rect class="st11" x="668.1" y="298.9" width="1.8" height="1.8"/>
          <rect class="st11" x="669.9" y="298.9" width="1.8" height="1.8"/>
          <rect class="st11" x="671.7" y="298.9" width="1.8" height="1.8"/>
          <rect class="st11" x="673.4" y="298.9" width="1.8" height="1.8"/>
          <rect class="st11" x="675.2" y="298.9" width="1.8" height="1.8"/>
          <rect class="st11" x="676.9" y="298.9" width="1.8" height="1.8"/>
          <rect class="st11" x="678.7" y="298.9" width="1.8" height="1.8"/>
          <rect class="st11" x="682.2" y="298.9" width="1.8" height="1.8"/>
          <rect class="st11" x="685.7" y="298.9" width="1.8" height="1.8"/>
          <rect class="st11" x="689.2" y="298.9" width="1.8" height="1.8"/>
          <rect class="st11" x="692.7" y="298.9" width="1.8" height="1.8"/>
          <rect class="st11" x="696.2" y="298.9" width="1.8" height="1.8"/>
          <rect class="st11" x="699.8" y="298.9" width="1.8" height="1.8"/>
          <rect class="st11" x="701.5" y="298.9" width="1.8" height="1.8"/>
          <rect class="st11" x="703.3" y="298.9" width="1.8" height="1.8"/>
          <rect class="st11" x="705" y="298.9" width="1.8" height="1.8"/>
          <rect class="st11" x="706.8" y="298.9" width="1.8" height="1.8"/>
          <rect class="st11" x="708.5" y="298.9" width="1.8" height="1.8"/>
          <rect class="st11" x="710.3" y="298.9" width="1.8" height="1.8"/>
          <rect class="st11" x="682.2" y="300.7" width="1.8" height="1.8"/>
          <rect class="st11" x="683.9" y="300.7" width="1.8" height="1.8"/>
          <rect class="st11" x="687.5" y="300.7" width="1.8" height="1.8"/>
          <rect class="st11" x="689.2" y="300.7" width="1.8" height="1.8"/>
          <rect class="st11" x="691" y="300.7" width="1.8" height="1.8"/>
          <rect class="st11" x="696.2" y="300.7" width="1.8" height="1.8"/>
          <rect class="st11" x="668.1" y="302.4" width="1.8" height="1.8"/>
          <rect class="st11" x="669.9" y="302.4" width="1.8" height="1.8"/>
          <rect class="st11" x="673.4" y="302.4" width="1.8" height="1.8"/>
          <rect class="st11" x="675.2" y="302.4" width="1.8" height="1.8"/>
          <rect class="st11" x="678.7" y="302.4" width="1.8" height="1.8"/>
          <rect class="st11" x="683.9" y="302.4" width="1.8" height="1.8"/>
          <rect class="st11" x="692.7" y="302.4" width="1.8" height="1.8"/>
          <rect class="st11" x="694.5" y="302.4" width="1.8" height="1.8"/>
          <rect class="st11" x="696.2" y="302.4" width="1.8" height="1.8"/>
          <rect class="st11" x="699.8" y="302.4" width="1.8" height="1.8"/>
          <rect class="st11" x="710.3" y="302.4" width="1.8" height="1.8"/>
          <rect class="st11" x="669.9" y="304.2" width="1.8" height="1.8"/>
          <rect class="st11" x="673.4" y="304.2" width="1.8" height="1.8"/>
          <rect class="st11" x="675.2" y="304.2" width="1.8" height="1.8"/>
          <rect class="st11" x="676.9" y="304.2" width="1.8" height="1.8"/>
          <rect class="st11" x="685.7" y="304.2" width="1.8" height="1.8"/>
          <rect class="st11" x="687.5" y="304.2" width="1.8" height="1.8"/>
          <rect class="st11" x="691" y="304.2" width="1.8" height="1.8"/>
          <rect class="st11" x="692.7" y="304.2" width="1.8" height="1.8"/>
          <rect class="st11" x="694.5" y="304.2" width="1.8" height="1.8"/>
          <rect class="st11" x="698" y="304.2" width="1.8" height="1.8"/>
          <rect class="st11" x="701.5" y="304.2" width="1.8" height="1.8"/>
          <rect class="st11" x="703.3" y="304.2" width="1.8" height="1.8"/>
          <rect class="st11" x="705" y="304.2" width="1.8" height="1.8"/>
          <rect class="st11" x="706.8" y="304.2" width="1.8" height="1.8"/>
          <rect class="st11" x="708.5" y="304.2" width="1.8" height="1.8"/>
          <rect class="st11" x="671.7" y="305.9" width="1.8" height="1.8"/>
          <rect class="st11" x="673.4" y="305.9" width="1.8" height="1.8"/>
          <rect class="st11" x="678.7" y="305.9" width="1.8" height="1.8"/>
          <rect class="st11" x="680.4" y="305.9" width="1.8" height="1.8"/>
          <rect class="st11" x="682.2" y="305.9" width="1.8" height="1.8"/>
          <rect class="st11" x="683.9" y="305.9" width="1.8" height="1.8"/>
          <rect class="st11" x="687.5" y="305.9" width="1.8" height="1.8"/>
          <rect class="st11" x="689.2" y="305.9" width="1.8" height="1.8"/>
          <rect class="st11" x="691" y="305.9" width="1.8" height="1.8"/>
          <rect class="st11" x="692.7" y="305.9" width="1.8" height="1.8"/>
          <rect class="st11" x="694.5" y="305.9" width="1.8" height="1.8"/>
          <rect class="st11" x="696.2" y="305.9" width="1.8" height="1.8"/>
          <rect class="st11" x="699.8" y="305.9" width="1.8" height="1.8"/>
          <rect class="st11" x="701.5" y="305.9" width="1.8" height="1.8"/>
          <rect class="st11" x="705" y="305.9" width="1.8" height="1.8"/>
          <rect class="st11" x="710.3" y="305.9" width="1.8" height="1.8"/>
          <rect class="st11" x="669.9" y="307.7" width="1.8" height="1.8"/>
          <rect class="st11" x="675.2" y="307.7" width="1.8" height="1.8"/>
          <rect class="st11" x="676.9" y="307.7" width="1.8" height="1.8"/>
          <rect class="st11" x="687.5" y="307.7" width="1.8" height="1.8"/>
          <rect class="st11" x="692.7" y="307.7" width="1.8" height="1.8"/>
          <rect class="st11" x="694.5" y="307.7" width="1.8" height="1.8"/>
          <rect class="st11" x="696.2" y="307.7" width="1.8" height="1.8"/>
          <rect class="st11" x="701.5" y="307.7" width="1.8" height="1.8"/>
          <rect class="st11" x="705" y="307.7" width="1.8" height="1.8"/>
          <rect class="st11" x="706.8" y="307.7" width="1.8" height="1.8"/>
          <rect class="st11" x="708.5" y="307.7" width="1.8" height="1.8"/>
          <rect class="st11" x="710.3" y="307.7" width="1.8" height="1.8"/>
          <rect class="st11" x="671.7" y="309.4" width="1.8" height="1.8"/>
          <rect class="st11" x="676.9" y="309.4" width="1.8" height="1.8"/>
          <rect class="st11" x="678.7" y="309.4" width="1.8" height="1.8"/>
          <rect class="st11" x="683.9" y="309.4" width="1.8" height="1.8"/>
          <rect class="st11" x="685.7" y="309.4" width="1.8" height="1.8"/>
          <rect class="st11" x="687.5" y="309.4" width="1.8" height="1.8"/>
          <rect class="st11" x="692.7" y="309.4" width="1.8" height="1.8"/>
          <rect class="st11" x="694.5" y="309.4" width="1.8" height="1.8"/>
          <rect class="st11" x="696.2" y="309.4" width="1.8" height="1.8"/>
          <rect class="st11" x="699.8" y="309.4" width="1.8" height="1.8"/>
          <rect class="st11" x="710.3" y="309.4" width="1.8" height="1.8"/>
          <rect class="st11" x="668.1" y="311.2" width="1.8" height="1.8"/>
          <rect class="st11" x="673.4" y="311.2" width="1.8" height="1.8"/>
          <rect class="st11" x="676.9" y="311.2" width="1.8" height="1.8"/>
          <rect class="st11" x="680.4" y="311.2" width="1.8" height="1.8"/>
          <rect class="st11" x="685.7" y="311.2" width="1.8" height="1.8"/>
          <rect class="st11" x="687.5" y="311.2" width="1.8" height="1.8"/>
          <rect class="st11" x="692.7" y="311.2" width="1.8" height="1.8"/>
          <rect class="st11" x="694.5" y="311.2" width="1.8" height="1.8"/>
          <rect class="st11" x="696.2" y="311.2" width="1.8" height="1.8"/>
          <rect class="st11" x="698" y="311.2" width="1.8" height="1.8"/>
          <rect class="st11" x="703.3" y="311.2" width="1.8" height="1.8"/>
          <rect class="st11" x="708.5" y="311.2" width="1.8" height="1.8"/>
          <rect class="st11" x="668.1" y="313" width="1.8" height="1.8"/>
          <rect class="st11" x="669.9" y="313" width="1.8" height="1.8"/>
          <rect class="st11" x="671.7" y="313" width="1.8" height="1.8"/>
          <rect class="st11" x="675.2" y="313" width="1.8" height="1.8"/>
          <rect class="st11" x="676.9" y="313" width="1.8" height="1.8"/>
          <rect class="st11" x="678.7" y="313" width="1.8" height="1.8"/>
          <rect class="st11" x="682.2" y="313" width="1.8" height="1.8"/>
          <rect class="st11" x="683.9" y="313" width="1.8" height="1.8"/>
          <rect class="st11" x="689.2" y="313" width="1.8" height="1.8"/>
          <rect class="st11" x="692.7" y="313" width="1.8" height="1.8"/>
          <rect class="st11" x="694.5" y="313" width="1.8" height="1.8"/>
          <rect class="st11" x="698" y="313" width="1.8" height="1.8"/>
          <rect class="st11" x="699.8" y="313" width="1.8" height="1.8"/>
          <rect class="st11" x="703.3" y="313" width="1.8" height="1.8"/>
          <rect class="st11" x="705" y="313" width="1.8" height="1.8"/>
          <rect class="st11" x="706.8" y="313" width="1.8" height="1.8"/>
          <rect class="st11" x="708.5" y="313" width="1.8" height="1.8"/>
          <rect class="st11" x="710.3" y="313" width="1.8" height="1.8"/>
          <rect class="st11" x="668.1" y="314.7" width="1.8" height="1.8"/>
          <rect class="st11" x="673.4" y="314.7" width="1.8" height="1.8"/>
          <rect class="st11" x="675.2" y="314.7" width="1.8" height="1.8"/>
          <rect class="st11" x="680.4" y="314.7" width="1.8" height="1.8"/>
          <rect class="st11" x="685.7" y="314.7" width="1.8" height="1.8"/>
          <rect class="st11" x="692.7" y="314.7" width="1.8" height="1.8"/>
          <rect class="st11" x="696.2" y="314.7" width="1.8" height="1.8"/>
          <rect class="st11" x="698" y="314.7" width="1.8" height="1.8"/>
          <rect class="st11" x="701.5" y="314.7" width="1.8" height="1.8"/>
          <rect class="st11" x="705" y="314.7" width="1.8" height="1.8"/>
          <rect class="st11" x="706.8" y="314.7" width="1.8" height="1.8"/>
          <rect class="st11" x="710.3" y="314.7" width="1.8" height="1.8"/>
          <rect class="st11" x="668.1" y="316.5" width="1.8" height="1.8"/>
          <rect class="st11" x="671.7" y="316.5" width="1.8" height="1.8"/>
          <rect class="st11" x="673.4" y="316.5" width="1.8" height="1.8"/>
          <rect class="st11" x="675.2" y="316.5" width="1.8" height="1.8"/>
          <rect class="st11" x="678.7" y="316.5" width="1.8" height="1.8"/>
          <rect class="st11" x="682.2" y="316.5" width="1.8" height="1.8"/>
          <rect class="st11" x="683.9" y="316.5" width="1.8" height="1.8"/>
          <rect class="st11" x="685.7" y="316.5" width="1.8" height="1.8"/>
          <rect class="st11" x="687.5" y="316.5" width="1.8" height="1.8"/>
          <rect class="st11" x="689.2" y="316.5" width="1.8" height="1.8"/>
          <rect class="st11" x="691" y="316.5" width="1.8" height="1.8"/>
          <rect class="st11" x="694.5" y="316.5" width="1.8" height="1.8"/>
          <rect class="st11" x="696.2" y="316.5" width="1.8" height="1.8"/>
          <rect class="st11" x="698" y="316.5" width="1.8" height="1.8"/>
          <rect class="st11" x="699.8" y="316.5" width="1.8" height="1.8"/>
          <rect class="st11" x="701.5" y="316.5" width="1.8" height="1.8"/>
          <rect class="st11" x="703.3" y="316.5" width="1.8" height="1.8"/>
          <rect class="st11" x="706.8" y="316.5" width="1.8" height="1.8"/>
          <rect class="st11" x="708.5" y="316.5" width="1.8" height="1.8"/>
          <rect class="st11" x="682.2" y="318.2" width="1.8" height="1.8"/>
          <rect class="st11" x="683.9" y="318.2" width="1.8" height="1.8"/>
          <rect class="st11" x="685.7" y="318.2" width="1.8" height="1.8"/>
          <rect class="st11" x="696.2" y="318.2" width="1.8" height="1.8"/>
          <rect class="st11" x="703.3" y="318.2" width="1.8" height="1.8"/>
          <rect class="st11" x="706.8" y="318.2" width="1.8" height="1.8"/>
          <rect class="st11" x="708.5" y="318.2" width="1.8" height="1.8"/>
          <rect class="st11" x="668.1" y="320" width="1.8" height="1.8"/>
          <rect class="st11" x="669.9" y="320" width="1.8" height="1.8"/>
          <rect class="st11" x="671.7" y="320" width="1.8" height="1.8"/>
          <rect class="st11" x="673.4" y="320" width="1.8" height="1.8"/>
          <rect class="st11" x="675.2" y="320" width="1.8" height="1.8"/>
          <rect class="st11" x="676.9" y="320" width="1.8" height="1.8"/>
          <rect class="st11" x="678.7" y="320" width="1.8" height="1.8"/>
          <rect class="st11" x="683.9" y="320" width="1.8" height="1.8"/>
          <rect class="st11" x="687.5" y="320" width="1.8" height="1.8"/>
          <rect class="st11" x="692.7" y="320" width="1.8" height="1.8"/>
          <rect class="st11" x="696.2" y="320" width="1.8" height="1.8"/>
          <rect class="st11" x="699.8" y="320" width="1.8" height="1.8"/>
          <rect class="st11" x="703.3" y="320" width="1.8" height="1.8"/>
          <rect class="st11" x="710.3" y="320" width="1.8" height="1.8"/>
          <rect class="st11" x="668.1" y="321.7" width="1.8" height="1.8"/>
          <rect class="st11" x="678.7" y="321.7" width="1.8" height="1.8"/>
          <rect class="st11" x="683.9" y="321.7" width="1.8" height="1.8"/>
          <rect class="st11" x="685.7" y="321.7" width="1.8" height="1.8"/>
          <rect class="st11" x="687.5" y="321.7" width="1.8" height="1.8"/>
          <rect class="st11" x="691" y="321.7" width="1.8" height="1.8"/>
          <rect class="st11" x="694.5" y="321.7" width="1.8" height="1.8"/>
          <rect class="st11" x="696.2" y="321.7" width="1.8" height="1.8"/>
          <rect class="st11" x="703.3" y="321.7" width="1.8" height="1.8"/>
          <rect class="st11" x="668.1" y="323.5" width="1.8" height="1.8"/>
          <rect class="st11" x="671.7" y="323.5" width="1.8" height="1.8"/>
          <rect class="st11" x="673.4" y="323.5" width="1.8" height="1.8"/>
          <rect class="st11" x="675.2" y="323.5" width="1.8" height="1.8"/>
          <rect class="st11" x="678.7" y="323.5" width="1.8" height="1.8"/>
          <rect class="st11" x="682.2" y="323.5" width="1.8" height="1.8"/>
          <rect class="st11" x="683.9" y="323.5" width="1.8" height="1.8"/>
          <rect class="st11" x="687.5" y="323.5" width="1.8" height="1.8"/>
          <rect class="st11" x="689.2" y="323.5" width="1.8" height="1.8"/>
          <rect class="st11" x="692.7" y="323.5" width="1.8" height="1.8"/>
          <rect class="st11" x="694.5" y="323.5" width="1.8" height="1.8"/>
          <rect class="st11" x="696.2" y="323.5" width="1.8" height="1.8"/>
          <rect class="st11" x="698" y="323.5" width="1.8" height="1.8"/>
          <rect class="st11" x="699.8" y="323.5" width="1.8" height="1.8"/>
          <rect class="st11" x="701.5" y="323.5" width="1.8" height="1.8"/>
          <rect class="st11" x="703.3" y="323.5" width="1.8" height="1.8"/>
          <rect class="st11" x="708.5" y="323.5" width="1.8" height="1.8"/>
          <rect class="st11" x="668.1" y="325.2" width="1.8" height="1.8"/>
          <rect class="st11" x="671.7" y="325.2" width="1.8" height="1.8"/>
          <rect class="st11" x="673.4" y="325.2" width="1.8" height="1.8"/>
          <rect class="st11" x="675.2" y="325.2" width="1.8" height="1.8"/>
          <rect class="st11" x="678.7" y="325.2" width="1.8" height="1.8"/>
          <rect class="st11" x="682.2" y="325.2" width="1.8" height="1.8"/>
          <rect class="st11" x="683.9" y="325.2" width="1.8" height="1.8"/>
          <rect class="st11" x="685.7" y="325.2" width="1.8" height="1.8"/>
          <rect class="st11" x="687.5" y="325.2" width="1.8" height="1.8"/>
          <rect class="st11" x="689.2" y="325.2" width="1.8" height="1.8"/>
          <rect class="st11" x="691" y="325.2" width="1.8" height="1.8"/>
          <rect class="st11" x="692.7" y="325.2" width="1.8" height="1.8"/>
          <rect class="st11" x="699.8" y="325.2" width="1.8" height="1.8"/>
          <rect class="st11" x="708.5" y="325.2" width="1.8" height="1.8"/>
          <rect class="st11" x="710.3" y="325.2" width="1.8" height="1.8"/>
          <rect class="st11" x="668.1" y="327" width="1.8" height="1.8"/>
          <rect class="st11" x="671.7" y="327" width="1.8" height="1.8"/>
          <rect class="st11" x="673.4" y="327" width="1.8" height="1.8"/>
          <rect class="st11" x="675.2" y="327" width="1.8" height="1.8"/>
          <rect class="st11" x="678.7" y="327" width="1.8" height="1.8"/>
          <rect class="st11" x="683.9" y="327" width="1.8" height="1.8"/>
          <rect class="st11" x="687.5" y="327" width="1.8" height="1.8"/>
          <rect class="st11" x="691" y="327" width="1.8" height="1.8"/>
          <rect class="st11" x="698" y="327" width="1.8" height="1.8"/>
          <rect class="st11" x="703.3" y="327" width="1.8" height="1.8"/>
          <rect class="st11" x="705" y="327" width="1.8" height="1.8"/>
          <rect class="st11" x="706.8" y="327" width="1.8" height="1.8"/>
          <rect class="st11" x="708.5" y="327" width="1.8" height="1.8"/>
          <rect class="st11" x="710.3" y="327" width="1.8" height="1.8"/>
          <rect class="st11" x="668.1" y="328.8" width="1.8" height="1.8"/>
          <rect class="st11" x="678.7" y="328.8" width="1.8" height="1.8"/>
          <rect class="st11" x="682.2" y="328.8" width="1.8" height="1.8"/>
          <rect class="st11" x="685.7" y="328.8" width="1.8" height="1.8"/>
          <rect class="st11" x="687.5" y="328.8" width="1.8" height="1.8"/>
          <rect class="st11" x="692.7" y="328.8" width="1.8" height="1.8"/>
          <rect class="st11" x="701.5" y="328.8" width="1.8" height="1.8"/>
          <rect class="st11" x="703.3" y="328.8" width="1.8" height="1.8"/>
          <rect class="st11" x="706.8" y="328.8" width="1.8" height="1.8"/>
          <rect class="st11" x="708.5" y="328.8" width="1.8" height="1.8"/>
          <rect class="st11" x="710.3" y="328.8" width="1.8" height="1.8"/>
          <rect class="st11" x="668.1" y="330.5" width="1.8" height="1.8"/>
          <rect class="st11" x="669.9" y="330.5" width="1.8" height="1.8"/>
          <rect class="st11" x="671.7" y="330.5" width="1.8" height="1.8"/>
          <rect class="st11" x="673.4" y="330.5" width="1.8" height="1.8"/>
          <rect class="st11" x="675.2" y="330.5" width="1.8" height="1.8"/>
          <rect class="st11" x="676.9" y="330.5" width="1.8" height="1.8"/>
          <rect class="st11" x="678.7" y="330.5" width="1.8" height="1.8"/>
          <rect class="st11" x="682.2" y="330.5" width="1.8" height="1.8"/>
          <rect class="st11" x="689.2" y="330.5" width="1.8" height="1.8"/>
          <rect class="st11" x="696.2" y="330.5" width="1.8" height="1.8"/>
          <rect class="st11" x="698" y="330.5" width="1.8" height="1.8"/>
          <rect class="st11" x="705" y="330.5" width="1.8" height="1.8"/>
          <rect class="st11" x="710.3" y="330.5" width="1.8" height="1.8"/>
        </g>
      </g>
    </g>
  </g>
</svg>