<?xml version="1.0" encoding="UTF-8"?>
<svg xmlns="http://www.w3.org/2000/svg" version="1.1" xmlns:xlink="http://www.w3.org/1999/xlink" viewBox="0 0 820 355.3">
  <!-- Generator: Adobe Illustrator 29.7.1, SVG Export Plug-In . SVG Version: 2.1.1 Build 8)  -->
  <defs>
    <style>
      .st0 {
        fill: #c2ce33;
      }

      .st1 {
        fill: #eae235;
      }

      .st2 {
        fill: #d2d530;
      }

      .st3, .st4 {
        fill: #2290c5;
      }

      .st5 {
        fill: #faeb38;
      }

      .st6 {
        fill: #efe436;
      }

      .st7 {
        fill: #fff13a;
      }

      .st8 {
        fill: #d5d630;
      }

      .st9 {
        fill: #e4df33;
      }

      .st10 {
        fill: #ece335;
      }

      .st11 {
        fill: #e8e134;
      }

      .st12 {
        fill: #feee3a;
      }

      .st13 {
        fill: #fff13b;
      }

      .st14 {
        fill: #dbda31;
      }

      .st15 {
        fill: #d3d530;
      }

      .st16, .st17, .st18, .st19, .st20 {
        fill: #fff;
      }

      .st21 {
        fill: #f0e536;
      }

      .st22 {
        fill: #c8d031;
      }

      .st23 {
        fill: #981e21;
      }

      .st24 {
        fill: #eee435;
      }

      .st25 {
        fill: #ffee3a;
      }

      .st26 {
        fill: #f3e737;
      }

      .st27 {
        fill: #c3cf32;
      }

      .st28 {
        fill: #e2dd33;
      }

      .st29 {
        fill: #d6d731;
      }

      .st30 {
        fill: #c6d031;
      }

      .st31 {
        fill: #fbeb39;
      }

      .st32 {
        fill: none;
      }

      .st33 {
        fill: #cfd330;
      }

      .st34 {
        fill: #e1dd32;
      }

      .st35 {
        fill: #f8ea38;
      }

      .st36 {
        fill: #cad130;
      }

      .st17 {
        letter-spacing: 0em;
      }

      .st17, .st4, .st37, .st18, .st38, .st19, .st20 {
        isolation: isolate;
      }

      .st17, .st18 {
        font-family: Roboto-Regular, Roboto;
        font-size: 11.7px;
      }

      .st39 {
        fill: #f1e536;
      }

      .st40 {
        fill: #dddb32;
      }

      .st4 {
        font-family: Roboto-Bold, Roboto;
        font-size: 4.1px;
      }

      .st4, .st19, .st20 {
        font-weight: 700;
      }

      .st41 {
        fill: #f1e636;
      }

      .st42 {
        fill: #dad931;
      }

      .st43 {
        fill: #4c5927;
      }

      .st37 {
        mix-blend-mode: multiply;
      }

      .st44 {
        fill: #f6e837;
      }

      .st45 {
        fill: #dcda32;
      }

      .st46 {
        fill: #f5e837;
      }

      .st47 {
        fill: #e3de33;
      }

      .st48 {
        fill: #fded39;
      }

      .st49 {
        fill: #fff33b;
      }

      .st50 {
        fill: #d0d430;
      }

      .st51 {
        fill: #d8d831;
      }

      .st52 {
        fill: #ebe235;
      }

      .st53 {
        fill: #f2e637;
      }

      .st54 {
        fill: #d4d630;
      }

      .st55 {
        fill: #ccd230;
      }

      .st56 {
        fill: #cdd230;
      }

      .st57 {
        fill: #d9d931;
      }

      .st58 {
        fill: #c5cf32;
      }

      .st59 {
        fill: #e0dc32;
      }

      .st60 {
        fill: #ede335;
      }

      .st61 {
        fill: #efa123;
      }

      .st62 {
        fill: #175d91;
      }

      .st19, .st20 {
        font-family: Kanit-Bold, Kanit;
        font-size: 41px;
      }

      .st63 {
        fill: #fced39;
      }

      .st64 {
        fill: #fff23b;
      }

      .st65 {
        fill: #ffef3a;
      }

      .st66 {
        fill: #f1dbaf;
      }

      .st67 {
        fill: #d1d430;
      }

      .st68 {
        fill: #c1ce33;
      }

      .st69 {
        fill: #e5df34;
      }

      .st70 {
        fill: #e7e034;
      }

      .st71 {
        fill: #f9ea38;
      }

      .st72 {
        fill: #dfdc32;
      }

      .st73 {
        fill: #fbec39;
      }

      .st74 {
        fill: #e9e135;
      }

      .st20 {
        letter-spacing: 0em;
      }

      .st75 {
        fill: #fff03a;
      }

      .st76 {
        fill: #d7d831;
      }

      .st77 {
        fill: #f7e938;
      }

      .st78 {
        fill: #bf7c48;
      }

      .st79 {
        fill: #ced330;
      }

      .st80 {
        fill: #e6e034;
      }

      .st81 {
        clip-path: url(#clippath);
      }

      .st82 {
        fill: #e2de33;
      }

      .st83 {
        fill: #dedb32;
      }

      .st84 {
        fill: #f4e737;
      }

      .st85 {
        fill: #cbd230;
      }
    </style>
    <clipPath id="clippath">
      <path class="st32" d="M762.8,298.5s-1.2-1.2.3-4.3c0,0,.8-1.5,1.9-1,0,0,.5.1.8,0,0,0,.3.2.1.4,0,0-.6-.2-1.2.3,0,0-1,.7-1.3,3.2,0,0,0,.8-.5,1.3h-.2,0Z"/>
    </clipPath>
  </defs>
  <g class="st38">
    <g id="Layer_1">
      <rect class="st62" y="34.1" width="820" height="312"/>
      <rect class="st62" y="-40.4" width="820" height="461"/>
      <image class="st37" width="672" height="378" transform="translate(-7.8 -20.8) scale(1.2 1)" xlink:href="asset-14-1.png"/>
      <g>
        <g>
          <circle class="st3" cx="21" cy="53.6" r="2.5"/>
          <circle class="st3" cx="29" cy="53.6" r="2.5"/>
          <circle class="st3" cx="37" cy="53.6" r="2.5"/>
          <circle class="st3" cx="45" cy="53.6" r="2.5"/>
          <circle class="st3" cx="53" cy="53.6" r="2.5"/>
          <circle class="st3" cx="61" cy="53.6" r="2.5"/>
          <circle class="st3" cx="69" cy="53.6" r="2.5"/>
        </g>
        <g>
          <circle class="st3" cx="21" cy="62.6" r="2.5"/>
          <circle class="st3" cx="29" cy="62.6" r="2.5"/>
          <circle class="st3" cx="37" cy="62.6" r="2.5"/>
          <circle class="st3" cx="45" cy="62.6" r="2.5"/>
          <circle class="st3" cx="53" cy="62.6" r="2.5"/>
          <circle class="st3" cx="61" cy="62.6" r="2.5"/>
          <circle class="st3" cx="69" cy="62.6" r="2.5"/>
        </g>
      </g>
      <path class="st3" d="M789.5,420.6h-82.7v-171.1h57.6c13.8,0,25.1,11.2,25.1,25.1v146h0Z"/>
      <g>
        <circle class="st16" cx="748.2" cy="295.1" r="29.7"/>
        <g>
          <g>
            <g>
              <g>
                <g>
                  <g>
                    <path d="M743.9,283.1v-6.2h0c.8-.1,1.4-.3,1.4-.3.5-.1.9-.2,1.3-.2.8,0,1.2.4,1.3.5.2-.3.7-.5,1.3-.5.9,0,1.9.4,2,.4.3.1.7.1.7.1h0v5.9h0s0,0,0,0c-.2,0-.7-.1-.7-.2-.7-.2-1.4-.4-1.9-.4-1.1,0-1.3.6-1.3.6h0c0,.1,0,0,0,0,0-.4-.4-.5-1-.5-.8,0-1.8.4-1.8.4-.2,0-1,.4-1,.5h0s0,0,0,0ZM744,276.9v6c.2,0,.8-.4,1-.4,0,0,1-.4,1.9-.4s.9.2,1,.5c0-.2.4-.5,1.3-.5s1.2.1,1.9.4c0,0,.5.2.7.2h0v-5.7c-.1,0-.4,0-.7-.1,0,0-1-.4-1.9-.4s-1,.2-1.2.5h0s0,0,0,0c0,0-.3-.5-1.2-.5s-.8,0-1.3.2c0,0-.6.2-1.4.3h0Z"/>
                    <rect x="747.8" y="276.9" width="0" height="5.9"/>
                  </g>
                  <path d="M743.7,283.3v-6.5h.5c0,0-.4,0-.4,0v6.3l1.2-.4c1.5-.5,2.8,0,3,0,.9-.4,2.3-.1,2.4-.1h0c.4.2,1.5.1,1.7.1v-5.9h-.4c0,0,.5,0,.5,0v6.1h0s-1.2,0-1.8-.1c0,0-1.5-.3-2.4.1h0s-1.3-.5-2.9,0l-1.2.5h0Z"/>
                </g>
                <g>
                  <g>
                    <path d="M751.2,278.3c-1.4-.8-2.7-.1-2.7-.1h0s1.4-.6,2.8.1h0Z"/>
                    <path d="M751.2,279.1c-1.4-.8-2.7-.1-2.7-.1h0s1.4-.6,2.8.1h0Z"/>
                    <path d="M751.2,279.9c-1.4-.8-2.7-.1-2.7-.1h0s1.4-.6,2.8.1h0Z"/>
                    <path d="M751.2,280.7c-1.4-.8-2.7-.1-2.7-.1h0s1.4-.6,2.8.1h0Z"/>
                    <path d="M751.2,281.5c-1.4-.8-2.7-.1-2.7-.1h0s1.4-.6,2.8.1h0Z"/>
                  </g>
                  <g>
                    <path d="M747.2,278.4c-1.4-.8-2.7-.1-2.7-.1h0s1.4-.6,2.8.1h0Z"/>
                    <path d="M747.2,279.2c-1.4-.8-2.7-.1-2.7-.1h0s1.4-.6,2.8.1h0Z"/>
                    <path d="M747.2,280c-1.4-.8-2.7-.1-2.7-.1h0s1.4-.6,2.8.1h0Z"/>
                    <path d="M747.2,280.8c-1.4-.8-2.7-.1-2.7-.1h0s1.4-.6,2.8.1h0Z"/>
                    <path d="M747.2,281.6c-1.4-.8-2.7-.1-2.7-.1h0s1.4-.6,2.8.1h0Z"/>
                  </g>
                </g>
              </g>
              <g>
                <g>
                  <g>
                    <g>
                      <g class="st81">
                        <g>
                          <rect class="st49" x="761.6" y="292.8" width=".7" height="5.7"/>
                          <rect class="st49" x="762.3" y="292.8" width="0" height="5.7"/>
                          <rect class="st64" x="762.4" y="292.8" width="0" height="5.7"/>
                          <rect class="st13" x="762.4" y="292.8" width="0" height="5.7"/>
                          <rect class="st7" x="762.5" y="292.8" width="0" height="5.7"/>
                          <rect class="st75" x="762.5" y="292.8" width="0" height="5.7"/>
                          <rect class="st65" x="762.6" y="292.8" width="0" height="5.7"/>
                          <rect class="st25" x="762.6" y="292.8" width="0" height="5.7"/>
                          <rect class="st12" x="762.7" y="292.8" width="0" height="5.7"/>
                          <rect class="st48" x="762.7" y="292.8" width="0" height="5.7"/>
                          <rect class="st63" x="762.8" y="292.8" width="0" height="5.7"/>
                          <rect class="st73" x="762.8" y="292.8" width="0" height="5.7"/>
                          <rect class="st31" x="762.9" y="292.8" width="0" height="5.7"/>
                          <rect class="st5" x="762.9" y="292.8" width="0" height="5.7"/>
                          <rect class="st71" x="763" y="292.8" width="0" height="5.7"/>
                          <rect class="st35" x="763" y="292.8" width="0" height="5.7"/>
                          <rect class="st77" x="763.1" y="292.8" width="0" height="5.7"/>
                          <rect class="st44" x="763.1" y="292.8" width="0" height="5.7"/>
                          <rect class="st46" x="763.2" y="292.8" width="0" height="5.7"/>
                          <rect class="st84" x="763.2" y="292.8" width="0" height="5.7"/>
                          <rect class="st26" x="763.3" y="292.8" width="0" height="5.7"/>
                          <rect class="st53" x="763.3" y="292.8" width="0" height="5.7"/>
                          <rect class="st41" x="763.4" y="292.8" width="0" height="5.7"/>
                          <rect class="st39" x="763.4" y="292.8" width="0" height="5.7"/>
                          <rect class="st21" x="763.5" y="292.8" width="0" height="5.7"/>
                          <rect class="st6" x="763.5" y="292.8" width="0" height="5.7"/>
                          <rect class="st24" x="763.6" y="292.8" width="0" height="5.7"/>
                          <rect class="st60" x="763.6" y="292.8" width="0" height="5.7"/>
                          <rect class="st10" x="763.7" y="292.8" width="0" height="5.7"/>
                          <rect class="st52" x="763.7" y="292.8" width="0" height="5.7"/>
                          <rect class="st1" x="763.8" y="292.8" width="0" height="5.7"/>
                          <rect class="st74" x="763.8" y="292.8" width="0" height="5.7"/>
                          <rect class="st11" x="763.9" y="292.8" width="0" height="5.7"/>
                          <rect class="st70" x="763.9" y="292.8" width="0" height="5.7"/>
                          <rect class="st80" x="764" y="292.8" width="0" height="5.7"/>
                          <rect class="st69" x="764" y="292.8" width="0" height="5.7"/>
                          <rect class="st9" x="764.1" y="292.8" width="0" height="5.7"/>
                          <rect class="st47" x="764.1" y="292.8" width="0" height="5.7"/>
                          <rect class="st82" x="764.2" y="292.8" width="0" height="5.7"/>
                          <rect class="st28" x="764.2" y="292.8" width="0" height="5.7"/>
                          <rect class="st34" x="764.3" y="292.8" width="0" height="5.7"/>
                          <rect class="st59" x="764.3" y="292.8" width="0" height="5.7"/>
                          <rect class="st72" x="764.4" y="292.8" width="0" height="5.7"/>
                          <rect class="st83" x="764.4" y="292.8" width="0" height="5.7"/>
                          <rect class="st40" x="764.5" y="292.8" width="0" height="5.7"/>
                          <rect class="st45" x="764.5" y="292.8" width="0" height="5.7"/>
                          <rect class="st14" x="764.6" y="292.8" width="0" height="5.7"/>
                          <rect class="st42" x="764.6" y="292.8" width="0" height="5.7"/>
                          <rect class="st57" x="764.7" y="292.8" width="0" height="5.7"/>
                          <rect class="st51" x="764.7" y="292.8" width="0" height="5.7"/>
                          <rect class="st76" x="764.8" y="292.8" width="0" height="5.7"/>
                          <rect class="st29" x="764.8" y="292.8" width="0" height="5.7"/>
                          <rect class="st29" x="764.9" y="292.8" width="0" height="5.7"/>
                          <rect class="st8" x="764.9" y="292.8" width="0" height="5.7"/>
                          <rect class="st54" x="765" y="292.8" width="0" height="5.7"/>
                          <rect class="st15" x="765" y="292.8" width="0" height="5.7"/>
                          <rect class="st2" x="765.1" y="292.8" width="0" height="5.7"/>
                          <rect class="st67" x="765.1" y="292.8" width="0" height="5.7"/>
                          <rect class="st50" x="765.2" y="292.8" width="0" height="5.7"/>
                          <rect class="st33" x="765.2" y="292.8" width="0" height="5.7"/>
                          <rect class="st79" x="765.3" y="292.8" width="0" height="5.7"/>
                          <rect class="st56" x="765.3" y="292.8" width="0" height="5.7"/>
                          <rect class="st55" x="765.4" y="292.8" width="0" height="5.7"/>
                          <rect class="st85" x="765.4" y="292.8" width="0" height="5.7"/>
                          <rect class="st36" x="765.5" y="292.8" width="0" height="5.7"/>
                          <rect class="st36" x="765.5" y="292.8" width="0" height="5.7"/>
                          <rect class="st22" x="765.6" y="292.8" width="0" height="5.7"/>
                          <rect class="st30" x="765.6" y="292.8" width="0" height="5.7"/>
                          <rect class="st58" x="765.7" y="292.8" width="0" height="5.7"/>
                          <rect class="st27" x="765.7" y="292.8" width="0" height="5.7"/>
                          <rect class="st0" x="765.8" y="292.8" width="0" height="5.7"/>
                          <rect class="st0" x="765.8" y="292.8" width="0" height="5.7"/>
                          <rect class="st68" x="765.8" y="292.8" width="0" height="5.7"/>
                          <rect class="st68" x="765.9" y="292.8" width="0" height="5.7"/>
                          <rect class="st68" x="766" y="292.8" width="0" height="5.7"/>
                          <rect class="st68" x="766" y="292.8" width=".1" height="5.7"/>
                        </g>
                      </g>
                      <path d="M763,298.5h-.2s0,0-.2-.2c0-.1-.2-.4-.2-.7,0-.4,0-.8,0-1.3.1-.6.3-1.3.7-2,0,0,.2-.3.4-.5.2-.2.3-.3.5-.4.2-.1.4-.2.6-.2s.3,0,.4,0c0,0,.3,0,.6,0s.2,0,.2,0h0s.2.1.2.3,0,0,0,.1h0s-.1,0-.3,0-.5,0-.8.4c0,0,0,0-.2.1,0,.1-.2.3-.4.5-.3.5-.6,1.2-.8,2.5,0,0,0,.2,0,.5,0,.1,0,.3-.1.4,0,.2-.2.3-.2.4h0ZM762.8,298.5h.2c.2-.3.3-.6.4-.8,0-.2,0-.5,0-.5,0-.6.2-1.1.3-1.5.1-.4.3-.7.4-1,.2-.2.3-.4.4-.5,0-.1.2-.1.2-.1.1-.1.3-.2.5-.3.1,0,.3,0,.4,0s.3,0,.3,0c0,0,0,0,0-.1,0-.1-.2-.3-.2-.3,0,0-.1,0-.2,0-.3,0-.6,0-.6,0-.1,0-.3,0-.4,0-.5,0-.8.3-1.1.5-.3.3-.4.5-.4.5-.8,1.6-.8,2.7-.7,3.3,0,.4.2.6.2.7s.2.2.2.2h0Z"/>
                    </g>
                    <g>
                      <path class="st43" d="M763,298.5s0,0-.1,0-.1,0-.1,0,0,0,.1,0,.1,0,.1,0Z"/>
                      <path d="M762.9,298.6c0,0-.1,0-.1,0s0,0,.1,0,.1,0,.1,0,0,0-.1,0ZM762.9,298.4c0,0-.1,0-.1,0s0,0,.1,0,.1,0,.1,0,0,0-.1,0Z"/>
                    </g>
                  </g>
                  <path d="M762.9,298.4s0-.8,0-1.6c0-.5.2-1,.3-1.4.2-.5.4-.9.7-1.2.2-.2.5-.4.8-.5.3-.1.8-.1,1.2-.1h0c-.8,0-1.5.1-2,.6-.7.7-1,1.8-1,2.6,0,.9,0,1.6,0,1.6h0Z"/>
                </g>
                <g>
                  <g>
                    <g>
                      <path class="st78" d="M729.2,295.2s-.2.7.5.9c0,0,.8.3,1.3,1,0,0,.3.6.9.3,0,0,.3-.2.6-.7l.6-1.4s.8,0,.5-1.1c0,0-3.2,1.9-4.4.9h0Z"/>
                      <path d="M731.6,297.5c-.4,0-.6-.4-.6-.4-.5-.7-1.3-1-1.3-1-.2,0-.4-.2-.5-.3-.2-.3,0-.6,0-.6h0s0,0,0,0c.2.2.5.3.9.3,1.4,0,3.5-1.2,3.5-1.2h0c0,.4,0,.7,0,.9-.2.2-.4.2-.5.2h0l-.6,1.4c-.3.6-.6.7-.6.7,0,0-.2,0-.3,0h0ZM729.2,295.2c0,0,0,.3,0,.6,0,.2.2.3.5.3,0,0,.9.3,1.3,1,0,0,.2.4.5.4s.2,0,.3,0c0,0,.3-.2.5-.7l.6-1.4h0s.3,0,.5-.2c.1-.2.2-.5,0-.8-.2.1-2.1,1.2-3.5,1.2s-.7,0-.9-.2h0Z"/>
                    </g>
                    <g>
                      <path class="st66" d="M730.9,293.8s0,0-.3.2c0,0-.8.8-1.2,1,0,0-.2,0-.1.3,0,0,0,.2.6.3,0,0,.6.1,1.4,1.1,0,0,.3.4.5.1,0,0,.3-.3.8-1.5,0,0,.2-.4.5-.5,0,0,1.1-.3.3-1.2,0,0-.6-.1-1,0,0,0-.5-.5-1-.4,0,0-.6.1-.5.5h0Z"/>
                      <path d="M731.6,297c-.2,0-.3-.2-.4-.2-.8-1-1.4-1.1-1.4-1.1-.6-.1-.7-.3-.7-.4,0-.2.1-.3.1-.3.4-.2,1.2-1,1.2-1,.2-.2.3-.2.3-.2,0-.4.5-.5.5-.5,0,0,.1,0,.2,0,.4,0,.8.4.8.4,0,0,.2,0,.4,0,.3,0,.6,0,.6,0h0c.2.2.3.5.3.7,0,.3-.5.5-.6.5-.2.1-.5.5-.5.5-.5,1.2-.8,1.5-.8,1.5,0,0-.1.1-.2.1h0ZM730.9,293.8s-.1,0-.3.2c0,0-.8.8-1.2,1,0,0-.2,0-.1.3h0s0,.2.6.3c0,0,.6.1,1.4,1.1,0,0,.2.2.3.2s.1,0,.2-.1c0,0,.3-.3.8-1.5,0,0,.2-.4.5-.6h0s.5-.1.6-.5c0-.2,0-.4-.3-.6,0,0-.3,0-.5,0s-.3,0-.4,0h0s-.4-.4-.8-.4-.1,0-.2,0c0,0-.5.1-.5.5h0s0,0,0,0h0Z"/>
                    </g>
                  </g>
                  <g>
                    <path class="st61" d="M731,281.3s-3,10.5,7.9,17.6c0,0,13.7,8.2,23.6-5.9,0,0,3-4.3,2.1-11.7,0,0-2.5,9.9-11.3,12.9,0,0-16.5,5.2-22.2-12.9h0Z"/>
                    <path class="st23" d="M735.6,296.3s2.7,3.3,8,4.4c0,0-2.4-6.7-.5-9.2,0,0,1.1-1.8,2.7-3.2,0,0,1.8-1.6,2-7.4,0,0-1.9,6.2-5.3,6.6,0,0,1.9-1.6,1.7-3.8,0,0-.1-.4.3,0,0,0,.9.9,1.1.4,0,0,1.1-1.6,0-1.6h-1.3s-.4-.1.3-.3c0,0,1.2-.2,1.4-.7,0,0-.5-1.2-1.2-1.7,0,0-.9-.6-1.1,1.7,0,0,0,.5-.2.1,0,0-1.1-1.8-3.5-.5,0,0,0,0,0-.4,0,0,0-2.8-1.3-1.5,0,0-1.6,1.3-.8,1.7,0,0,1.2.6.9.6,0,0-1.4-.2-1.4.1,0,0-.3,2,.7,1.5,0,0,.9-.6.9,0,0,0-.3,2.2.6,3.4,0,0-1.8-.4-3.7,1.8,0,0-2.5,2.5-3.4,7.5,0,0,1.8-3.3,4.7-5.5,0,0,1.1,3.8-1.3,5.6h0Z"/>
                    <path class="st62" d="M752.3,300.7s4.1-.9,7.4-4.4c0,0-.7-4.8-.3-6,0,0,2.2,2,4.3,5.7,0,0-.9-6.2-3.1-8.6,0,0-1.2-1.5-3.7-.8,0,0,1.4-3,.3-4.9,0,0-1.3-2.4-3.6-1.8,0,0-2,.5-2.3,3.5,0,0-.2,2.2,2.1,4.2,0,0-2.2.4-5.3-6.8,0,0-.4,6.2,3.2,9.2,0,0,.9,1.5,1.1,2.8,0,0,.7,4.6,0,8h0Z"/>
                  </g>
                </g>
              </g>
            </g>
            <g>
              <path class="st3" d="M726.8,303.5h1.4c.3,0,.6,0,.7,0,.2,0,.4.2.6.4.2.2.3.4.4.7,0,.3.1.6.1,1s0,.7-.1.9c0,.3-.2.6-.4.8-.1.1-.3.3-.5.4-.2,0-.4,0-.7,0h-1.5v-4.4h0ZM727.6,304.2v2.9h.6c.2,0,.4,0,.5,0,.1,0,.2-.1.3-.2,0,0,.2-.2.2-.4,0-.2,0-.5,0-.8s0-.6,0-.8-.1-.3-.2-.4c0-.1-.2-.2-.4-.2-.1,0-.3,0-.7,0h-.4Z"/>
              <path class="st3" d="M731.3,305.6h-.7c0-.5.2-.7.4-.8.2-.1.5-.2.8-.2s.6,0,.8.1c.2,0,.3.2.3.3,0,.1,0,.4,0,.8v1c0,.3,0,.5,0,.6,0,.1,0,.3.1.4h-.7c0,0,0-.1,0-.2,0,0,0,0,0-.1-.1.1-.3.2-.4.3-.2,0-.3.1-.5.1-.3,0-.5,0-.7-.3s-.2-.4-.2-.7,0-.3.1-.5c0-.1.2-.2.3-.3s.3-.1.6-.2c.3,0,.6-.1.7-.2h0c0-.2,0-.4-.1-.4,0,0-.2-.1-.4-.1s-.2,0-.3,0-.1.2-.2.3h0ZM732.3,306.3c0,0-.2,0-.5.1-.2,0-.3.1-.4.1,0,0-.2.2-.2.3s0,.2.1.3c0,0,.2.1.3.1s.3,0,.4-.1c0,0,.2-.2.2-.3,0,0,0-.2,0-.4v-.2h0Z"/>
              <path class="st3" d="M733.8,304.2v-.8h.8v.8h-.8ZM733.8,307.8v-3.2h.8v3.2h-.8Z"/>
              <path class="st3" d="M735.3,307.8v-4.4h.8v4.4h-.8Z"/>
              <path class="st3" d="M736.4,304.7h.8l.7,2.2.7-2.2h.8l-1,3-.2.5c0,.2-.1.3-.2.4,0,.1-.1.2-.2.2s-.2.1-.3.1c-.1,0-.2,0-.4,0s-.3,0-.4,0v-.7s.1,0,.2,0c.2,0,.3,0,.4-.2,0-.1.2-.3.2-.4l-1.1-3.2h0Z"/>
              <path class="st3" d="M742.2,307.8v-3.6h-1.2v-.7h3.1v.7h-1.2v3.6h-.8,0Z"/>
              <path class="st3" d="M745.9,306.8h.8c0,.5-.2.7-.5.8-.2.2-.5.2-.8.2-.5,0-.9-.2-1.1-.5-.2-.3-.3-.6-.3-1.1s.1-.9.4-1.2c.2-.3.6-.5.9-.5s.8.2,1,.5c.2.3.4.8.3,1.4h-1.9c0,.2,0,.4.2.6.1.1.3.2.4.2s.2,0,.3-.1c0,0,.1-.2.2-.4h0ZM745.9,306c0-.2,0-.4-.2-.5-.1-.1-.2-.2-.4-.2s-.3,0-.4.2c-.1.1-.2.3-.2.5h1.1Z"/>
              <path class="st3" d="M749.9,307.8h-.8v-1.6c0-.3,0-.6,0-.7,0-.1,0-.2-.2-.2,0,0-.2,0-.3,0s-.2,0-.3.1-.2.2-.2.3c0,.1,0,.4,0,.7v1.4h-.8v-3.2h.7v.5c.2-.4.6-.5.9-.5s.3,0,.5.1c.1,0,.2.1.3.3s.1.2.2.4,0,.3,0,.6v2h0Z"/>
              <path class="st3" d="M752,306.4h.8c0,.2.1.4.3.6s.3.2.6.2.5,0,.6-.2c.1-.1.2-.3.2-.4s0-.2,0-.3-.2-.1-.3-.2c0,0-.3-.1-.6-.2-.4-.1-.7-.3-.9-.4-.2-.2-.4-.5-.4-.9s0-.4.2-.6c.1-.2.3-.3.5-.4.2-.1.5-.1.8-.1.5,0,.9.1,1.1.4s.4.6.4,1h-.8c0-.2-.1-.4-.2-.4-.1-.1-.3-.1-.5-.1s-.4,0-.5.2c0,0-.1.2-.1.3s0,.2.1.3c0,0,.3.2.7.3.4.1.7.2.8.3.2.1.3.3.4.4,0,.2.2.4.2.7s0,.5-.2.7c-.1.2-.3.4-.5.5-.2.1-.5.2-.8.2-.5,0-.9-.1-1.1-.4-.3-.3-.4-.6-.5-1.1h0Z"/>
              <path class="st3" d="M758.2,305.6h-.7s0-.1-.2-.2c0,0-.2-.1-.3-.1s-.3,0-.5.2c-.1.1-.2.4-.2.7s0,.6.2.8c.1.2.3.2.5.2s.3,0,.3-.1c0,0,.2-.2.2-.5h.7c0,.5-.2.8-.4,1-.2.2-.5.3-.9.3s-.7-.1-1-.4-.4-.7-.4-1.2.1-.9.4-1.2.6-.4,1-.4.6,0,.8.2.3.4.4.8h0Z"/>
              <path class="st3" d="M759.6,303.5v1.6c.2-.3.5-.5.9-.5s.3,0,.5.1.2.2.3.3.1.2.1.4c0,.1,0,.4,0,.6v1.9h-.8v-1.7c0-.3,0-.5,0-.6,0,0,0-.2-.2-.2s-.2,0-.3,0-.2,0-.3.1c0,0-.2.2-.2.3,0,.1,0,.3,0,.6v1.6h-.8v-4.4h.8,0Z"/>
              <path class="st3" d="M762,306.2c0-.3,0-.5.2-.8s.3-.5.5-.6c.2-.1.5-.2.8-.2.4,0,.8.2,1,.5.3.3.4.7.4,1.2s-.1.9-.4,1.2c-.3.3-.6.5-1,.5s-.5,0-.7-.2c-.2-.1-.4-.3-.5-.6-.1-.2-.2-.6-.2-.9h0ZM762.7,306.3c0,.3,0,.6.2.7.1.2.3.2.5.2s.4,0,.5-.2.2-.4.2-.7,0-.5-.2-.7-.3-.2-.5-.2-.4,0-.5.2-.2.4-.2.7h0Z"/>
              <path class="st3" d="M765.3,306.2c0-.3,0-.5.2-.8s.3-.5.5-.6c.2-.1.5-.2.8-.2.4,0,.8.2,1,.5.3.3.4.7.4,1.2s-.1.9-.4,1.2c-.3.3-.6.5-1,.5s-.5,0-.7-.2c-.2-.1-.4-.3-.5-.6-.1-.2-.2-.6-.2-.9h0ZM766.1,306.3c0,.3,0,.6.2.7.1.2.3.2.5.2s.4,0,.5-.2.2-.4.2-.7,0-.5-.2-.7-.3-.2-.5-.2-.4,0-.5.2-.2.4-.2.7h0Z"/>
              <path class="st3" d="M768.8,307.8v-4.4h.8v4.4h-.8Z"/>
            </g>
          </g>
          <g class="st38">
            <text class="st4" transform="translate(737.2 314.3)"><tspan x="0" y="0">ESTD: 2015</tspan></text>
          </g>
        </g>
      </g>
      <g>
        <g>
          <g class="st38">
            <text class="st19" transform="translate(496.5 129.8)"><tspan x="0" y="0">Help T</tspan></text>
            <text class="st19" transform="translate(616.5 129.8)"><tspan x="0" y="0">h</tspan></text>
            <text class="st19" transform="translate(641 129.8)"><tspan x="0" y="0">e</tspan></text>
            <text class="st19" transform="translate(382.7 178.6)"><tspan x="0" y="0">Child</tspan></text>
            <text class="st20" transform="translate(483.6 178.6)"><tspan x="0" y="0">r</tspan></text>
            <text class="st19" transform="translate(499.3 178.6)"><tspan x="0" y="0">en Fou</tspan></text>
            <text class="st19" transform="translate(626.5 178.6)"><tspan x="0" y="0">n</tspan></text>
            <text class="st19" transform="translate(651 178.6)"><tspan x="0" y="0">d</tspan></text>
            <text class="st19" transform="translate(675.7 178.6)"><tspan x="0" y="0">ation</tspan></text>
          </g>
          <g class="st38">
            <text class="st18" transform="translate(409 214.8)"><tspan x="0" y="0">It</tspan></text>
            <text class="st17" transform="translate(416 214.8)"><tspan x="0" y="0">&apos;</tspan></text>
            <text class="st18" transform="translate(417.6 214.8)"><tspan x="0" y="0">s Our P</tspan></text>
            <text class="st18" transform="translate(455.2 214.8)"><tspan x="0" y="0">r</tspan></text>
            <text class="st18" transform="translate(459.1 214.8)"><tspan x="0" y="0">omise </tspan></text>
            <text class="st18" transform="translate(494 214.8)"><tspan x="0" y="0">t</tspan></text>
            <text class="st18" transform="translate(497.7 214.8)"><tspan x="0" y="0">o P</tspan></text>
            <text class="st18" transform="translate(514.7 214.8)"><tspan x="0" y="0">r</tspan></text>
            <text class="st18" transform="translate(518.5 214.8)"><tspan x="0" y="0">o</tspan></text>
            <text class="st18" transform="translate(525.1 214.8)"><tspan x="0" y="0">vide Quality </tspan></text>
            <text class="st18" transform="translate(588.1 214.8)"><tspan x="0" y="0">E</tspan></text>
            <text class="st18" transform="translate(594.7 214.8)"><tspan x="0" y="0">ducation &amp; Nutrition </tspan></text>
            <text class="st18" transform="translate(481.4 228.8)"><tspan x="0" y="0">for Underprivileged Child</tspan></text>
            <text class="st18" transform="translate(609.3 228.8)"><tspan x="0" y="0">r</tspan></text>
            <text class="st18" transform="translate(613.2 228.8)"><tspan x="0" y="0">en</tspan></text>
          </g>
        </g>
        <path class="st16" d="M571.4,254.6v8.2c0,4.3-.5,7.8-1.5,10.6-1,2.8-2.8,5.1-5.3,7-2.5,1.9-5.3,3.2-8.4,3.8v-6.5c2.2-1.3,3.5-3,3.8-5.1h-3.8v-17.9h15.3ZM551,254.6v8.2c0,4.3-.5,7.8-1.5,10.6-1,2.8-2.8,5.1-5.3,7-2.5,1.9-5.3,3.2-8.5,3.8v-6.5c2.2-1.3,3.5-3,3.8-5.1h-3.8v-17.9h15.3Z"/>
      </g>
      <image class="st38" width="3007" height="5062" transform="translate(70.1 40.6) scale(0)" xlink:href="asset-14-2.png"/>
    </g>
  </g>
</svg>