<?xml version="1.0" encoding="UTF-8"?>
<svg id="Layer_2" data-name="Layer 2" xmlns="http://www.w3.org/2000/svg" viewBox="0 0 914.89 232.27">
  <defs>
    <style>
      .cls-1 {
        fill: #fff;
      }
    </style>
  </defs>
  <g id="Layer_1-2" data-name="Layer 1">
    <g>
      <g>
        <path class="cls-1" d="M70.17,88.57h-20.12v-35.06h-29.81v35.06H0V4.61h20.24v33.33h29.81V4.61h20.12v83.95Z"/>
        <path class="cls-1" d="M112.26,89.72c-9.57,0-17.32-2.85-23.24-8.56-5.92-5.71-8.88-13.14-8.88-22.29v-1.62c0-6.38,1.18-12.01,3.55-16.89,2.36-4.88,5.81-8.66,10.35-11.33,4.54-2.67,9.92-4.01,16.14-4.01,8.76,0,15.68,2.72,20.76,8.16,5.07,5.44,7.61,13.02,7.61,22.75v7.55h-38.63c.69,3.5,2.21,6.25,4.55,8.25,2.34,2,5.38,3,9.11,3,6.15,0,10.96-2.15,14.42-6.46l8.88,10.49c-2.42,3.34-5.85,6.01-10.29,7.99-4.44,1.98-9.22,2.97-14.33,2.97ZM110.07,40.02c-5.69,0-9.07,3.77-10.15,11.3h19.6v-1.5c.08-3.11-.71-5.53-2.36-7.24-1.65-1.71-4.02-2.57-7.09-2.57Z"/>
        <path class="cls-1" d="M166.87,88.57h-19.49V0h19.49v88.57Z"/>
        <path class="cls-1" d="M236.75,57.83c0,9.69-2.18,17.42-6.54,23.21-4.36,5.79-10.25,8.68-17.67,8.68-5.73,0-10.44-2.09-14.13-6.29v29.12h-19.43V26.18h18.16l.58,5.77c3.73-4.61,8.63-6.92,14.7-6.92,7.69,0,13.67,2.83,17.93,8.5,4.27,5.67,6.4,13.46,6.4,23.38v.92ZM217.32,56.62c0-11.07-3.23-16.61-9.69-16.61-4.61,0-7.69,1.65-9.23,4.96v24.56c1.69,3.46,4.8,5.19,9.34,5.19,6.19,0,9.38-5.34,9.57-16.03v-2.08Z"/>
        <path class="cls-1" d="M297.35,10.67v15.51h10.26v13.49h-10.26v28.54c0,2.34.42,3.98,1.27,4.9.85.92,2.52,1.38,5.02,1.38,1.92,0,3.54-.12,4.84-.35v13.9c-3.5,1.11-7.15,1.67-10.96,1.67-6.69,0-11.63-1.58-14.82-4.73-3.19-3.15-4.79-7.94-4.79-14.36v-30.96h-7.96v-13.49h7.96v-15.51h19.43Z"/>
        <path class="cls-1" d="M334.25,32.87c4.15-5.23,9.46-7.84,15.91-7.84,6.88,0,12.07,2.04,15.57,6.11,3.5,4.07,5.29,10.09,5.36,18.05v39.38h-19.49v-38.92c0-3.31-.67-5.74-2.02-7.29-1.35-1.56-3.63-2.34-6.86-2.34-4,0-6.82,1.27-8.48,3.81v44.74h-19.43V0h19.43v32.87Z"/>
        <path class="cls-1" d="M412.09,89.72c-9.57,0-17.32-2.85-23.24-8.56-5.92-5.71-8.88-13.14-8.88-22.29v-1.62c0-6.38,1.18-12.01,3.55-16.89,2.36-4.88,5.81-8.66,10.35-11.33,4.54-2.67,9.92-4.01,16.14-4.01,8.76,0,15.68,2.72,20.76,8.16,5.07,5.44,7.61,13.02,7.61,22.75v7.55h-38.63c.69,3.5,2.21,6.25,4.55,8.25,2.34,2,5.38,3,9.11,3,6.15,0,10.96-2.15,14.42-6.46l8.88,10.49c-2.42,3.34-5.85,6.01-10.29,7.99-4.44,1.98-9.22,2.97-14.33,2.97ZM409.9,40.02c-5.69,0-9.07,3.77-10.15,11.3h19.6v-1.5c.08-3.11-.71-5.53-2.36-7.24-1.65-1.71-4.02-2.57-7.09-2.57Z"/>
        <path class="cls-1" d="M544.42,60.14c-.27,5.84-1.84,11-4.73,15.48-2.88,4.48-6.93,7.95-12.14,10.41-5.21,2.46-11.16,3.69-17.85,3.69-11.03,0-19.72-3.59-26.06-10.78-6.34-7.19-9.51-17.34-9.51-30.44v-4.15c0-8.23,1.43-15.42,4.3-21.59,2.86-6.17,6.99-10.94,12.37-14.3,5.38-3.36,11.61-5.04,18.68-5.04,10.19,0,18.37,2.68,24.56,8.04,6.19,5.36,9.71,12.75,10.55,22.17h-20.18c-.15-5.11-1.44-8.78-3.86-11.01-2.42-2.23-6.11-3.34-11.07-3.34s-8.73,1.88-11.07,5.65c-2.34,3.77-3.57,9.78-3.69,18.05v5.94c0,8.96,1.12,15.36,3.37,19.2,2.25,3.84,6.12,5.77,11.62,5.77,4.65,0,8.21-1.1,10.67-3.29,2.46-2.19,3.77-5.67,3.92-10.44h20.12Z"/>
        <path class="cls-1" d="M572.1,32.87c4.15-5.23,9.46-7.84,15.91-7.84,6.88,0,12.07,2.04,15.57,6.11,3.5,4.07,5.29,10.09,5.36,18.05v39.38h-19.49v-38.92c0-3.31-.67-5.74-2.02-7.29-1.35-1.56-3.63-2.34-6.86-2.34-4,0-6.82,1.27-8.48,3.81v44.74h-19.43V0h19.43v32.87Z"/>
        <path class="cls-1" d="M619.61,10.09c0-2.77,1-5.04,3-6.8,2-1.77,4.59-2.65,7.78-2.65s5.79.88,7.78,2.65c2,1.77,3,4.04,3,6.8s-1,5.04-3,6.8c-2,1.77-4.59,2.65-7.78,2.65s-5.79-.88-7.78-2.65c-2-1.77-3-4.04-3-6.8ZM640.25,88.57h-19.49V26.18h19.49v62.39Z"/>
        <path class="cls-1" d="M672.72,88.57h-19.49V0h19.49v88.57Z"/>
        <path class="cls-1" d="M682.23,56.91c0-9.88,2.13-17.66,6.4-23.35,4.27-5.69,10.22-8.53,17.88-8.53,5.57,0,10.26,2.19,14.07,6.57V0h19.49v88.57h-17.47l-.98-6.69c-4,5.23-9.07,7.84-15.22,7.84-7.42,0-13.3-2.84-17.64-8.53-4.34-5.69-6.52-13.78-6.52-24.27ZM701.66,58.12c0,11.07,3.23,16.61,9.69,16.61,4.3,0,7.38-1.81,9.23-5.42v-23.76c-1.77-3.69-4.81-5.54-9.11-5.54-6,0-9.25,4.84-9.74,14.53l-.06,3.58Z"/>
        <path class="cls-1" d="M788.84,43.76l-6.4-.46c-6.11,0-10.03,1.92-11.76,5.77v39.5h-19.43V26.18h18.22l.63,8.01c3.27-6.11,7.82-9.17,13.67-9.17,2.08,0,3.88.23,5.42.69l-.35,18.05Z"/>
        <path class="cls-1" d="M824.94,89.72c-9.57,0-17.32-2.85-23.24-8.56-5.92-5.71-8.88-13.14-8.88-22.29v-1.62c0-6.38,1.18-12.01,3.55-16.89,2.36-4.88,5.81-8.66,10.35-11.33,4.54-2.67,9.92-4.01,16.14-4.01,8.76,0,15.68,2.72,20.76,8.16,5.07,5.44,7.61,13.02,7.61,22.75v7.55h-38.63c.69,3.5,2.21,6.25,4.55,8.25,2.34,2,5.38,3,9.11,3,6.15,0,10.96-2.15,14.41-6.46l8.88,10.49c-2.42,3.34-5.85,6.01-10.29,7.99-4.44,1.98-9.22,2.97-14.33,2.97ZM822.75,40.02c-5.69,0-9.07,3.77-10.15,11.3h19.6v-1.5c.08-3.11-.71-5.53-2.36-7.24-1.65-1.71-4.02-2.57-7.09-2.57Z"/>
        <path class="cls-1" d="M876.89,26.18l.63,7.32c4.3-5.65,10.24-8.48,17.82-8.48,6.5,0,11.35,1.94,14.56,5.82,3.21,3.88,4.87,9.73,4.99,17.53v40.19h-19.49v-39.38c0-3.15-.63-5.47-1.9-6.95-1.27-1.48-3.58-2.22-6.92-2.22-3.81,0-6.63,1.5-8.48,4.5v44.05h-19.43V26.18h18.22Z"/>
      </g>
      <g>
        <path class="cls-1" d="M52.87,197.67H20.24v33.44H0v-83.95h56.16v15.63H20.24v19.32h32.64v15.57Z"/>
        <path class="cls-1" d="M60.02,199.34c0-6.23,1.21-11.77,3.63-16.63,2.42-4.86,5.9-8.6,10.44-11.21,4.54-2.61,9.86-3.92,15.97-3.92,9.34,0,16.7,2.89,22.08,8.68,5.38,5.79,8.07,13.66,8.07,23.61v.69c0,9.73-2.7,17.44-8.1,23.15-5.4,5.71-12.71,8.56-21.94,8.56s-16.01-2.66-21.39-7.99c-5.38-5.32-8.28-12.54-8.71-21.65l-.06-3.29ZM79.46,200.55c0,5.77.9,10,2.71,12.68,1.81,2.69,4.48,4.04,8.01,4.04,6.92,0,10.46-5.32,10.61-15.97v-1.96c0-11.19-3.58-16.78-10.72-16.78-6.5,0-10.01,4.83-10.55,14.47l-.06,3.52Z"/>
        <path class="cls-1" d="M165.94,224.37c-4.11,5.27-9.67,7.9-16.66,7.9s-12.02-1.99-15.54-5.97c-3.52-3.98-5.28-9.7-5.28-17.15v-40.42h19.43v40.53c0,5.34,2.59,8.02,7.78,8.02,4.46,0,7.63-1.59,9.51-4.79v-43.76h19.55v62.39h-18.22l-.58-6.75Z"/>
        <path class="cls-1" d="M213.23,168.73l.63,7.32c4.3-5.65,10.24-8.48,17.82-8.48,6.5,0,11.35,1.94,14.56,5.82,3.21,3.88,4.87,9.73,4.99,17.53v40.19h-19.49v-39.38c0-3.15-.63-5.47-1.9-6.95-1.27-1.48-3.58-2.22-6.92-2.22-3.81,0-6.63,1.5-8.48,4.5v44.05h-19.43v-62.39h18.22Z"/>
        <path class="cls-1" d="M259.53,199.46c0-9.88,2.13-17.66,6.4-23.35,4.27-5.69,10.22-8.53,17.88-8.53,5.57,0,10.26,2.19,14.07,6.57v-31.6h19.49v88.57h-17.47l-.98-6.69c-4,5.23-9.07,7.84-15.22,7.84-7.42,0-13.3-2.84-17.64-8.53-4.34-5.69-6.52-13.78-6.52-24.27ZM278.96,200.67c0,11.07,3.23,16.61,9.69,16.61,4.3,0,7.38-1.81,9.23-5.42v-23.76c-1.77-3.69-4.81-5.54-9.11-5.54-6,0-9.25,4.84-9.74,14.53l-.06,3.58Z"/>
        <path class="cls-1" d="M363.54,231.11c-.69-1.27-1.31-3.13-1.85-5.59-3.57,4.5-8.57,6.75-14.99,6.75-5.88,0-10.88-1.78-14.99-5.33-4.11-3.55-6.17-8.02-6.17-13.41,0-6.77,2.5-11.88,7.5-15.34,5-3.46,12.26-5.19,21.79-5.19h6v-3.3c0-5.75-2.48-8.63-7.44-8.63-4.61,0-6.92,2.28-6.92,6.84h-19.43c0-6.03,2.57-10.92,7.7-14.68,5.13-3.76,11.68-5.64,19.63-5.64s14.24,1.94,18.85,5.82c4.61,3.88,6.98,9.21,7.09,15.97v27.62c.08,5.73.96,10.11,2.65,13.15v.98h-19.43ZM351.38,218.43c2.42,0,4.43-.52,6.03-1.56,1.59-1.04,2.74-2.21,3.43-3.52v-9.98h-5.65c-6.77,0-10.15,3.04-10.15,9.11,0,1.77.6,3.2,1.79,4.3,1.19,1.09,2.71,1.64,4.56,1.64Z"/>
        <path class="cls-1" d="M413.71,153.22v15.51h10.26v13.49h-10.26v28.54c0,2.34.42,3.98,1.27,4.9.85.92,2.52,1.38,5.02,1.38,1.92,0,3.54-.12,4.84-.35v13.9c-3.5,1.11-7.15,1.67-10.96,1.67-6.69,0-11.63-1.58-14.82-4.73-3.19-3.15-4.79-7.94-4.79-14.36v-30.96h-7.96v-13.49h7.96v-15.51h19.43Z"/>
        <path class="cls-1" d="M431.47,152.64c0-2.77,1-5.04,3-6.8,2-1.77,4.59-2.65,7.78-2.65s5.79.88,7.78,2.65c2,1.77,3,4.04,3,6.8s-1,5.04-3,6.8c-2,1.77-4.59,2.65-7.78,2.65s-5.79-.88-7.78-2.65c-2-1.77-3-4.04-3-6.8ZM452.11,231.11h-19.49v-62.39h19.49v62.39Z"/>
        <path class="cls-1" d="M461.62,199.34c0-6.23,1.21-11.77,3.63-16.63,2.42-4.86,5.9-8.6,10.44-11.21,4.54-2.61,9.86-3.92,15.97-3.92,9.34,0,16.7,2.89,22.08,8.68,5.38,5.79,8.07,13.66,8.07,23.61v.69c0,9.73-2.7,17.44-8.1,23.15-5.4,5.71-12.71,8.56-21.94,8.56s-16.01-2.66-21.39-7.99c-5.38-5.32-8.28-12.54-8.71-21.65l-.06-3.29ZM481.06,200.55c0,5.77.9,10,2.71,12.68,1.81,2.69,4.48,4.04,8.01,4.04,6.92,0,10.46-5.32,10.61-15.97v-1.96c0-11.19-3.58-16.78-10.72-16.78-6.5,0-10.01,4.83-10.55,14.47l-.06,3.52Z"/>
        <path class="cls-1" d="M548.23,168.73l.63,7.32c4.3-5.65,10.24-8.48,17.82-8.48,6.5,0,11.35,1.94,14.56,5.82,3.21,3.88,4.87,9.73,4.99,17.53v40.19h-19.49v-39.38c0-3.15-.63-5.47-1.9-6.95-1.27-1.48-3.58-2.22-6.92-2.22-3.81,0-6.63,1.5-8.48,4.5v44.05h-19.43v-62.39h18.22Z"/>
      </g>
    </g>
  </g>
</svg>