<?xml version="1.0" encoding="UTF-8"?>
<svg id="Layer_2" data-name="Layer 2" xmlns="http://www.w3.org/2000/svg" viewBox="0 0 191.35 191.49">
  <defs>
    <style>
      .cls-1 {
        fill: #fff;
      }
    </style>
  </defs>
  <g id="Layer_1-2" data-name="Layer 1">
    <g>
      <path class="cls-1" d="M2.57,119.49s8.15,41.74,50.38,62.48c0,0,13.09,6.06,21.43,7.37,0,0,13.34,3.7,33.71,1.38,0,0,29.08-3.25,47.11-20.25,0,0,3.33-9.37-7.66-5.25,0,0,3.7-14-10.99-4.75,0,0,5.98-18.12-13-2.87,0,0-9.54,9.25-22.84,10.75,0,0-17.87,2.37-26.03-5.5,0,0,21.86-1.87,29.02-14,0,0,5.06-9.75-5.68-9.12,0,0-3.85-.13-18.9,5.87,0,0-44.45,14.87-76.55-26.12Z"/>
      <g>
        <path class="cls-1" d="M78.83,73.43c0,5.09-4.13,9.21-9.21,9.21s-9.21-4.13-9.21-9.21,4.12-9.21,9.21-9.21,9.21,4.12,9.21,9.21Z"/>
        <path class="cls-1" d="M59.28,89.46s-16.01-7.13-11.91-26.36c0,0,1.38-4.4,5.62,0,0,0-3.95,17.99,11.5,22.64,0,0,19.36,5.08,23.64-16.91,0,0,.84-4.68,5.4-.77,0,0,1.21,10.7-10.52,20.47,0,0-5.68,3.91-5.58,9.68,0,0-.37,7.07,3.72,10.7,0,0,5.21,5.21,6.14,13.59,0,0,2.51,17.75-5.03,18.88,0,0-6.05.76-4.75-6.41,0,0,2.61-10.05-.93-16.57,0,0-3.82-7.63-4.09-.09,0,0-1.68,9.59-8.28,10.24,0,0-19.92.93-14.05-9.96,0,0,2.23-2.42,5.86-.28,0,0,9.59,5.49,6.89-6.24,0,0-3.91-15.64-3.63-22.62Z"/>
      </g>
      <g>
        <circle class="cls-1" cx="129.32" cy="68.09" r="8.84"/>
        <path class="cls-1" d="M113.73,81.83s-9.87-1.71-11.26-13c0,0-.74-5.98-.47-9.89,0,0,.03-3.6,4.06-3.72,0,0,2.64-.37,2.08,4.51,0,0-2.08,11.49,4.87,16.02,0,0,3.04,1.68,6.33,1.24,0,0,5.83,0,7.94,2.17,0,0,1.86,1.79,7.63-1.49,0,0,5.96-3.29,6.95-9.15,0,0,.12-3.25,3.91-2.57,0,0,3.78.68,1.12,6.82,0,0-3.78,9.55-13.77,12.04,0,0-2.36,10.86,4.34,21.22,0,0,.37.81-5.21,2.98,0,0-.25,5.34,8.87,6.2,0,0,6.7-.31,4.71,5.15,0,0-2.11,5.46-12.72.62,0,0-5.89-2.79-8.87-9.37,0,0-4.1.19-2.48,3.97,0,0,3.54,11.23,6.45,14.27,0,0,2.05,3.35-.31,5.34,0,0-2.73,2.85-5.83-.81,0,0-3.23-3.54-5.46-10.92,0,0-1.74-4.96-2.61-9.43,0,0-1.86.43-3.72-.06,0,0-.68-4.03-.56-9.49,0,0-.37-10.11,2.23-17.12,0,0,1.99-4.9,1.77-5.52Z"/>
      </g>
      <path class="cls-1" d="M191.35,95.67C191.35,42.83,148.51,0,95.67,0S0,42.83,0,95.67c0,6.49.65,12.83,1.88,18.95,4.97,5.13,11.14,11.1,17.17,15.84-4.82-10.6-7.51-22.38-7.51-34.79C11.54,49.21,49.21,11.54,95.67,11.54s84.13,37.67,84.13,84.13c0,25.16-11.05,47.74-28.55,63.16,0,.53-.04,1.1-.22,1.62,0,0,10.9-3.15,9.6,5.46,18.89-17.48,30.71-42.47,30.71-70.23Z"/>
    </g>
  </g>
</svg>