<?xml version="1.0" encoding="UTF-8"?>
<svg id="Layer_2" data-name="Layer 2" xmlns="http://www.w3.org/2000/svg" viewBox="0 0 539.98 135">
  <defs>
    <style>
      .cls-1 {
        fill: #f6f4e0;
      }
    </style>
  </defs>
  <g id="Layer_1-2" data-name="Layer 1">
    <path class="cls-1" d="M.02,135h539.96c0-7.15,0-14.3,0-21.45,0-25.2-.01-50.4-.04-75.6,0-1.77.23-3.69-.67-5.34-.72,0-1.47-.02-2.21,0-2.41.09-4.82.2-7.23.29-.6.02-1.21-.08-1.81.03-3.23.57-6.52.65-9.65,1.96-3.12,1.3-6.43.29-9.42,2.83-.78.66-1.76.65-2.66.8-2.86.48-5.93-.47-8.17,3.93-2.11.84-4.23,1.67-6.34,2.54-.78.32-1.56.65-2.31,1.14-2.12,1.42-4.29,3.16-6.35.17-.93-1.35-1.83-1.49-2.9-1.54-1.12-.04-2.41.28-3.32-.55-2.38-2.18-4.75-3.97-7.51-3.44-.21.04-.43-.22-.66-.27-1.57-.35-3.16-.49-4.69-1.06-2.27-.84-4.67-1.4-6.71-3.14-1.84-1.57-3.62-2.29-5.58-2.45-.82-.07-1.72.06-2.45-.47-1.99-1.45-3.99-2.32-6.16-1.86-.43.09-.9-.12-1.33-.32-1.67-.79-3.34-1.62-5.01-2.45-3.33-1.65-6.62-3.55-9.99-4.89-2.85-1.13-5.78-1.62-8.68-2.4-.52-.14-1.13-.06-1.53-.52-1.16-1.35-2.45-1.24-3.72-1.19-1.88.08-3.79.77-5.64.4-3.07-.63-5.98,0-8.94,1.35-2.96,1.35-5.93,1.3-8.87-.88-1.35-1.01-2.89-1.59-4.36-1.73-3.61-.34-7.23-.31-10.84-.44-3.59-.13-6.76-2.66-9.73-5.77-2.45-2.55-4.71-5.62-7.03-8.53-1.21-1.51-2.33-1.8-3.78-.68-1.68,1.3-3.42,1.45-5.08-.87-.59-.83-1.68-.79-2.54-.8-.81,0-1.64.73-2.44.66-3.04-.28-5.65,2.58-8.55,3.32-.42.11-.83.63-1.2,1.06-.88,1.01-1.76,1.09-2.79.63-.84-.37-1.78-.14-2.67-.05-2.78.3-5.55.71-8.34.96-.66.06-1.46-.01-1.97-.61-1.37-1.59-2.85-1.48-4.36-1.51-.9-.02-1.8-.17-2.7-.3-1.41-.19-2.39-1.29-2.81-3.79-.14-.8-.55-1.46-.84-2.2-.41.25-.7.39-.96.61-3.12,2.51-6.34,4.17-9.84,3.39-.82-.18-1.66-.15-2.49-.09-.51.04-1.11.09-1.5.56-1.92,2.24-4.23,1.49-6.31,2.58-.58.3-1.37-.62-2.06-1-1.13-.62-2.42-1.9-3.39-.18-.84,1.49-1.68,1.42-2.64,1.45-1.05.04-2.11.09-3.16.29-2.31.42-4.62.93-6.92,1.42-.37.08-.78.15-1.07.49-1.35,1.61-2.72,1.16-4.11.27-2.13-1.36-4.29-2.3-6.59-2.53-1.15-.12-2.33-1.05-3.37-2.02-1.28-1.19-2.62-1.73-3.93-1.05-1.96,1.02-3.85.8-5.81.26-.67-.19-1.65.06-2.06.81-.55,1.01-.96,2-1.82,1.73-.8-.25-1.71-.33-2.36-1.07-1.57-1.8-3.21-2.75-5.1-2.73-.73,0-1.51-.34-2.2-.81-2.29-1.57-4.56-1.53-6.85-.06-1.08.69-2.15.78-3.29.05-1.86-1.19-3.68-1.33-5.05,1.61-.27-.14-.43-.18-.56-.29-3.38-2.81-6.68-3.51-9.99.47-.9,1.09-2.02,1.92-3.1,2.25-4,1.23-7.97,2.88-12.09,2.38-.51-.06-1.25-.09-1.51.43-1.11,2.28-2.59,1.76-3.99,1.94-1.05.13-2.14,0-3.15.44-3.05,1.34-6.15,2.11-9.24,3.07-5.17,1.6-10.23,4.38-15.28,6.99-2.98,1.54-6.07,2.41-8.91.82-2.47-1.39-4.66-1.3-7.05-.42-1.38.51-2.82.47-4.22.86-1.17.32-2.48.43-3.43,1.47-3.69,4.04-7.71,5.87-11.99,6.25-1.57.14-3.26.41-4.71-.4-2.51-1.41-4.86-1.24-7.26.33-.11.07-.28-.1-.46-.18-.19-1.04-.39-2.11-.59-3.21-2.04.39-3.96.75-5.92,1.13-.25-.74-.52-1.39-.7-2.09-.67-2.57-1.76-3.78-3.41-3.42-1.55.34-3.11.68-4.67.88-.81.11-1.67.16-2.45-.18-1.09-.47-2.13-1.3-3.18-2.04-2.32-1.64-4.69-2.94-7.23-2.78-1.39.09-2.69.93-4.16.84-4.06-.24-8.14.23-12.21.27-1.25.01-2.35.43-3.43,1.54-.53.55-1.28.96-1.87.79-2.44-.7-4.86-1.63-7.29-2.5-3.69-1.33-7.35-.73-11.01.52-.93.32-1.56,1.08-2.08,2.62-1.28,3.76-3.15,4.4-5.41,2.45-1-.86-2.09-1.83-3.16-1.95-2.7-.3-5.42-.15-8.13-.14-.29,0-.59.18-.88.34-1.79,1.03-3.6,1.97-5.35,3.17-1.26.86-2.42,1.18-3.71.24-.51-.37-1.28-.54-1.71-.12-1.29,1.28-2.66,2.59-3.62,4.48-.99,1.95-1.95,2.95-3.45,2.97-1.74.02-1.95.5-1.98,3.47-.03,3.28.04,6.56.04,9.84,0,29.17-.02,58.34-.02,87.51Z"/>
  </g>
</svg>