<svg xmlns="http://www.w3.org/2000/svg" x="0px" y="0px" viewBox="0 0 122 54" width="140" height="62" xml:space="preserve">
                <title>bKash Logo</title>
                <g fill="#FFFFFF">
                  <polygon points="82.9,25.9 86.2,40.5 107.7,29.8"></polygon>
                  <polygon points="89,3.8 83.2,25 107.2,28.8"></polygon>
                  <polygon points="62.8,0.6 88.3,3.7 82.3,25.5"></polygon>
                  <polygon points="62.5,4.8 65.5,4.8 73.5,15.1"></polygon>
                  <polygon points="108.4,29.6 100.9,19.3 112.9,17"></polygon>
                  <polygon points="107.2,32.5 107.9,30.3 89.2,39.9"></polygon>
                  <polygon points="82.4,26.3 86.3,44 74.7,53.4"></polygon>
                  <polygon points="111.8,22.3 118.8,22.3 113.7,17.2"></polygon>
                  <path d="M5.4 21.2h15.2v2.2H5.2v17.8c0 0-.7-.1-1.1-.1-.4 0-.9.1-.9.1V23.4v-2.2-.1c0-5.2 2-8.2 7-8.5 4.5-.3 8 2.3 10.4 3.6v2.6l-.3.1c-.4-1-5.8-5.5-9.3-5.1-3.6.4-5.8 2.9-5.8 6.2C5.2 20 5.2 20.9 5.4 21.2L5.4 21.2zM36.6 24.9c3.8-.1 5.7 1.2 5.8 4.1.1 1.6-.6 3.1-1.7 4.4l-1.9.1v-.3c.7-.2 2.3-1.3 2.2-3.3s-1.6-3.6-4-3.5c0 0-.4 0-.6.1L36.6 24.9z"></path>
                  <polygon points="18.5,23 20.6,23 20.6,41.2 18.5,40.5"></polygon>
                  <path d="M57.3,25.5c-0.8-2.7-3.1-4.3-4.8-4.3H48v2.2H51c1.3,0,2.6-0.1,3.8,1c0.5,0.5,0.7,1,0.9,1.7 c0.4,1.7-0.4,3.8-2.4,3.8c-0.6,0-1.3,0-1.9-0.2v0.1c0.5,0.6,0.8,1.4,1.2,2.1c1.2-0.2,2.4-0.9,3.2-1.7 C56.9,28.9,57.6,27.3,57.3,25.5"></path>
                  <path d="M60.6 21.5c-1.3.2-3.3 1.3-4 4.1-.2 1.8.3 3.4 1.5 4.6.7.8 1.8 1.5 2.8 1.7.3-.7.7-1.4 1.1-2.1l-.1-.1c-.5.2-1.1.2-1.7.2-2.1-.1-2.4-2.2-2.1-3.8.3-1.4 1.5-2.8 2.8-2.9 1.4-.1 3.1 1 3.4 2.5.2.8.2 1.6.2 2.4v13.2c0 0 .6-.1 1-.1s1 .1 1 .1V21.4h-2.2v2.2c0-.1.1-.1 0-.3C63.6 22 61.8 21.3 60.6 21.5M47.6 21.2v2.2 17.8c0 0-.6-.1-1-.1s-1 .1-1 .1V23.4H21.1v-2.2H47.6zM20.6 41.2h-.3c-7.8 0-12.2-4.3-12.2-8.6 0-3.6 3.3-7.8 10.9-7.8l1.3 1c-5.3 0-9.6 3.4-9.6 6.8 0 3 3.8 7.8 9.9 7.8V41.2z"></path>
                  <polygon points="34.8,23 36.9,23 36.9,41.2 34.8,40.5"></polygon>
                  <path d="M36.9,41.2h-0.3c-7.8,0-12.2-4.3-12.2-8.6c0-3.6,3.3-7.8,10.9-7.8l1.3,1c-5.3,0-9.6,3.4-9.6,6.8 c0,3,3.8,7.8,9.9,7.8V41.2z"></path>
                </g>
              </svg>