<?xml version="1.0" encoding="UTF-8"?>
<svg id="Layer_2" data-name="Layer 2" xmlns="http://www.w3.org/2000/svg" viewBox="0 0 521.96 522.35">
  <defs>
    <style>
      .cls-1 {
        fill: #1e92c0;
      }

      .cls-2 {
        fill: #ce2031;
      }
    </style>
  </defs>
  <g id="Layer_1-2" data-name="Layer 1">
    <g>
      <path class="cls-2" d="M7.02,325.95s22.23,113.85,137.44,170.43c0,0,35.71,16.54,58.45,20.11,0,0,36.38,10.08,91.96,3.76,0,0,79.33-8.88,128.51-55.23,0,0,9.09-25.57-20.89-14.32,0,0,10.11-38.18-29.98-12.95,0,0,16.31-49.42-35.47-7.84,0,0-26.01,25.22-62.31,29.31,0,0-48.76,6.47-70.99-15,0,0,59.62-5.11,79.16-38.18,0,0,13.81-26.59-15.5-24.88,0,0-10.49-.34-51.56,16.02,0,0-121.25,40.56-208.83-71.24Z"/>
      <g>
        <path class="cls-1" d="M215.03,200.3c0,13.88-11.25,25.13-25.13,25.13s-25.13-11.25-25.13-25.13,11.25-25.13,25.13-25.13,25.13,11.25,25.13,25.13Z"/>
        <path class="cls-1" d="M161.71,244.04s-43.67-19.44-32.5-71.92c0,0,3.76-12,15.33,0,0,0-10.76,49.07,31.38,61.76,0,0,52.81,13.86,64.48-46.13,0,0,2.28-12.77,14.72-2.1,0,0,3.3,29.2-28.69,55.85,0,0-15.49,10.66-15.23,26.4,0,0-1.02,19.29,10.16,29.2,0,0,14.22,14.22,16.76,37.07,0,0,6.85,48.42-13.71,51.5,0,0-16.5,2.07-12.95-17.48,0,0,7.11-27.42-2.54-45.19,0,0-10.41-20.82-11.17-.25,0,0-4.57,26.15-22.59,27.93,0,0-54.33,2.54-38.33-27.16,0,0,6.09-6.6,15.99-.76,0,0,26.15,14.98,18.79-17.01,0,0-10.66-42.65-9.9-61.69Z"/>
      </g>
      <g>
        <circle class="cls-2" cx="352.76" cy="185.72" r="24.12"/>
        <path class="cls-2" d="M310.23,223.22s-26.91-4.68-30.72-35.47c0,0-2.03-16.32-1.27-26.98,0,0,.08-9.82,11.09-10.16,0,0,7.19-1.02,5.67,12.31,0,0-5.67,31.35,13.29,43.71,0,0,8.29,4.57,17.26,3.38,0,0,15.91,0,21.66,5.92,0,0,5.08,4.89,20.82-4.07,0,0,16.25-8.98,18.96-24.96,0,0,.34-8.88,10.66-7.01,0,0,10.32,1.86,3.05,18.62,0,0-10.32,26.06-37.57,32.83,0,0-6.43,29.62,11.85,57.88,0,0,1.02,2.2-14.22,8.12,0,0-.68,14.56,24.2,16.93,0,0,18.28-.85,12.86,14.05,0,0-5.75,14.89-34.7,1.69,0,0-16.08-7.62-24.2-25.56,0,0-11.17.51-6.77,10.83,0,0,9.65,30.63,17.6,38.93,0,0,5.59,9.14-.84,14.56,0,0-7.45,7.79-15.91-2.2,0,0-8.8-9.65-14.89-29.79,0,0-4.74-13.54-7.11-25.73,0,0-5.08,1.18-10.15-.17,0,0-1.86-11-1.52-25.9,0,0-1.02-27.59,6.09-46.71,0,0,5.42-13.37,4.82-15.06Z"/>
      </g>
      <path class="cls-1" d="M521.96,260.98C521.96,116.84,405.11,0,260.98,0S0,116.84,0,260.98c0,17.7,1.77,34.99,5.13,51.7,13.56,14,30.39,30.27,46.83,43.2-13.15-28.92-20.48-61.06-20.48-94.9,0-126.75,102.75-229.5,229.5-229.5s229.5,102.75,229.5,229.5c0,68.63-30.14,130.22-77.89,172.28.02,1.44-.12,3.01-.59,4.41,0,0,29.75-8.59,26.18,14.89,51.52-47.67,83.78-115.85,83.78-191.58Z"/>
    </g>
  </g>
</svg>